<svg width="50" height="51" viewBox="0 0 50 51" fill="none" xmlns="http://www.w3.org/2000/svg">
<g opacity="0.5">
<path d="M14.5926 0.671997H35.5206V15.936H49.9206V36.768H35.5206V50.496H14.5926V36.768H0.0966252V15.936H14.5926V0.671997Z" fill="#E8D9C1"/>
<path d="M14.5926 0.671997V0.371997H14.2926V0.671997H14.5926ZM35.5206 0.671997H35.8206V0.371997H35.5206V0.671997ZM35.5206 15.936H35.2206V16.236H35.5206V15.936ZM49.9206 15.936H50.2206V15.636H49.9206V15.936ZM49.9206 36.768V37.068H50.2206V36.768H49.9206ZM35.5206 36.768V36.468H35.2206V36.768H35.5206ZM35.5206 50.496V50.796H35.8206V50.496H35.5206ZM14.5926 50.496H14.2926V50.796H14.5926V50.496ZM14.5926 36.768H14.8926V36.468H14.5926V36.768ZM0.0966244 36.768H-0.203375V37.068H0.0966244V36.768ZM0.0966244 15.936V15.636H-0.203375V15.936H0.0966244ZM14.5926 15.936V16.236H14.8926V15.936H14.5926ZM14.5926 0.971997H35.5206V0.371997H14.5926V0.971997ZM35.2206 0.671997V15.936H35.8206V0.671997H35.2206ZM35.5206 16.236H49.9206V15.636H35.5206V16.236ZM49.6206 15.936V36.768H50.2206V15.936H49.6206ZM49.9206 36.468H35.5206V37.068H49.9206V36.468ZM35.2206 36.768V50.496H35.8206V36.768H35.2206ZM35.5206 50.196H14.5926V50.796H35.5206V50.196ZM14.8926 50.496V36.768H14.2926V50.496H14.8926ZM14.5926 36.468H0.0966244V37.068H14.5926V36.468ZM0.396626 36.768V15.936H-0.203375V36.768H0.396626ZM0.0966244 16.236H14.5926V15.636H0.0966244V16.236ZM14.8926 15.936V0.671997H14.2926V15.936H14.8926Z" fill="black"/>
</g>
</svg>
