<svg width="18" height="22" viewBox="0 0 18 22" fill="none" xmlns="http://www.w3.org/2000/svg">
<path d="M16.5653 21L16.2278 21.3689C16.3691 21.4982 16.5719 21.5354 16.7499 21.4647C16.9279 21.394 17.0499 21.2278 17.064 21.0368L16.5653 21ZM9 14.0769L9.33755 13.7081C9.14648 13.5332 8.85352 13.5332 8.66245 13.7081L9 14.0769ZM1.43466 21L0.936012 21.0368C0.950108 21.2278 1.0721 21.394 1.25012 21.4647C1.42814 21.5354 1.6309 21.4982 1.77221 21.3689L1.43466 21ZM1.43466 1V0.5C1.17514 0.5 0.958759 0.698551 0.936499 0.957114L1.43466 1ZM16.5653 1L17.0635 0.957113C17.0412 0.698551 16.8249 0.5 16.5653 0.5V1ZM1.29713 19.1363L1.79578 19.0995H1.79578L1.29713 19.1363ZM16.7029 19.1363L17.2015 19.1731L16.7029 19.1363ZM16.9029 20.6311L9.33755 13.7081L8.66245 14.4458L16.2278 21.3689L16.9029 20.6311ZM8.66245 13.7081L1.09711 20.6311L1.77221 21.3689L9.33755 14.4458L8.66245 13.7081ZM1.43466 1.5H16.5653V0.5H1.43466V1.5ZM16.2042 19.0995L16.0667 20.9632L17.064 21.0368L17.2015 19.1731L16.2042 19.0995ZM1.9333 20.9632L1.79578 19.0995L0.79849 19.1731L0.936012 21.0368L1.9333 20.9632ZM16.0672 1.04289C16.5845 7.05201 16.6479 13.0867 16.2042 19.0995L17.2015 19.1731C17.6493 13.1043 17.5851 7.01627 17.0635 0.957113L16.0672 1.04289ZM1.79578 19.0995C1.35208 13.0867 1.41549 7.05201 1.93281 1.04289L0.936499 0.957114C0.414866 7.01627 0.350662 13.1043 0.79849 19.1731L1.79578 19.0995Z" fill="black"/>
</svg>
