<svg width="429" height="243" viewBox="0 0 429 243" fill="none" xmlns="http://www.w3.org/2000/svg">
<path d="M-49.1686 66.1758C-46.6457 54.5093 -56.2422 63.4749 -58.1133 69.5924C-68.9 104.86 -69.9115 149.056 -62.2723 185.1C-58.0377 205.081 -49.5323 224.865 -30.2937 234.226C18.0287 257.74 78.4005 213.315 106.082 176.52C130.79 143.676 146.77 86.1884 116.921 50.908C109.313 41.9159 98.5485 35.859 86.6032 35.9161C62.8928 36.0295 48.3419 61.5372 39.1893 80.3872C22.5984 114.556 26.6327 166.618 44.2979 199.344C64.024 235.887 104.222 240.647 141.128 229.174C190.165 213.929 232.787 171.254 250.409 123.196C262.069 91.3966 267.665 49.9358 248.065 19.7338C237.287 3.12422 213.129 -4.81121 196.83 8.21854C175.611 25.1813 167.664 66.5064 166.025 91.8449C163.775 126.641 174.916 161.596 200.442 186.281C255.605 239.627 355.147 195.082 391.462 141.196C404.979 121.139 416.478 99.7154 419.813 75.4394C420.718 68.8514 419.611 56.7019 427.461 64.8419" stroke="black" stroke-width="3" stroke-linecap="round"/>
</svg>
