<svg width="55" height="61" viewBox="0 0 55 61" fill="none" xmlns="http://www.w3.org/2000/svg">
<path d="M26.7278 8.16951C26.7278 7.62274 26.7246 -0.899151 25.4138 3.03304C19.7484 20.0284 21.6302 41.1107 20.2773 58.698" stroke="white" stroke-width="3" stroke-linecap="round"/>
<path d="M13.8259 14.6199C14.832 14.6199 13.8236 15.1737 13.587 16.1728C11.8357 23.5671 12.1466 31.8138 11.6758 39.3466" stroke="white" stroke-width="3" stroke-linecap="round"/>
<path d="M32.1033 15.6951C32.1033 26.0271 30.6553 36.5733 29.9531 46.8722" stroke="white" stroke-width="3" stroke-linecap="round"/>
<path d="M38.5516 23.2205C38.5516 28.621 37.8356 33.9617 37.4766 39.3466" stroke="white" stroke-width="3" stroke-linecap="round"/>
<path d="M47.153 11.3948C47.153 23.2146 45.1493 35.1453 43.9277 46.8722" stroke="white" stroke-width="3" stroke-linecap="round"/>
<path d="M52.5296 23.2205C50.0312 26.0311 51.4545 32.7399 51.4545 36.1213" stroke="white" stroke-width="3" stroke-linecap="round"/>
<path d="M3.07506 28.5958C3.07506 28.0003 2 32.3108 2 33.9712" stroke="white" stroke-width="3" stroke-linecap="round"/>
</svg>
