<svg width="320" height="274" viewBox="0 0 320 274" fill="none" xmlns="http://www.w3.org/2000/svg">
<path d="M260.624 254.469C265.236 253.606 261.074 255.273 258.813 255.55C241.476 257.673 212.874 251.499 199.846 239.192C181.79 222.135 194.768 187.447 212.648 175.38C220.773 169.897 271.933 159.054 264.437 182.272C253.558 215.97 193.854 204.44 171.592 194.405C142.48 181.283 117.02 144.474 126.355 111.836C132.994 88.6273 157.762 72.126 181.821 77.5023C187.715 78.8195 191.182 82.5518 190.098 88.8826C188.089 100.611 174.442 107.518 164.217 109.995C112.077 122.623 69.4369 86.7995 35.8446 52.3669" stroke="black" stroke-width="3" stroke-linecap="round"/>
<path d="M41.167 43.5295C42.0557 42.1603 47.4562 45.1049 45.9873 44.3929C39.666 41.3284 33.4293 38.0254 26.7737 35.7332C22.5182 34.2676 10.8138 28.5122 13.8449 31.8393C15.0795 33.1945 16.0203 35.1356 16.7715 36.7781C21.5665 47.2624 22.1543 58.8719 27.2493 69.1986" stroke="black" stroke-width="3" stroke-linecap="round"/>
</svg>
