<svg width="59" height="77" viewBox="0 0 59 77" fill="none" xmlns="http://www.w3.org/2000/svg">
<path d="M6.29533 36.6785C6.24534 36.705 5.53277 37.1218 5.57944 37.1558C6.74284 38.0018 9.98663 34.9351 10.352 34.6263C15.4067 30.3539 19.0421 26.0038 20.7563 19.5926C21.8021 15.6811 22.7178 11.5428 23.1306 7.50607C23.3242 5.61378 23.0471 3.84992 23.0471 2.00567C23.0471 1.8463 23.809 5.09627 23.9539 5.6567C25.7127 12.4612 28.2552 20.5983 34.9786 24.1266C37.8867 25.6528 41.339 26.0564 44.5476 26.489C47.5068 26.888 50.4839 27.2288 53.4723 27.2288C53.8463 27.2288 57.5974 27.3452 56.5029 26.9663C55.2489 26.5322 54.1073 26.8342 52.8519 27.2527C42.098 30.8373 36.1575 40.9575 35.2888 51.9031C34.6877 59.4767 34.8593 67.077 34.8593 74.6683C34.8593 75.5976 34.4519 72.6051 34.4297 72.3059C33.8858 64.9632 29.7071 58.0114 25.2902 52.3326C22.0405 48.1544 18.7362 44.1938 14.1462 41.4272C10.0823 38.9777 6.74945 37.8165 2 38.1819" stroke="black" stroke-width="3" stroke-linecap="round"/>
</svg>
