<svg width="97" height="69" viewBox="0 0 97 69" fill="none" xmlns="http://www.w3.org/2000/svg">
<path d="M49.2383 37.0598C49.3127 37.0846 49.3706 37.126 49.4285 37.1756C49.9411 36.8366 50.4455 36.4893 50.9499 36.1255C50.4124 36.2412 49.8171 36.5968 49.2383 37.0598Z" stroke="#121113" stroke-miterlimit="10"/>
<path d="M49.404 10.4515C45.6666 6.57352 39.6885 4.63867 31.4778 4.63867H25.7973C17.5866 4.63867 11.6001 6.57352 7.83793 10.4515C4.084 14.3294 2.20703 20.4151 2.20703 28.7168C2.20703 32.0407 2.52124 35.0091 3.13311 37.6468C4.38993 36.7951 5.77079 37.746 6.63899 38.8044C8.50768 41.1031 8.15213 44.1376 10.7485 46.1717C11.9888 47.1474 13.6921 47.6601 15.2052 48.3298C18.6615 48.4208 22.1095 49.0905 25.3756 50.2316C26.1445 50.4962 26.3678 51.29 26.128 51.8853C26.2603 51.9101 26.4009 51.9349 26.5332 51.9597C29.0634 51.2155 31.8664 50.9592 34.6943 50.8021C34.6446 50.2729 34.9175 49.7272 35.5376 49.537C36.5712 49.2145 37.5965 48.9251 38.6301 48.6192C39.1097 47.8172 39.6141 47.0234 40.1432 46.2544C39.9696 45.8658 39.9944 45.411 40.3996 45.0058C40.7468 44.6668 41.1189 44.3444 41.491 44.0384C41.5406 43.9144 41.5902 43.7986 41.6399 43.6829C41.5241 43.6829 41.4166 43.6333 41.3339 43.5588C41.1437 43.873 40.9536 44.1955 40.7634 44.5097C40.5071 44.9149 39.9283 44.6172 40.0358 44.2038C38.9691 44.857 37.8363 45.3201 36.8027 45.4523C36.3728 45.5102 36.2984 44.8984 36.596 44.6999C37.2658 44.2534 38.0182 43.7656 38.812 43.3025C38.8451 43.2529 38.8782 43.2033 38.9195 43.1537C38.7376 43.0297 38.6384 42.7651 38.8368 42.5335C38.936 42.4178 39.0435 42.2938 39.151 42.1615C38.9278 42.0705 38.8533 41.8059 38.9526 41.5909C39.0435 41.4173 39.1345 41.2354 39.242 41.0535C39.2172 41.0121 39.1924 40.9708 39.1676 40.9294C38.8947 41.1362 38.6053 41.3263 38.2994 41.4917C37.9686 41.6736 37.6461 41.3759 37.704 41.0369C37.7454 40.8219 37.8198 40.5822 37.919 40.3506C37.1252 39.9786 36.6456 39.0607 37.0425 37.746C37.1004 37.5476 37.2079 37.2995 37.3485 37.0349C37.3154 36.9523 37.2906 36.8778 37.2575 36.7952C37.0921 36.8448 36.9102 36.8034 36.8193 36.6215C36.2818 35.5631 36.042 34.4138 35.9428 33.2314C35.8767 32.9916 35.8188 32.7601 35.7609 32.5203C35.5873 32.8097 35.4054 33.0991 35.2069 33.3802C34.9837 33.6944 34.4545 33.6035 34.4545 33.1735C34.4462 30.1141 34.1568 26.5256 34.5206 23.1355C34.3552 23.0611 34.2312 22.9039 34.2808 22.6724C34.5206 21.705 34.8017 20.7541 35.1325 19.828C35.149 19.7784 35.1573 19.7288 35.1738 19.6709C35.1821 19.5634 35.1904 19.4477 35.1986 19.3402C35.2069 19.2327 35.2482 19.15 35.3061 19.0921C35.3475 18.2735 35.5625 17.5128 35.8519 16.7769C35.8767 16.4545 35.9015 16.1403 35.9428 15.8178C35.9676 15.5615 36.2487 15.3961 36.4637 15.4209C36.5547 15.2307 36.6539 15.0405 36.7449 14.8586C36.7945 14.7098 36.8358 14.561 36.8772 14.4121C36.9102 14.2798 36.9929 14.1971 37.0921 14.1558C37.0921 14.1475 37.1004 14.1393 37.1004 14.131C37.2244 13.8747 37.489 13.8829 37.6627 14.0235C37.6709 13.9491 37.6792 13.8747 37.6875 13.8085C37.6875 13.8003 37.6875 13.792 37.6875 13.7837C37.6957 13.7506 37.6957 13.7093 37.704 13.6762C37.7371 13.4695 37.9107 13.3868 38.0844 13.3951C38.1092 13.2711 38.1422 13.1553 38.1671 13.0313C38.2001 12.8659 38.2994 12.7832 38.4151 12.7584C38.473 12.2044 38.5143 11.6587 38.5226 11.0964C38.5391 10.5755 39.3329 10.5755 39.3329 11.0964V13.2711C39.4983 12.9817 39.6471 12.684 39.7877 12.3781C39.9035 12.1217 40.259 12.1383 40.4326 12.3119C40.6228 11.3031 40.8543 10.3109 41.2347 9.40964C41.4083 9.00448 42.0119 9.02928 42.0285 9.51713C42.1194 12.1879 41.2843 14.7098 40.7386 17.2896C40.0854 20.3655 39.8869 23.5076 39.3247 26.6C39.2668 26.9225 38.9608 26.9473 38.7459 26.815C38.7459 27.7824 38.7541 28.7498 38.7541 29.7173C38.7955 29.8744 38.8368 30.0315 38.8699 30.1886C39.0518 30.1803 39.2668 30.2795 39.3329 30.4697C39.7133 31.5529 40.0936 32.6443 40.3252 33.7606C40.9784 33.4298 41.6481 33.3802 42.2435 33.8185C42.5742 34.0252 42.7561 34.3394 42.8223 34.7197C42.8223 34.7363 42.8305 34.7445 42.8305 34.7611C42.8388 34.7942 42.8388 34.819 42.8388 34.852C42.8636 35.0422 42.8553 35.2324 42.8305 35.4391C42.8057 35.6293 42.7726 35.8195 42.723 36.0179C43.1199 35.9104 43.5168 35.8691 43.8724 35.927C44.1452 35.9683 44.2279 36.3156 44.1122 36.5223C44.0212 36.6877 43.9302 36.853 43.8228 37.0184C44.0295 37.0432 44.2279 37.0928 44.4264 37.1755C44.5752 37.2417 44.6744 37.4814 44.6083 37.6303C44.5504 37.7708 44.476 37.9197 44.3933 38.0768C44.4594 38.0685 44.5256 38.052 44.5917 38.0437C44.8811 38.0106 45.0052 38.2835 44.9638 38.5233C45.1209 38.4985 45.2532 38.5564 45.3359 38.6473C45.832 38.4075 46.3612 38.2339 46.9483 38.1677C48.4284 36.39 50.5947 34.7115 52.2154 35.497C52.513 35.6458 52.4386 36.0344 52.2154 36.1915C51.2562 36.9109 50.264 37.5972 49.2552 38.2422C49.2139 38.3331 49.1725 38.4241 49.1229 38.5067C49.1891 38.5564 49.2552 38.606 49.3214 38.6721C50.0655 38.1181 50.8593 37.622 51.7192 37.192C52.0252 37.0349 52.4221 37.0101 52.7611 37.1176C53.0091 36.5057 53.2737 35.8939 53.5135 35.282C53.7285 34.728 54.2081 34.4882 54.6794 34.4717C54.9109 32.6774 55.0267 30.7591 55.0267 28.7085C55.0101 20.4151 53.1414 14.3294 49.404 10.4515ZM30.8659 33.4795C30.8659 34.8107 29.7827 35.8939 28.4515 35.8939C27.1202 35.8939 26.0371 34.8107 26.0371 33.4795V28.6506C26.0371 27.3194 27.1202 26.2362 28.4515 26.2362C29.7827 26.2362 30.8659 27.3194 30.8659 28.6506V33.4795Z" stroke="#121113" stroke-width="0.25" stroke-miterlimit="10"/>
<path d="M43.6576 45.3696C45.0302 45.7003 46.5681 45.874 48.2632 45.9071C48.9908 45.105 49.6523 44.2285 50.2393 43.2611C47.5025 43.104 45.2369 42.4756 43.4343 41.3593C39.7383 39.0772 37.175 34.8106 35.728 28.5596C33.5699 19.1996 37.0592 12.1795 46.1712 7.49953C42.4255 4.78744 37.1337 3.4314 30.2707 3.4314H24.5902C16.3795 3.4314 10.3931 5.36624 6.6309 9.2442C2.87697 13.1222 1 19.2078 1 27.5095C1 35.8111 2.8935 41.9795 6.68051 46.0145C10.4675 50.0496 16.4374 52.0671 24.6068 52.0671H30.2873C35.8934 52.0671 40.4659 51.1162 43.9966 49.2062L43.6576 45.3696ZM29.6589 32.2722C29.6589 33.6034 28.5757 34.6866 27.2445 34.6866C25.9132 34.6866 24.83 33.6034 24.83 32.2722V27.4433C24.83 26.1121 25.9132 25.0289 27.2445 25.0289C28.5757 25.0289 29.6589 26.1121 29.6589 27.4433V32.2722Z" fill="black" stroke="#0D0B0F" stroke-width="0.25" stroke-miterlimit="10"/>
<path d="M59.3339 44.5927C62.6 43.8402 65.2707 42.8563 67.3296 41.6408L66.8666 39.6233C64.7498 40.847 62.5835 41.7152 60.3592 42.2279C52.7687 43.9808 47.1212 43.708 43.4252 41.4258C39.7291 39.1437 37.1659 34.8771 35.7189 28.6261C32.7918 15.9504 40.2087 7.56602 57.9696 3.47308C67.7265 1.22403 75.4576 2.15838 81.1795 6.28439C86.9013 10.4104 90.986 17.786 93.4335 28.4194C98.1383 48.8014 90.0021 61.4192 69.033 66.2481C64.7085 67.2486 60.599 67.8108 56.688 67.9431C52.7769 68.0754 49.9243 67.9762 48.13 67.6537L45.5006 67.0584L43.6484 45.4278C47.5595 46.3787 52.7852 46.0976 59.3339 44.5927ZM60.8471 29.5687L61.6739 33.1573C61.8476 33.918 62.2196 34.4802 62.7984 34.8358C63.3772 35.1996 64.0139 35.2905 64.7085 35.1334C66.4035 34.7448 67.0568 33.703 66.6599 32.0079L65.833 28.4194C65.6594 27.6587 65.279 27.1047 64.7085 26.7408C64.1297 26.3853 63.493 26.2861 62.7984 26.4432C62.0956 26.6085 61.5499 26.9806 61.1613 27.5594C60.7809 28.1382 60.6734 28.808 60.8471 29.5687Z" stroke="#121113" stroke-width="0.25" stroke-miterlimit="10"/>
<path d="M60.5409 43.311C63.807 42.5585 66.4778 41.5746 68.5367 40.3591L68.0736 38.3415C65.9569 39.5653 63.7905 40.4335 61.5662 40.9461C53.9757 42.6991 48.3283 42.4262 44.6322 40.1441C40.9362 37.862 38.3729 33.5954 36.9259 27.3443C33.9988 14.6769 41.4157 6.29255 59.1766 2.19134C68.9335 -0.0577106 76.6647 0.876638 82.3865 5.00266C88.1084 9.12867 92.193 16.5042 94.6405 27.1376C99.3454 47.5197 91.2091 60.1375 70.24 64.9663C65.9155 65.9668 61.806 66.5291 57.895 66.6614C53.984 66.7937 51.1313 66.6945 49.337 66.372L46.7076 65.7767L44.8555 44.1461C48.7665 45.1052 53.9922 44.8241 60.5409 43.311ZM62.0541 28.2952L62.881 31.8838C63.0546 32.6445 63.4267 33.2068 64.0055 33.5623C64.5843 33.9261 65.221 34.0171 65.9155 33.86C67.6106 33.4713 68.2638 32.4295 67.8669 30.7345L67.04 27.1459C66.8664 26.3852 66.486 25.8312 65.9155 25.4674C65.3367 25.1118 64.7 25.0126 64.0055 25.1697C63.3027 25.3351 62.7569 25.7072 62.3683 26.286C61.9879 26.8648 61.8805 27.5345 62.0541 28.2952Z" fill="black" stroke="#0D0B0F" stroke-width="0.25" stroke-miterlimit="10"/>
</svg>
