<svg width="90" height="104" viewBox="0 0 90 104" fill="none" xmlns="http://www.w3.org/2000/svg">
<path d="M65.2121 2C65.021 2.02389 64.982 2.03746 64.9114 2.23737C63.6321 5.8622 61.5714 9.46295 59.7367 12.7926C57.3422 17.1382 54.8652 21.8672 50.8747 25.0094C47.8406 27.3986 44.5197 27.9564 41 29.0606" stroke="black" stroke-width="3" stroke-linecap="round"/>
<path d="M64.3574 5.98785C64.3574 5.09612 64.5585 4.32704 64.8638 3.48751C64.9435 3.26849 64.9217 3.95081 64.9271 4.18381C64.9749 6.23777 65.2643 8.29626 65.75 10.2922C66.599 13.7811 67.8758 17.3858 70.7823 19.7239C75.8795 23.8241 81.9639 23.5572 87.9998 24.7878" stroke="black" stroke-width="3" stroke-linecap="round"/>
<path d="M44.7029 29.0605C44.0547 28.9795 44.8463 28.776 44.9878 28.7124C46.9283 27.8392 49.2695 28.3663 51.2861 28.839C55.0848 29.7293 57.5504 34.0428 59.2302 37.2262C61.1258 40.8187 62.671 44.6259 64.0726 48.4302" stroke="black" stroke-width="3" stroke-linecap="round"/>
<path d="M82.3036 25.6425C79.4216 25.3223 76.482 24.5467 73.8848 26.5445C66.253 32.4151 63.688 42.8473 62.3643 51.8485" stroke="black" stroke-width="3" stroke-linecap="round"/>
<path d="M63.753 10.5905C64.0735 10.23 64.1062 9.87531 63.6883 10.8168C62.6683 13.115 61.1619 15.3001 59.8253 17.4034C58.2503 19.8818 56.6461 22.3508 54.9278 24.7334C54.8781 24.8023 53.2348 27.011 53.7641 26.8023C55.5541 26.0964 57.3035 24.0476 58.6454 22.7615C60.8912 20.609 62.6619 18.1234 64.3187 15.5042C64.74 14.8381 65.15 14.1646 65.5471 13.4838C66.1965 12.3704 64.6528 15.9016 64.1894 17.1044C63.2094 19.6476 61.9955 22.0763 60.9082 24.5718C60.7428 24.9515 60.1817 26.252 61.0537 25.38C61.6395 24.7941 67.8754 17.9722 68.0201 18.1711C68.2862 18.537 65.098 22.5842 64.9329 22.8262C63.2173 25.3398 61.3181 27.7895 59.7606 30.4067C58.2305 32.9781 63.029 28.8417 63.2842 28.6288C65.1 27.1141 67.0083 25.6644 68.6828 23.9899C70.0841 22.5886 67.4935 25.122 67.3655 25.2587C65.8529 26.8731 64.4448 28.6054 63.3651 30.5441C63.1218 30.9809 62.0945 32.6721 62.7185 33.1464C63.6043 33.8196 66.0959 31.0415 66.5411 30.6169C68.3003 28.9389 73.3512 23.7034 71.4629 25.2345C69.7779 26.6006 68.3029 28.4565 66.8967 30.0916C65.2647 31.9892 63.7673 33.9845 62.4357 36.1043C61.811 37.0987 61.6082 37.8968 62.9933 36.7912C65.433 34.8439 67.6472 32.5819 69.7091 30.2451C71.5928 28.1103 73.7331 26.2163 75.5926 24.0707C76.276 23.2822 73.9503 25.074 73.75 25.2911C70.8269 28.4577 68.583 32.8919 67.0988 36.9205" stroke="#17214E" stroke-width="3" stroke-linecap="round"/>
<path d="M6.29533 63.6785C6.24534 63.705 5.53277 64.1218 5.57944 64.1558C6.74284 65.0018 9.98663 61.9351 10.352 61.6263C15.4067 57.3539 19.0421 53.0038 20.7563 46.5926C21.8021 42.6811 22.7178 38.5428 23.1306 34.5061C23.3242 32.6138 23.0471 30.8499 23.0471 29.0057C23.0471 28.8463 23.809 32.0963 23.9539 32.6567C25.7127 39.4612 28.2552 47.5983 34.9786 51.1266C37.8867 52.6528 41.339 53.0564 44.5476 53.489C47.5068 53.888 50.4839 54.2288 53.4723 54.2288C53.8463 54.2288 57.5974 54.3452 56.5029 53.9663C55.2489 53.5322 54.1073 53.8342 52.8519 54.2527C42.098 57.8373 36.1575 67.9575 35.2888 78.9031C34.6877 86.4767 34.8593 94.077 34.8593 101.668C34.8593 102.598 34.4519 99.6051 34.4297 99.3059C33.8858 91.9632 29.7071 85.0114 25.2902 79.3326C22.0405 75.1544 18.7362 71.1938 14.1462 68.4272C10.0823 65.9777 6.74945 64.8165 2 65.1819" stroke="black" stroke-width="3" stroke-linecap="round"/>
</svg>
