<svg width="83" height="67" viewBox="0 0 83 67" fill="none" xmlns="http://www.w3.org/2000/svg">
<path d="M7.91185 24.094C6.5481 16.6514 6.64558 30.996 6.62434 32.3096C6.58327 34.85 4.8797 47.9503 7.47504 51.1055C9.44689 53.5027 9.32325 55.4161 12.2225 57.4173C16.4603 60.3425 22.3091 60.791 27.4228 60.896C39.5789 61.1458 51.8614 59.1311 63.8425 56.9357C67.6945 56.2299 71.4815 55.8436 72.9266 51.6404C75.1267 45.2416 76.7051 38.3683 77.3606 31.6368C78.0509 24.5483 76.6548 16.6587 70.1252 13.0533C63.0804 9.16346 52.1034 11.6875 44.6694 13.0497C35.2244 14.7803 25.8246 15.7845 16.4396 17.5042C12.3101 18.2609 6.83245 22.1226 7.7263 27.0007" stroke="white" stroke-width="3" stroke-linecap="round"/>
<path d="M29.0691 18.0625C24.9967 18.2943 28.5128 11.9713 29.533 10.7958C31.8594 8.11547 33.2675 7.23879 37.3618 6.48856C41.0479 5.81314 44.787 6.56434 48.3865 5.90479C52.2067 5.20478 55.576 10.3328 50.7948 11.2089" stroke="white" stroke-width="3" stroke-linecap="round"/>
<path d="M44.9448 30.235C43.9642 26.9712 38.6901 27.2104 36.1581 27.137C32.9974 27.0455 32.0487 30.8148 30.7572 33.1539C28.4884 37.2629 31.1388 44.0355 36.7137 43.234C42.0359 42.4689 46.4907 40.833 50.0962 36.792C53.9277 32.4979 50.8841 29.4997 45.5123 29.4129" stroke="white" stroke-width="3" stroke-linecap="round"/>
<path d="M51.3852 26.1823C49.7257 20.6592 38.5019 20.0571 33.876 20.7726C28.3563 21.6263 24.1912 24.0802 21.1238 28.695C13.2725 40.507 26.3043 44.3519 34.4814 47.593C40.5022 49.9794 50.2997 47.0992 53.9025 41.8799C57.6802 36.4069 55.0211 31.5419 51.5125 26.8771" stroke="white" stroke-width="3" stroke-linecap="round"/>
</svg>
