<svg width="254" height="321" viewBox="0 0 254 321" fill="none" xmlns="http://www.w3.org/2000/svg">
<path d="M255.69 61.0293C254.858 56.411 256.497 60.5843 256.759 62.848C258.763 80.1983 252.394 108.758 239.998 121.701C222.819 139.64 188.22 126.426 176.276 108.464C170.848 100.302 160.355 49.0687 183.52 56.7231C217.143 67.8327 205.206 127.456 195.02 149.65C181.699 178.671 144.717 203.88 112.144 194.321C88.9807 187.524 72.6489 162.644 78.1893 138.623C79.5467 132.737 83.3026 129.296 89.6258 130.423C101.34 132.512 108.154 146.206 110.561 156.448C122.833 208.673 86.7192 251.067 52.0581 284.424" stroke="black" stroke-width="3" stroke-linecap="round"/>
<path d="M43.2573 279.041C41.8942 278.143 44.8757 272.763 44.1536 274.227C41.046 280.527 37.7006 286.741 35.363 293.381C33.8683 297.626 28.0332 309.291 31.381 306.283C32.7445 305.058 34.692 304.13 36.3396 303.39C46.8564 298.667 58.4696 298.158 68.8309 293.134" stroke="black" stroke-width="3" stroke-linecap="round"/>
</svg>
