<svg width="80" height="80" viewBox="0 0 51 49" fill="none" xmlns="http://www.w3.org/2000/svg">
<circle cx="24" cy="25" r="23.5" stroke="black"/>
<circle cx="27" cy="24" r="23.5" fill="#17214E" stroke="black"/>
<path d="M27.2156 26.716V41.27H23.1977V26.716V26.216H22.6977H18.1797V22.1981H22.6977H23.1977V21.6981V19.0034C23.1977 16.5263 23.8011 14.8371 24.8307 13.766C25.857 12.6985 27.387 12.1621 29.423 12.1621C30.9652 12.1621 31.9426 12.2499 32.5359 12.3209V16.1801H30.1443C29.1594 16.1801 28.3766 16.4425 27.8644 17.0832C27.3737 17.697 27.2156 18.5588 27.2156 19.5541V21.6981V22.1981H27.7156H32.4143L31.8408 26.216H27.7156H27.2156V26.716Z" fill="white" stroke="black"/>
</svg>
