<svg width="33" height="32" viewBox="0 0 33 32" fill="none" xmlns="http://www.w3.org/2000/svg">
<path d="M13.5309 15.3899L12.9452 14.9213C12.7065 15.2198 12.7303 15.65 13.0005 15.9202L13.5309 15.3899ZM17.3783 19.2373L16.848 19.7677C17.1182 20.0379 17.5484 20.0617 17.8469 19.823L17.3783 19.2373ZM14.1165 15.8584L24.3346 3.08584L23.1633 2.14879L12.9452 14.9213L14.1165 15.8584ZM27.6825 2.90041L29.8678 5.08569L30.9285 4.02503L28.7432 1.83975L27.6825 2.90041ZM29.6824 8.43364L16.9098 18.6517L17.8469 19.823L30.6194 9.60494L29.6824 8.43364ZM13.0005 15.9202L16.848 19.7677L17.9087 18.707L14.0612 14.8595L13.0005 15.9202ZM29.8678 5.08569C30.8161 6.03394 30.7295 7.59591 29.6824 8.43364L30.6194 9.60494C32.3647 8.20872 32.5089 5.60544 30.9285 4.02503L29.8678 5.08569ZM24.3346 3.08584C25.1723 2.03867 26.7343 1.95216 27.6825 2.90041L28.7432 1.83975C27.1628 0.259332 24.5595 0.403521 23.1633 2.14879L24.3346 3.08584Z" fill="black"/>
<path d="M6.92503 15.8407C10.003 12.7627 13.8505 13.5322 16.159 15.8407C18.4674 18.1492 19.2369 21.9967 16.159 25.0746C13.081 28.1526 8.55886 28.5004 4.61655 27.3831C7.64666 24.353 3.57292 19.1928 6.92503 15.8407Z" fill="white"/>
<path d="M6.92503 15.8407L6.3947 15.3104L6.92503 15.8407ZM4.61655 27.3831L4.08622 26.8528C3.89811 27.0409 3.82373 27.3146 3.89073 27.572C3.95774 27.8295 4.15611 28.0322 4.41205 28.1047L4.61655 27.3831ZM16.6893 15.3104C15.422 14.0431 13.7157 13.1804 11.8746 13.0721C10.0151 12.9627 8.0776 13.6275 6.3947 15.3104L7.45536 16.371C8.85044 14.976 10.3757 14.4865 11.7865 14.5695C13.2158 14.6536 14.5874 15.3298 15.6286 16.371L16.6893 15.3104ZM6.3947 15.3104C4.43366 17.2714 4.68846 19.7702 4.90419 21.8115C5.13573 24.0023 5.30196 25.637 4.08622 26.8528L5.14688 27.9134C6.96125 26.0991 6.60566 23.6387 6.39588 21.6538C6.17031 19.5195 6.06429 17.7621 7.45536 16.371L6.3947 15.3104ZM4.41205 28.1047C8.50694 29.2652 13.3506 28.9437 16.6893 25.605L15.6286 24.5443C12.8114 27.3615 8.61078 27.7356 4.82105 26.6615L4.41205 28.1047ZM16.6893 25.605C18.3722 23.9221 19.037 21.9846 18.9276 20.1251C18.8193 18.284 17.9565 16.5776 16.6893 15.3104L15.6286 16.371C16.6699 17.4123 17.3461 18.7839 17.4302 20.2132C17.5132 21.624 17.0237 23.1492 15.6286 24.5443L16.6893 25.605Z" fill="black"/>
</svg>
