<svg width="26" height="27" viewBox="0 0 26 27" fill="none" xmlns="http://www.w3.org/2000/svg">
<path d="M13.051 0.5C16.1175 0.5 18.9253 1.59911 21.1062 3.42627L18.7165 5.81431C17.155 4.58687 15.1893 3.84891 13.0467 3.84891C7.96722 3.84891 3.84891 7.96722 3.84891 13.0467C3.84891 18.1263 7.96722 22.2446 13.0467 22.2446C17.3323 22.2446 20.9217 19.3095 21.9442 15.3461L22.1054 14.7212H21.46H13.5467V11.3723H21.4536H23.919H24.9458C25.3224 13.8092 24.9248 17.2607 23.2401 20.1501C21.4798 23.1693 18.3065 25.5935 13.051 25.5935C6.11973 25.5935 0.5 19.9755 0.5 13.0467C0.5 6.11798 6.11973 0.5 13.051 0.5Z" fill="white" stroke="black"/>
</svg>
