<svg width="80" height="80" viewBox="0 0 51 50" fill="none" xmlns="http://www.w3.org/2000/svg">
<circle cx="24" cy="26" r="23.5" stroke="black"/>
<circle cx="27" cy="24" r="23.5" fill="#F8962F" stroke="black"/>
<path d="M27.469 11.6602C30.5355 11.6602 33.3432 12.7593 35.5242 14.5864L33.1345 16.9745C31.573 15.747 29.6073 15.0091 27.4647 15.0091C22.3852 15.0091 18.2669 19.1274 18.2669 24.2069C18.2669 29.2864 22.3852 33.4047 27.4647 33.4047C31.7503 33.4047 35.3397 30.4697 36.3621 26.5063L36.5233 25.8814H35.878H27.9647V22.5324H35.8716H38.337H39.3637C39.7404 24.9694 39.3428 28.4209 37.6581 31.3103C35.8978 34.3294 32.7245 36.7536 27.469 36.7536C20.5377 36.7536 14.918 31.1357 14.918 24.2069C14.918 17.2781 20.5377 11.6602 27.469 11.6602Z" fill="white" stroke="black"/>
</svg>
