<svg width="155" height="144" viewBox="0 0 155 144" fill="none" xmlns="http://www.w3.org/2000/svg">
<path d="M64.1672 58.9911C64.4703 56.9445 61.9528 62.5604 61.8933 62.7293C60.3805 67.0203 59.9709 71.9348 59.3301 76.4255C58.4026 82.9265 57.5686 89.7278 58.0764 96.277C58.4532 101.136 59.4929 105.61 60.8529 110.23C61.2637 111.626 61.5046 113.14 62.1519 114.427C62.8204 115.755 63.9063 116.182 65.0532 116.938C66.4269 117.845 68.1878 118.539 69.7027 119.148C72.0623 120.097 74.494 120.889 76.9144 121.649C81.5233 123.097 86.7083 124.118 91.5434 124.305C98.1528 124.562 104.624 124.697 111.218 124.132C115.762 123.743 120.174 123.044 124.622 121.918C126.703 121.392 128.733 121.121 130.511 119.712C131.851 118.65 133.24 117.507 134.115 115.957C135.442 113.604 135.892 110.28 135.958 107.573C136.064 103.196 135.863 98.8568 135.633 94.4898C135.336 88.8539 134.849 83.1889 134.415 77.5644C134.216 74.975 133.938 72.45 133.505 69.9022C133.193 68.0704 132.903 66.3594 131.669 64.9859" stroke="#086562" stroke-width="1.72706" stroke-linecap="round"/>
<path d="M130.742 95.5987C130.512 95.5954 130.626 95.8004 130.795 95.7489C131.374 95.5728 131.924 94.5046 132.167 94.0392C133.049 92.3557 133.355 90.2276 132.711 88.3986C132.581 88.0294 131.256 85.4125 130.604 85.9868C129.775 86.7177 131.181 88.3633 131.741 88.6287C134.577 89.9728 137.864 86.1613 139.37 84.0288C141.455 81.0774 139.82 76.897 137.627 74.7129C135.324 72.4189 132.081 74.9506 133.408 78.0562C134.868 81.4736 140.224 76.659 141.609 75.2315C144.883 71.8551 144.7 66.3168 142.937 62.2065C141.133 58.0024 135.254 55.1863 131.105 57.1797C129.289 58.0526 126.626 59.5778 126.637 62.0878C126.647 64.1385 127.843 65.3109 129.751 65.3072C131.477 65.3039 133.387 63.7666 134.517 62.5075C136.335 60.4804 137.083 57.7159 137.143 54.9778C137.205 52.1986 135.427 49.4677 134.147 47.1847C132.857 44.8826 130.78 43.5907 128.41 42.7936C126.322 42.0914 123.923 41.72 121.723 41.8209C119.995 41.9002 117.052 42.7948 116.5 44.8376C115.894 47.082 117.474 48.7069 119.506 48.6728C121.763 48.6348 124.125 47.1436 125.637 45.3902C126.669 44.1933 127.178 42.5416 127.41 40.9728C127.601 39.6829 128.03 38.2097 127.862 36.9112C127.62 35.0449 126.055 33.0748 124.828 31.853C122.256 29.2913 119.845 27.7422 116.298 27.0305C113.376 26.4441 110.415 25.8032 107.468 25.3666C104.701 24.9568 101.824 24.5415 99.0815 25.4412C94.734 26.8673 90.618 31.3322 89.239 35.8526C88.5617 38.0728 89.1435 42.1991 91.2852 43.2915C93.0975 44.2158 96.1435 44.5876 97.7072 42.8369C101.152 38.9807 99.0012 32.6143 95.926 29.4937C94.0784 27.6188 90.8703 26.705 88.3426 26.6266C85.5683 26.5404 82.8131 27.0143 80.2598 28.2587C75.5577 30.5505 73.7185 36.8152 73.7599 41.9234C73.7954 46.296 75.913 51.4933 80.8117 50.691C82.8989 50.3491 83.3881 47.9543 83.0485 46.0753C82.5971 43.5769 81.1045 41.9653 78.9352 41.0351C74.0963 38.96 66.9339 40.3809 63.148 44.3376C59.4817 48.1693 57.7849 54.3301 58.8484 59.6095C59.3958 62.3268 60.6433 64.1782 63.4425 64.3917C65.6027 64.5565 69.0747 64.5329 70.0532 61.8742C70.7737 59.9165 70.6186 57.3458 69.0327 55.9664C67.0896 54.2762 64.2416 55.0578 62.2 56.2622C58.362 58.5265 54.7833 63.1853 54.1329 67.8797C53.8146 70.1773 55.0404 72.0939 56.8727 73.1168C59.0985 74.3595 62.3963 73.0547 63.2975 70.5006C63.7149 69.3178 63.2369 67.4036 62.0016 67.0166C60.6371 66.5891 59.3107 67.5988 58.2365 68.3629C55.3369 70.4256 54.0487 74.2072 54.4689 77.7879C54.8783 81.276 57.4336 83.9924 60.8401 83.4829" stroke="#086562" stroke-width="1.72706" stroke-linecap="round"/>
<path d="M137.772 77.582C138.995 76.4906 141.019 75.3223 142.71 75.7598C144.942 76.3375 145.705 79.6861 145.568 81.7796C145.358 84.9723 144.923 87.7173 143.509 90.6036C143.053 91.5336 142.629 92.5068 141.906 93.249C141.376 93.7931 140.785 94.1642 140.089 94.4123C138.608 94.9403 137.935 94.3078 136.774 93.4497" stroke="#086562" stroke-width="1.72706" stroke-linecap="round"/>
<path d="M58.6047 67.1363C57.7058 66.8924 57.0002 65.9609 55.9821 65.7869C54.7015 65.568 53.6427 65.6428 52.5499 66.4085C50.8785 67.5796 49.7736 69.4017 49.9918 71.5015C50.3241 74.6999 51.3457 77.6248 53.3003 80.115C54.0575 81.0796 54.8817 82.1305 55.8189 82.8993C57.109 83.9576 58.6754 84.1545 60.2855 84.2015" stroke="#086562" stroke-width="1.72706" stroke-linecap="round"/>
<path d="M87.4601 69.1677C86.1185 66.971 84.4653 65.2007 81.9405 64.8267C78.7377 64.3523 77.4127 66.6016 75.2138 68.635" stroke="#086562" stroke-width="1.72706" stroke-linecap="round"/>
<path d="M108.953 71.2303C108.348 71.6543 108.737 70.8862 108.893 70.6165C109.432 69.6847 110.563 68.9555 111.491 68.5277C112.834 67.9085 114.058 67.2513 115.516 67.0063C116.448 66.8495 118.008 67.4477 118.765 67.9591C120.443 69.0932 121.409 71.415 121.85 73.4609" stroke="#086562" stroke-width="1.72706" stroke-linecap="round"/>
<path d="M93.3847 74.8505C93.4745 74.5181 93.6088 74.9785 93.6505 75.0856C94.1097 76.2665 93.839 77.8061 93.963 79.0646C94.1327 80.788 93.9203 82.397 93.6666 84.1101C93.2776 86.7361 93.3343 89.397 92.9484 92.0025C92.6175 94.2365 92.6918 96.8815 93.3359 99.0267C93.8353 100.69 94.0701 102.816 95.7256 103.696C96.9111 104.326 98.8183 103.978 99.6205 102.769C101.239 100.331 101.935 97.0385 101.92 94.1233C101.9 90.407 102.589 86.6929 102.401 82.9837C102.225 79.5108 102.937 75.5072 104.284 72.3009" stroke="#086562" stroke-width="1.72706" stroke-linecap="round"/>
<path d="M95.5529 109.925C94.8984 109.828 94.2244 109.261 93.6486 108.913C92.76 108.376 91.6408 108.44 90.6545 108.719C87.3971 109.64 88.5566 113.052 89.311 115.478C90.6826 119.888 95.6747 123.334 99.9695 121.149C104.239 118.978 107.554 112.967 104.359 108.542C103.354 107.152 101.207 107.107 99.9553 108.166C98.6679 109.255 97.4053 110.262 95.9864 109.028" stroke="#086562" stroke-width="1.72706" stroke-linecap="round"/>
<path d="M103.132 117.614C103.151 117.156 103.106 116.769 103.178 116.287C103.196 116.164 103.428 114.228 103.378 114.261C102.757 114.659 102.268 115.567 101.814 116.138C101.125 117.004 100.401 117.838 99.6838 118.679C99.4944 118.901 98.8722 119.422 98.8233 119.752C98.7218 120.438 99.7224 118.732 100.155 118.206C100.284 118.048 102.471 115.185 102.195 115.144C101.027 114.971 99.3816 118.683 99.0194 119.612C98.7744 120.241 98.9983 120.02 99.2603 119.621C99.9245 118.611 100.553 117.501 101.027 116.377C101.182 116.01 101.487 115.343 101.409 114.921C101.365 114.677 99.996 116.5 99.9108 116.639C99.662 117.044 97.8477 120.563 99.1398 118.856C99.4276 118.476 101.958 113.554 101.402 113.621C100.416 113.74 99.2746 116.432 99.1191 117.305C98.9004 118.531 100.556 115.237 100.865 114.031C101.464 111.695 98.0908 115.174 97.7596 116.053C97.6572 116.325 97.6028 116.748 98.0121 116.66C98.6954 116.514 99.3199 115.349 99.6427 114.784C100.153 113.892 100.821 110.789 98.9575 112.307C98.6625 112.547 96.1002 115.523 97.4082 115.663C98.6589 115.797 99.856 113.14 100.084 112.145C100.187 111.696 100.131 111.015 99.535 111.227C98.5286 111.586 97.8043 112.665 97.3591 113.627C96.8084 114.818 96.8433 117.195 98.5367 115.599C99.2107 114.964 99.8553 114.036 100.264 113.186C100.359 112.987 100.904 111.375 100.181 111.714C99.0569 112.242 97.735 114.28 97.9329 115.616C98.2056 117.46 100.795 114.257 101.051 113.792C101.643 112.714 101.253 111.211 99.9737 112.324C99.6237 112.629 97.7941 115.039 99.2677 115.005C100.726 114.971 101.753 113.613 101.964 112.192C102.152 110.922 101.034 110.195 100.199 111.254C99.7009 111.886 98.7913 114.304 100.373 113.967C101.347 113.76 102.902 112.163 102.023 111.115C100.503 109.302 98.8051 114.358 101.219 113.22C102.13 112.791 102.294 111.253 101.822 110.445C101.204 109.385 100.049 111.097 99.8924 111.689C99.2398 114.159 103.599 112.962 102.286 110.353C101.838 109.462 100.999 110.944 100.989 111.443C100.96 112.955 103.17 113.426 103.501 111.904C103.622 111.351 103.156 110.259 102.498 110.839C101.191 111.991 103.028 113.19 104.141 112.603C105.551 111.86 104.885 110.525 103.608 110.336C102.499 110.171 101.181 110.846 100.938 112.129C100.766 113.036 101.683 113.012 102.096 112.425C102.474 111.889 103.365 109.84 101.985 110.024C100.683 110.197 99.7675 111.456 99.2267 112.632C98.8323 113.489 98.891 115.129 100.158 114.576C102.445 113.577 100.247 109.697 98.0131 112.763C97.3844 113.626 97.105 115.381 98.6553 114.798C99.314 114.55 101.032 112.715 99.7978 112.102C97.731 111.077 94.6533 117.291 98.7026 114.253C100.258 113.087 98.2513 113.028 97.4038 113.438C96.6294 113.813 95.8195 114.298 95.2893 115.029C95.0256 115.393 94.3223 116.805 95.2773 116.576C96.4581 116.291 98.6395 114.342 98.309 112.852C97.9588 111.272 95.2592 113.675 94.9353 114.318C94.692 114.802 94.8314 115.266 95.4037 115.215C96.3483 115.132 97.2489 114.396 97.8257 113.634C99.3254 111.653 96.6809 111.822 95.5682 112.526C95.1082 112.817 92.5959 115.297 94.2137 115.582C95.3072 115.774 97.9495 114.372 97.4141 112.861C96.8624 111.305 94.3097 113.46 93.8679 114.196C92.851 115.888 94.9313 115.698 95.7752 114.905C96.819 113.925 96.2436 113.364 95.0531 113.241C94.3223 113.166 91.3419 114.426 92.4023 115.634C93.4755 116.856 95.6021 114.293 95.5747 113.158C95.5338 111.464 93.4305 111.73 92.6008 112.602C91.5324 113.726 92.2618 114.861 93.6038 114.174C94.7708 113.577 96.4401 111.002 94.4353 110.365C93.1926 109.97 91.9047 111.341 92.0843 112.65C92.245 113.821 95.3837 112.314 94.3459 110.743C93.7197 109.796 92.7163 110.562 92.3978 111.38C92.1349 112.055 92.4967 113.775 93.4347 112.948C94.2346 112.243 93.6801 110.501 92.7641 110.26C91.5713 109.946 90.6147 111.226 91.2156 112.37C91.7467 113.382 93.0915 112.783 93.5013 111.935C93.893 111.125 93.4961 109.661 92.4992 110.47C91.9226 110.938 91.7529 112.211 92.2757 112.768C92.875 113.406 93.7013 112.287 93.4893 111.622C92.7399 109.268 89.9723 112.433 91.0089 114.217C91.3818 114.859 91.4758 115.259 92.0617 115.734C92.5527 116.133 93.3142 116.082 93.8517 116.56C95.3252 117.872 97.1524 118.452 99.0232 117.896C99.2195 117.837 99.7087 117.464 99.5982 117.509C99.0075 117.75 98.3009 118.242 97.8574 118.719C97.2099 119.417 98.1184 119.09 98.5248 118.836C99.5305 118.207 100.291 117.297 101.059 116.382C101.363 116.021 102.874 114.489 101.894 115.767C101.389 116.424 100.805 117.084 100.369 117.775C100.052 118.277 101.263 117.024 101.684 116.617C101.986 116.326 102.467 115.94 102.676 115.563C102.948 115.072 101.836 116.279 101.465 116.691C100.696 117.544 102.907 114.886 103.729 114.09C104.618 113.23 104.3 113.338 103.48 114.018C102.09 115.172 100.81 116.492 99.2558 117.396C97.3243 118.521 94.5426 118.008 92.6587 117.06C90.8504 116.149 90.9436 113.536 90.6965 111.76C90.5854 110.961 90.5313 109.321 89.8577 108.797C89.5747 108.577 89.9072 110.372 89.9395 110.5C90.14 111.291 90.6155 111.917 91.4074 112.034C91.697 112.077 91.9853 111.657 91.7686 111.625C91.5445 111.592 91.4157 112.384 91.4388 112.555C91.5602 113.455 92.0957 114.573 92.7008 115.197C93.8527 116.387 96.2817 117.561 97.9016 117.801C98.461 117.883 99.3991 116.837 99.8415 116.486C100.478 115.982 101.494 115.231 101.072 114.266" stroke="#086562" stroke-width="1.72706" stroke-linecap="round"/>
<path d="M101.218 118.336C101.327 118.24 101.671 117.811 101.364 118.149C101.204 118.324 101.045 118.5 100.893 118.683C100.874 118.706 100.69 118.9 100.81 118.844C101.123 118.695 102.019 118.196 101.683 118.262C101.501 118.298 101.301 118.411 101.133 118.494C100.985 118.566 100.988 118.561 101.11 118.438C101.27 118.276 101.419 118.101 101.579 117.939C101.64 117.878 101.897 117.687 101.911 117.595C101.925 117.495 101.788 117.754 101.717 117.822C101.491 118.039 101.25 118.237 101.006 118.43C100.125 119.128 99.1869 119.595 98.135 119.158C98.0097 119.106 97.8774 119.078 97.7557 119.017C97.5315 118.905 97.7344 119.053 97.8164 119.132C97.9832 119.295 98.4097 119.631 97.9426 119.556C97.8421 119.54 96.7579 119.246 96.7501 119.427C96.7407 119.644 97.3396 119.979 97.4135 119.691C97.4946 119.375 97.0873 119.448 96.935 119.544C96.6258 119.741 96.8778 120.135 97.1614 119.862C97.2615 119.766 97.288 119.589 97.1761 119.492C97.023 119.361 96.7671 119.458 96.6171 119.559C96.0347 119.949 97.0245 120.121 96.9387 119.64C96.841 119.092 95.8419 119.307 95.5354 119.477C95.4379 119.531 95.3529 119.658 95.5264 119.658C95.6734 119.658 95.9979 119.542 96.0806 119.399C96.2881 119.04 95.2833 119.062 95.1519 119.079C94.7756 119.127 95.5069 119.323 95.618 119.34C96.127 119.415 94.5751 119.131 94.165 118.807C93.9474 118.635 93.7648 118.304 93.669 118.028C93.5842 117.783 93.5435 117.737 93.2666 117.712C92.8817 117.677 93.6652 118.688 93.4681 118.484C93.2936 118.303 93.1285 118.025 92.8648 117.994C92.7203 117.977 92.6177 118.105 92.6676 118.244C92.6861 118.295 92.6809 118.551 92.6314 118.428C92.5937 118.335 92.5213 118.254 92.4814 118.15" stroke="#086562" stroke-width="1.72706" stroke-linecap="round"/>
<path d="M89.2322 112.809C89.2411 112.749 89.2542 112.544 89.2656 112.553C89.3645 112.626 89.4938 112.887 89.417 112.642C89.3507 112.43 89.3692 112.719 89.4037 112.791C89.4449 112.878 89.6915 113.054 89.663 112.872" stroke="#086562" stroke-width="1.72706" stroke-linecap="round"/>
<path d="M96.3339 110.492C96.2438 110.505 96.4049 110.725 96.4258 110.742C96.6813 110.949 97.0435 111.083 97.2172 110.712C97.4262 110.267 96.2914 110.721 96.5504 110.877C96.6942 110.963 96.9695 110.856 97.1181 110.811C97.3033 110.755 97.2659 110.726 97.103 110.733C96.9571 110.74 97.0065 110.802 97.1316 110.78C97.3578 110.741 97.5783 110.7 97.7952 110.623" stroke="#086562" stroke-width="1.72706" stroke-linecap="round"/>
<path d="M99.2492 110.283C99.1132 110.353 98.3954 110.789 98.8331 110.511C99.2086 110.272 99.5444 110.079 99.8862 109.781C100.301 109.418 100.808 109.085 101.335 108.962C101.702 108.877 102.07 108.825 102.441 108.88C102.666 108.913 103.072 109.007 103.211 109.207" stroke="#086562" stroke-width="1.72706" stroke-linecap="round"/>
<path d="M93.1115 108.735C92.9681 108.552 92.5459 108.438 92.32 108.404C92.0998 108.372 91.8465 108.311 91.6254 108.365C91.2246 108.464 90.8802 108.63 90.5029 108.784C89.8464 109.052 89.1874 110.21 89.3028 110.942" stroke="#086562" stroke-width="1.72706" stroke-linecap="round"/>
<path d="M93.6959 108.608C93.4995 108.325 93.3612 107.952 93.0596 107.77C92.8165 107.623 92.5668 107.51 92.3034 107.412C91.6965 107.185 90.9221 107.429 90.4751 107.927C89.9733 108.487 89.3672 109.832 89.9304 110.524" stroke="#086562" stroke-width="1.72706" stroke-linecap="round"/>
<path d="M95.8209 109.094C95.8622 108.815 94.2948 108.228 93.9643 108.179C93.3013 108.081 92.7273 107.998 92.1192 108.417" stroke="#086562" stroke-width="1.72706" stroke-linecap="round"/>
<path d="M99.5138 107.901C98.8895 107.864 98.209 108.008 97.5906 108.078C96.2173 108.234 94.8438 108.411 93.4777 108.631C93.1579 108.682 92.8003 108.701 92.4914 108.795C92.0938 108.916 91.392 109.167 90.982 109.106" stroke="#086562" stroke-width="1.72706" stroke-linecap="round"/>
<path d="M52.595 99.2729C52.5185 99.5563 52.08 99.5388 51.8298 99.6111C49.625 100.248 47.0651 100.169 44.7995 100.404" stroke="#086562" stroke-width="1.72706" stroke-linecap="round"/>
<path d="M52.2144 100.232C52.5931 100.237 52.4447 100.12 52.1612 100.591C50.4289 103.466 49.6649 107.427 48.5321 110.608" stroke="#086562" stroke-width="1.72706" stroke-linecap="round"/>
<path d="M43.6683 99.9822C43.5095 100.57 43.2094 99.5208 43.15 99.3692C41.8482 96.0494 39.0786 93.9914 36.1819 92.4106C28.8248 88.3957 19.0811 87.4361 11.4952 91.8865C4.92321 95.7421 1.70534 102.324 2.96623 110.039C4.19905 117.582 10.3045 122.658 16.7741 125.179C25.7304 128.669 39.5623 129.755 46.6235 120.979C48.1395 119.095 52.7143 110.72 47.9044 110.007" stroke="#086562" stroke-width="1.72706" stroke-linecap="round"/>
<path d="M66.1885 23.5647C67.525 23.6038 67.8088 20.3263 67.9254 19.617C68.4119 16.6557 68.1851 13.9187 65.7158 12.0934C64.1886 10.9644 62.4899 10.7303 60.7097 11.38C60.2216 11.5582 59.8223 11.9369 59.4139 12.2605C59.247 12.3928 59.1413 12.8556 58.9733 12.7315C58.5522 12.4202 58.5182 9.91533 58.2597 9.32388C57.2693 7.0576 55.1081 5.82907 52.9199 5.23105C50.8448 4.66394 47.8939 4.35554 45.9598 5.63937C44.8173 6.39778 44.1958 7.90718 43.1364 8.6077C42.9323 8.74266 41.0798 6.7873 40.758 6.60447C37.676 4.85325 33.6807 5.66295 30.4976 6.76382C25.2036 8.59478 17.815 12.4037 18.1544 19.554C18.1768 20.0259 18.9879 21.8917 18.5815 22.2137C17.8679 22.7791 17.0411 22.6062 16.3807 23.4822C12.8313 28.19 14.0669 36.2345 18.3302 39.6453C19.7729 40.7995 21.9417 42.0789 23.7688 41.0153C24.7422 40.4487 24.5552 39.6669 25.1675 38.993C25.3228 38.8222 27.1462 41.5979 27.3563 41.8289C29.7999 44.5166 35.0778 42.7143 37.3943 40.5783C38.6254 39.4432 39.7078 38.1915 39.9646 36.4578C40.1767 35.026 40.6172 35.938 41.3771 36.667C44.8395 39.9889 49.4341 39.271 52.2213 35.0702C52.7524 34.2697 52.8212 33.3446 52.9591 32.4138C53.0299 31.9353 54.19 33.1505 54.613 33.4067C58.0541 35.4903 60.9438 34.2076 62.2782 30.2948C62.8723 28.5526 62.114 28.2668 63.683 28.4992C64.3203 28.5936 65.3224 28.0913 65.8123 27.7139C67.5321 26.3892 67.1639 24.9612 66.4954 23.1022" stroke="#086562" stroke-width="1.72706" stroke-linecap="round"/>
<path d="M62.3753 36.4619C62.3978 35.7192 61.8822 36.572 61.8331 36.9037C61.6265 38.2986 62.7045 39.5235 64.0396 38.9944C66.2055 38.1359 64.5695 34.3758 61.9456 36.1443" stroke="#086562" stroke-width="1.72706" stroke-linecap="round"/>
<path d="M115.042 86.4248C112.797 86.0923 119.68 80.2017 120.163 84.3896C120.805 89.9467 115.649 93.1061 112.562 96.7251" stroke="black" stroke-width="1.72706" stroke-linecap="round"/>
<path d="M113.805 86.7505C113.609 87.4754 111.249 85.4616 110.882 85.2028C109.887 84.5004 108.274 85.3632 107.592 86.2253C105.44 88.9477 109.776 93.4073 111.964 94.3515" stroke="black" stroke-width="1.72706" stroke-linecap="round"/>
<path d="M80.5197 86.1376C79.3614 85.8052 82.3609 82.3948 82.9113 82.0612C84.5581 81.063 85.5397 83.3567 85.6144 84.7334C85.8416 88.921 80.5541 92.2527 77.8685 94.3806" stroke="black" stroke-width="1.72706" stroke-linecap="round"/>
<path d="M79.8687 87.3116C79.369 87.176 79.1886 86.1523 78.937 85.7343C78.2955 84.6682 77.5763 84.101 76.4638 83.7452C75.0737 83.3006 73.3358 83.4452 72.7925 85.1063C72.2536 86.7544 73.1093 88.9832 74.1931 90.2243C75.2485 91.4328 76.9466 93.5866 78.3714 94.2015" stroke="black" stroke-width="1.72706" stroke-linecap="round"/>
</svg>
