<svg width="1440" height="1442" viewBox="0 0 1440 1442" fill="none" xmlns="http://www.w3.org/2000/svg">
<g filter="url(#filter0_f_303_2733)">
<path fill-rule="evenodd" clip-rule="evenodd" d="M987.989 883.889C966.666 986.984 1108.48 1132.76 1021.77 1192.5C919.438 1263.02 782.324 1063.49 665.553 1106.07C553.36 1146.98 583.307 1378.54 465.089 1395.48C364.528 1409.9 329.791 1248.96 277.925 1161.64C239.804 1097.46 246.617 1015.33 203.219 954.59C139.18 864.96 -21.2415 839.09 -30.9156 729.38C-39.7119 629.624 92.7079 577.867 163.777 507.294C227.091 444.421 275.839 348.737 364.304 336.919C454.545 324.863 517.748 448.157 608.792 447.842C727.041 447.433 824.098 305.704 938.679 334.932C1045.78 362.252 1137.49 475.183 1147.38 585.226C1157.65 699.563 1011.24 771.474 987.989 883.889Z" fill="url(#paint0_linear_303_2733)" fill-opacity="0.8"/>
</g>
<defs>
<filter id="filter0_f_303_2733" x="-361.332" y="0.961914" width="1839.22" height="1725.43" filterUnits="userSpaceOnUse" color-interpolation-filters="sRGB">
<feFlood flood-opacity="0" result="BackgroundImageFix"/>
<feBlend mode="normal" in="SourceGraphic" in2="BackgroundImageFix" result="shape"/>
<feGaussianBlur stdDeviation="165" result="effect1_foregroundBlur_303_2733"/>
</filter>
<linearGradient id="paint0_linear_303_2733" x1="1943.66" y1="822.272" x2="-37.7571" y2="754.789" gradientUnits="userSpaceOnUse">
<stop stop-color="white"/>
<stop offset="1" stop-color="#3FA692"/>
</linearGradient>
</defs>
</svg>
