<svg width="101" height="142" viewBox="0 0 101 142" fill="none" xmlns="http://www.w3.org/2000/svg">
<path d="M12.8665 31.5143C12.3357 32.1114 12.6157 30.9545 12.6429 30.3963C12.711 29.0002 13.0309 27.3032 13.5373 25.974C14.4082 23.6878 15.4257 21.8619 16.7919 19.8747C19.2857 16.2473 22.5759 12.2387 26.0589 9.5518C28.0754 7.99622 30.689 7.077 33.1147 6.4214C35.0651 5.89428 36.9399 4.83265 38.9283 4.47112C44.0018 3.54867 49.1147 1.55524 54.4064 2.49598C56.2797 2.82902 58.6322 3.0474 60.3193 4.01149C62.2129 5.09351 64.702 5.16825 66.4311 6.58289C67.8942 7.78 69.7973 8.34045 71.2385 9.60149C72.0504 10.3119 72.913 10.9805 73.5863 11.8375C74.311 12.7599 74.9633 13.9492 75.7477 14.794C76.8785 16.0118 77.8684 17.6781 78.8284 19.0424C80.13 20.8919 81.7789 22.542 83.0768 24.3591C84.7429 26.6915 89.0872 31.6991 86.878 34.6447" stroke="white" stroke-width="3" stroke-linecap="round"/>
<path d="M12.6426 32.6321C12.8802 32.6618 12.8662 40.9996 12.8662 42.1351C12.8662 45.7339 13.537 49.3722 13.537 52.9797C13.537 58.8092 13.3134 64.6186 13.3134 70.4204" stroke="white" stroke-width="3" stroke-linecap="round"/>
<path d="M86.8781 33.9739C86.8781 35.7376 87.5479 37.5671 86.9899 39.3527C86.5197 40.8573 86.8781 42.903 86.8781 44.4706C86.8781 47.2862 86.4309 50.149 86.4309 52.9799C86.4309 56.4388 85.9411 60.0532 86.3812 63.4642C86.8193 66.8593 86.8781 70.2958 86.8781 73.7249C86.8781 75.0626 87.2764 76.4896 87.0893 77.7994C86.8438 79.5179 86.5705 81.3056 86.4185 83.054C86.1897 85.6855 84.8657 88.2613 84.8657 90.88C84.8657 93.1738 83.8676 95.4223 83.7477 97.6998C83.6837 98.9167 82.65 101.603 81.5117 102.172" stroke="white" stroke-width="3" stroke-linecap="round"/>
<path d="M12.4204 70.197C12.0286 73.3308 13.5384 76.652 13.5384 79.9112C13.5384 81.09 13.7961 82.1927 13.762 83.3894C13.716 84.9993 13.3148 86.6455 13.3148 88.2589C13.3148 90.1168 12.8722 92.5349 13.6502 94.2464C14.588 96.3098 15.4231 97.4425 17.116 99.0414C18.4711 100.321 20.5039 101.18 21.9358 102.408C23.3418 103.613 23.8769 105.507 25.1656 106.867C28.1778 110.047 31.9817 111.763 35.8983 113.526C40.2743 115.495 45.5995 116.929 50.3826 116.929C51.5879 116.929 52.7037 116.706 53.9105 116.706C54.8624 116.706 56.6103 116.758 57.4633 116.37C58.8219 115.753 61.2495 115.406 62.7303 115.364C64.6778 115.309 67.5545 114.497 69.0905 113.24C71.1643 111.543 74.1012 111.001 76.3202 109.551C78.2284 108.303 80.0037 107.258 81.6245 105.638C82.143 105.119 82.8127 104.038 82.8543 103.29C82.9387 101.771 84.0856 100.534 84.8667 99.265" stroke="white" stroke-width="3" stroke-linecap="round"/>
<path d="M59.1523 56.781C59.1523 58.1513 57.4999 54.5911 56.5933 53.5636C55.8182 52.6852 54.6417 51.2117 53.5126 50.7935C51.1685 49.9253 48.2955 49.6844 46.0841 51.0916C44.8024 51.9072 44.2297 53.3298 43.227 54.3711C42.1812 55.4571 41.286 56.7546 40.6929 58.1102C39.7148 60.3456 38.117 64.4107 40.196 66.5697C42.9773 69.458 45.7829 70.7386 49.7362 71.6628C52.5887 72.3296 57.4433 71.9006 59.4877 69.4019C60.6179 68.0206 61.6238 66.5275 62.2827 64.8803C62.8356 63.4979 62.7299 62.1717 62.7299 60.694C62.7299 58.1251 60.4612 56.1826 58.4815 54.7686" stroke="white" stroke-width="3" stroke-linecap="round"/>
<path d="M52.2212 62.1473C50.5719 62.1473 45.7521 63.2653 47.4014 63.2653C48.3172 63.2653 50.0383 61.1128 50.4821 60.3585C50.7262 59.9434 51.1894 59.889 51.3392 59.3647C51.5599 58.5924 51.553 60.1912 51.5504 60.3088C51.5116 62.0535 50.0991 67.0622 50.8796 65.5013" stroke="white" stroke-width="3" stroke-linecap="round"/>
<path d="M56.4688 38.2223C56.636 39.5602 75.2044 37.7751 77.9343 37.7751C81.3661 37.7751 91.6517 38.2223 88.2199 38.2223" stroke="white" stroke-width="3" stroke-linecap="round"/>
<path d="M84.6422 54.3217C86.5321 54.3217 80.88 54.7689 78.9901 54.7689C77.2111 54.7689 75.4691 54.5453 73.6982 54.5453C72.8344 54.5453 68.543 54.553 68.543 53.8745" stroke="white" stroke-width="3" stroke-linecap="round"/>
<path d="M13.3145 38.6692C17.8468 38.6692 22.5066 37.9955 27.0534 37.7624C31.3167 37.5438 35.4549 37.104 39.6992 37.104" stroke="white" stroke-width="3" stroke-linecap="round"/>
<path d="M13.0918 54.5451C18.9749 54.5451 24.8844 54.0979 30.7562 54.0979" stroke="white" stroke-width="3" stroke-linecap="round"/>
<path d="M13.9841 70.6442C9.16966 70.6442 23.7017 70.8844 28.4063 69.8616C30.9921 69.2995 38.9903 69.7498 36.3441 69.7498" stroke="white" stroke-width="3" stroke-linecap="round"/>
<path d="M66.3067 70.8682C65.8926 70.8682 65.0645 70.8682 65.0645 70.8682C65.0645 70.8682 68.1684 71.0704 69.7228 71.1042C73.1797 71.1793 76.6025 71.539 80.0581 71.539C81.3624 71.539 82.6667 71.539 83.9711 71.539C84.6946 71.539 86.4719 71.641 85.9835 71.3154" stroke="white" stroke-width="3" stroke-linecap="round"/>
<path d="M84.4187 86.7432C87.0612 86.7432 79.1254 86.8033 76.4933 86.5693C73.0901 86.2668 69.6753 86.0724 66.2574 86.0724C64.2367 86.0724 62.2719 85.8489 60.2699 85.8489C59.7055 85.8489 56.7557 86.1991 56.4688 85.6252" stroke="white" stroke-width="3" stroke-linecap="round"/>
<path d="M14.6561 86.7437C13.3011 86.7437 15.3907 86.957 15.9604 86.843C18.2213 86.3909 20.5614 86.6025 22.8175 86.1846C26.6381 85.4771 30.6858 85.4469 34.5565 85.0045C38.4816 84.5559 50.358 85.1785 46.4073 85.1785" stroke="white" stroke-width="3" stroke-linecap="round"/>
<path d="M43.2765 6.02368C41.5728 6.02368 42.5401 12.6451 42.3696 14.5205C42.3127 15.1468 41.7752 19.6952 42.3821 17.8745" stroke="white" stroke-width="3" stroke-linecap="round"/>
<path d="M55.5763 3.56421C55.5763 5.31574 55.4508 7.04186 55.5639 8.79396C55.6486 10.1079 55.8204 11.8728 55.4645 13.1542C55.2785 13.8238 54.6283 17.5077 55.1291 16.7566" stroke="white" stroke-width="3" stroke-linecap="round"/>
<path d="M68.5442 8.48315C67.3116 9.71576 67.4262 12.6439 67.4262 14.2967C67.4262 15.1305 66.9614 17.4624 66.979 17.4271" stroke="white" stroke-width="3" stroke-linecap="round"/>
<path d="M31.4258 9.15411C33.1071 8.94396 31.2001 18.3207 32.991 19.2161" stroke="white" stroke-width="3" stroke-linecap="round"/>
<path d="M9.51332 73.7747C10.018 73.8377 9.81596 74.0744 9.28972 73.8865C8.34031 73.5474 6.65296 74.0673 5.83633 74.5573C4.39225 75.4237 3.11347 76.3453 2.53203 77.9734C1.88448 79.7865 1.87742 82.3656 2.24632 84.2839C2.69901 86.6379 1.98074 89.1398 2.4078 91.4887C2.76922 93.4766 3.0874 95.5823 3.82394 97.4762C4.64795 99.595 6.50606 101.444 7.72452 103.34C9.59098 106.243 10.5909 109.231 13.5878 111.339C14.9715 112.313 16.2945 113.302 17.7741 114.134C18.8946 114.765 20.4094 115.499 21.3641 116.358C23.1278 117.945 25.6565 120.142 27.8982 121.004C30.0028 121.813 32.289 123.385 34.5565 123.637C35.7889 123.774 38.6785 125.436 39.6993 124.755" stroke="white" stroke-width="3" stroke-linecap="round"/>
<path d="M86.8785 73.327C86.8043 73.9208 86.8488 73.536 87.5617 73.2152C88.9469 72.5919 90.7077 72.0281 92.2449 71.9854C94.3584 71.9267 95.588 72.3857 97.1641 73.7866C100.854 77.0667 97.9881 83.1598 97.1144 86.9169C96.288 90.4704 94.757 93.8469 94.0337 97.4633C93.373 100.767 91.2803 103.289 89.7853 106.196C88.3368 109.013 86.0782 111.021 83.8599 113.24C81.3805 115.719 79.9611 118.973 76.9904 120.954C74.3327 122.726 71.2935 123.834 68.3073 124.879C66.0669 125.663 63.0815 126.32 60.7173 126.32C60.0918 126.32 57.484 126.595 57.5869 126.544" stroke="white" stroke-width="3" stroke-linecap="round"/>
<path d="M57.5873 118.942C57.1794 115.679 57.5617 125.566 56.8668 128.78C56.4326 130.788 56.6929 133.093 56.6929 135.153C56.6929 137.313 54.1956 138.181 52.4569 138.942C50.9907 139.583 48.1699 139.917 46.5812 139.463C42.2257 138.219 40.5401 132.974 40.1589 128.78C39.8878 125.798 40.8173 122.805 40.8173 119.836C40.8173 118.674 41.2645 117.566 41.2645 116.383C41.2645 116.07 41.4881 114.488 41.4881 115.364" stroke="white" stroke-width="3" stroke-linecap="round"/>
<path d="M68.0955 98.1474C68.0378 97.6857 67.6575 98.1643 67.6483 98.4206C67.5983 99.8219 68.0551 101.258 68.4309 102.594C68.9298 104.369 69.1756 106.196 69.611 107.986C69.8404 108.929 70.3315 110.163 70.3315 111.116C70.3315 111.466 70.3315 113.349 70.3315 112.681" stroke="white" stroke-width="3" stroke-linecap="round"/>
<path d="M55.5742 98.8176C55.5742 102.798 56.6922 106.676 56.6922 110.668C56.6922 111.948 56.7414 113.24 56.6922 114.519C56.6752 114.961 56.4686 117.944 56.4686 116.706" stroke="white" stroke-width="3" stroke-linecap="round"/>
<path d="M43.5 117.153C43.5 123.722 44.618 104.045 44.618 97.4758" stroke="white" stroke-width="3" stroke-linecap="round"/>
<path d="M30.9785 111.786C32.0733 111.513 31.8729 103.14 31.8729 101.6C31.8729 100.73 32.2846 99.5417 32.7673 98.8176" stroke="white" stroke-width="3" stroke-linecap="round"/>
</svg>
