<svg width="129" height="117" viewBox="0 0 129 117" fill="none" xmlns="http://www.w3.org/2000/svg">
<path d="M23.5412 69.0992C23.8134 69.0652 24.2249 68.5858 24.4901 68.4532C25.1866 68.1049 25.9106 67.7921 26.6301 67.5043C27.639 67.1008 29.002 66.6997 30.0823 66.5454C33.0303 66.1242 35.8242 65.938 38.178 68.2917C39.521 69.6347 40.2712 71.1316 40.9842 72.8745C41.9114 75.1411 43.8871 77.1201 44.4263 79.5469C45.2094 83.0708 47.3273 86.2875 48.9082 89.4494C50.048 91.729 51.7306 93.8364 53.5213 95.6271C55.2486 97.3544 57.103 99.3956 57.7407 101.805C58.1853 103.484 57.724 104.199 57.2562 105.802C56.6482 107.887 55.6378 109.015 54.4298 110.668C53.8083 111.518 52.5971 112.043 52.0677 112.969C52.045 113.009 51.1016 110.668 50.7959 110.345C47.7795 107.151 46.2148 102.876 44.1639 99.0895C42.8645 96.6906 40.6888 94.9818 39.1672 92.7199C37.6523 90.468 36.3689 87.5596 34.4431 85.6337C32.6171 83.8077 31.2609 81.3149 30.2236 78.9715C29.3988 77.108 28.4194 75.2011 27.7202 73.2783C27.24 71.9576 26.528 70.2937 25.5802 69.2405C24.0225 67.5096 22.9961 70.2754 22.9961 71.6632C22.9961 73.2562 23.4969 74.7728 23.5412 76.3671C23.5894 78.104 23.8977 79.8849 24.3689 81.5556C24.8573 83.2873 25.6642 84.9292 26.4484 86.5422C27.2694 88.2313 27.7818 90.0297 28.8104 91.6298C31.7426 96.191 35.6719 99.9448 39.4902 103.763C40.8707 105.144 42.1505 106.76 43.4371 108.245C44.5575 109.538 45.8961 110.608 46.9802 111.94C47.5217 112.605 50.2073 115.597 51.2501 114.786C51.7807 114.373 53.5213 113.155 53.5213 112.525" stroke="white" stroke-width="3" stroke-linecap="round"/>
<path d="M22.4519 80.7278C23.102 80.6555 21.8625 80.8309 21.5031 81.0912C20.3338 81.9379 19.7362 83.4436 18.7271 84.4526C16.9175 86.2622 16.4673 88.7862 16.9102 91.2662C17.3822 93.9097 18.5501 96.5781 20.4533 98.5342C22.2864 100.418 24.4603 101.814 26.308 103.662C29.0775 106.432 31.3235 109.537 33.8989 112.434C34.9609 113.629 37.554 113.127 38.8451 112.666C40.9857 111.902 43.5743 111.035 45.3459 109.618" stroke="white" stroke-width="3" stroke-linecap="round"/>
<path d="M103.489 70.3707C102.216 70.3707 101.416 68.6979 100.218 68.3317C98.414 67.7804 96.8739 66.9185 94.9386 66.9185C90.4454 66.9185 87.2141 70.7642 84.6727 74.1056C83.0119 76.2893 81.1514 78.3095 79.5044 80.5054C78.2644 82.1587 77.3511 84.1095 76.5064 85.9866C75.3709 88.5098 74.4886 91.017 72.9633 93.305C71.4597 95.5605 69.3428 97.5907 68.3401 100.169C67.6773 101.873 67.2642 105.025 68.0575 106.71C68.8238 108.339 70.0029 109.358 71.3381 110.526C71.7901 110.921 72.6574 111.648 72.7917 112.252C72.9224 112.84 73.3267 114.581 73.3267 113.978" stroke="white" stroke-width="3" stroke-linecap="round"/>
<path d="M102.217 71.6429C102.192 71.8385 101.742 71.9568 101.571 72.0972C100.431 73.0295 99.5001 74.2791 98.623 75.4586C97.2103 77.3585 95.6526 79.4965 94.4945 81.5455C93.1361 83.9487 91.7228 86.3157 90.0832 88.5408C86.4638 93.4529 82.967 98.4205 79.3631 103.359C77.7291 105.598 76.5535 108.005 75.2446 110.435C74.7723 111.312 74.0068 113.147 74.4572 114.16C75.1698 115.763 76.4496 114.67 77.5966 114.16C79.0279 113.524 80.6599 113.162 82.0078 112.343C84.1573 111.038 85.354 109.911 86.4998 107.619C87.5941 105.43 88.8198 103.478 90.2246 101.482C91.4965 99.6743 93.1376 98.1792 94.1412 96.1721C94.9891 94.4762 96.3611 92.618 97.6742 91.2663C99.5446 89.3408 100.937 87.1169 102.58 85.0179C104.181 82.9726 105.054 80.6859 106.214 78.3657C107.079 76.6362 107.414 74.6376 106.941 72.7432C106.245 69.9582 102.997 70.3789 101.49 72.188" stroke="white" stroke-width="3" stroke-linecap="round"/>
<path d="M105.669 83.2715C106.12 83.2715 107.052 84.623 107.365 84.9774C107.971 85.6647 108.213 86.8525 108.213 87.7433C108.213 91.0139 106.26 93.7581 104.841 96.5556C102.677 100.823 98.8487 103.688 96.029 107.447C94.2513 109.818 92.4631 112.649 89.9623 114.241C88.6724 115.062 87.9383 114.42 86.7725 113.837C86.1151 113.508 85.8207 112.845 85.3189 112.343C84.6913 111.716 83.9828 111.328 83.502 110.526" stroke="white" stroke-width="3" stroke-linecap="round"/>
<path d="M106.215 79.6374C106.289 80.2294 110.831 80.2217 111.595 80.1724C114.708 79.9716 119.034 78.9919 121.286 76.7404C123.834 74.1921 131.521 65.2905 123.84 64.1931" stroke="white" stroke-width="3" stroke-linecap="round"/>
<path d="M23.36 76.7307C20.3649 77.105 17.7779 78.4644 14.5981 77.8208C11.348 77.1631 8.54813 76.8597 6.32078 74.1869C5.43994 73.1299 4.61595 72.0211 3.73663 70.9567C2.91242 69.959 1.97771 69.2748 2.00041 67.8678C2.01585 66.9105 2.60944 65.1594 3.19154 64.4156C4.07581 63.2857 5.74411 63.3005 7.00719 62.9216" stroke="white" stroke-width="3" stroke-linecap="round"/>
<path d="M99.4918 106.893C98.4447 106.893 99.0843 107.371 99.8552 107.619C102.044 108.324 103.861 107.554 105.215 105.802C107.706 102.579 109.233 99.1814 111.12 95.6172C112.968 92.1269 114.343 88.1353 115.744 84.4427C117.152 80.7304 118.731 76.9972 119.579 73.1169C120.169 70.4209 120.328 67.6462 120.791 64.9203C121.241 62.2694 121.547 59.368 121.073 56.7035C120.651 54.327 120.469 51.9936 119.802 49.6577C119.201 47.5551 118.26 45.5757 117.662 43.48" stroke="white" stroke-width="3" stroke-linecap="round"/>
<path d="M118.025 45.6604C117.824 47.2697 118.062 42.4163 118.025 40.7949C117.995 39.4764 117.397 38.0213 117.157 36.7168C116.864 35.1209 116.697 33.515 116.289 31.9422C115.558 29.1211 114.07 27.5122 112.039 25.4818C108.78 22.2227 105.557 18.9043 101.672 16.407C94.603 11.8624 87.9338 6.7185 79.6971 4.33423C77.4125 3.67289 75.1344 3.03666 72.7825 2.67876C70.9511 2.40006 68.7942 1.76149 66.9278 2.09329C64.392 2.5441 61.7754 2.7301 59.2561 3.23395C56.0047 3.88423 52.6903 3.7123 49.4142 4.49573C46.3979 5.21702 43.0849 5.79699 40.2182 6.99913C38.6114 7.67297 36.9923 8.31665 35.3528 8.91705C33.131 9.73067 31.4054 10.5215 29.4375 11.8242C26.2581 13.9289 22.9386 17.2322 21.0996 20.576C18.7018 24.9358 16.0317 29.1501 13.7711 33.5876C12.4494 36.182 11.5752 38.9421 10.551 41.6731C9.68322 43.9873 9.61457 46.5595 8.86528 48.8906C7.69982 52.5164 6.64453 56.465 6.64453 60.2871C6.64453 63.4761 7.55302 66.5374 7.55302 69.6849C7.55302 71.5094 8.37604 73.2983 8.68359 75.0752C9.01187 76.972 9.9151 79.0765 9.9151 80.9905C9.9151 82.0591 10.585 83.0996 10.6419 84.1803C10.7046 85.372 11.2579 87.2004 11.833 88.2685C12.9999 90.4356 14.3688 92.5282 15.4064 94.7188C16.4029 96.8225 16.8637 99.1225 18.0006 101.169C19.1947 103.318 20.5015 105.917 22.3109 107.66C23.5468 108.85 24.7218 109.255 26.3587 109.255C26.8705 109.255 29.0692 109.103 28.9934 109.255" stroke="white" stroke-width="3" stroke-linecap="round"/>
</svg>
