<svg width="164" height="140" viewBox="0 0 164 140" fill="none" xmlns="http://www.w3.org/2000/svg">
<path d="M64.7785 57.9406C64.7785 55.6828 62.8397 62.1476 62.7999 62.3395C61.791 67.2135 62.1571 72.5841 62.1852 77.5343C62.226 84.7004 62.4255 92.1756 64.1254 99.1642C65.3867 104.35 67.3448 109.013 69.6962 113.783C70.4064 115.223 70.9416 116.82 71.9053 118.105C72.9005 119.432 74.2222 119.719 75.6703 120.352C77.4049 121.111 79.5485 121.579 81.3948 121.995C84.2704 122.642 87.2023 123.107 90.1159 123.541C95.6638 124.367 101.801 124.64 107.395 124.069C115.041 123.289 122.507 122.4 129.995 120.736C135.155 119.59 140.112 118.13 145.036 116.203C147.339 115.302 149.628 114.685 151.433 112.88C152.793 111.519 154.197 110.064 154.938 108.25C156.064 105.498 156.016 101.838 155.63 98.9049C155.006 94.1628 154.036 89.5112 153.027 84.8339C151.725 78.7974 150.2 72.7599 148.743 66.7577C148.073 63.9943 147.323 61.3131 146.39 58.6321C145.72 56.7044 145.094 54.9039 143.442 53.6184" stroke="white" stroke-width="3" stroke-linecap="round"/>
<path d="M147.59 86.8131C147.324 86.8463 147.491 87.0494 147.677 86.9668C148.313 86.684 148.763 85.443 148.964 84.9017C149.691 82.9433 149.68 80.5973 148.628 78.7259C148.415 78.3481 146.446 75.7349 145.794 76.4591C144.965 77.3808 146.862 78.9323 147.552 79.1293C151.043 80.1267 154.174 75.4867 155.543 72.9438C157.438 69.4245 154.845 65.1733 151.951 63.1661C148.911 61.0581 145.612 64.3096 147.667 67.4499C149.929 70.9055 155.27 64.8516 156.619 63.0893C159.809 58.9211 158.655 52.9718 155.927 48.8166C153.137 44.5667 145.894 42.4668 141.462 45.2821C139.522 46.5148 136.719 48.587 137.159 51.2947C137.52 53.507 139.095 54.5812 141.29 54.2721C143.274 53.9927 145.209 52.0278 146.294 50.4879C148.04 48.0088 148.429 44.9051 148.032 41.9396C147.629 38.9297 145.12 36.2659 143.258 34.0061C141.382 31.7274 138.773 30.6649 135.911 30.1834C133.39 29.7593 130.568 29.7418 128.054 30.2026C126.08 30.5645 122.847 32.0008 122.56 34.2942C122.245 36.814 124.34 38.3154 126.671 37.9536C129.261 37.5517 131.723 35.5644 133.164 33.4298C134.147 31.9727 134.451 30.1084 134.451 28.3777C134.451 26.9547 134.693 25.2959 134.278 23.9211C133.682 21.9451 131.546 20.0686 129.927 18.9458C126.533 16.5917 123.495 15.305 119.295 15.1039C115.833 14.9382 112.319 14.7197 108.854 14.7197C105.602 14.7197 102.222 14.7314 99.2206 16.1412C94.463 18.3759 90.4896 23.8538 89.6735 28.954C89.2727 31.459 90.6449 35.8203 93.2945 36.657C95.5365 37.365 99.1033 37.2794 100.604 35.1395C103.909 30.426 100.35 23.8973 96.2816 21.0204C93.837 19.2919 89.9913 18.8185 87.0706 19.1379C83.8649 19.4885 80.7765 20.4406 78.0518 22.1922C73.0338 25.4181 71.9857 32.4748 72.9036 37.9825C73.6893 42.6969 77.0105 47.9688 82.5084 46.3194C84.8509 45.6167 85.0055 42.9532 84.2948 40.9791C83.3499 38.3544 81.3585 36.8533 78.7049 36.196C72.7856 34.7298 64.7894 37.4088 61.1089 42.2854C57.5448 47.0079 56.6427 53.9297 58.7654 59.4587C59.858 62.3045 61.6083 64.1036 64.8644 63.8865C67.3772 63.719 71.3666 63.1383 72.0392 60.1118C72.5344 57.8833 71.918 55.133 69.8589 53.8976C67.3359 52.3838 64.1932 53.6828 62.0502 55.3095C58.0215 58.3674 54.6989 63.9688 54.7506 69.1403C54.7759 71.6715 56.5125 73.5444 58.7942 74.3557C61.5662 75.3413 65.137 73.4054 65.7384 70.5042C66.017 69.1606 65.1411 67.1707 63.6542 66.9504C62.012 66.7071 60.6583 68.0092 59.553 69.0058C56.5692 71.6961 55.7318 75.9843 56.8252 79.7824C57.8904 83.4823 61.2923 86.006 65.1237 84.9113" stroke="white" stroke-width="3" stroke-linecap="round"/>
<path d="M152.604 66.2396C153.825 64.8659 155.953 63.2811 157.973 63.4831C160.639 63.7497 162.087 67.2425 162.285 69.5245C162.588 73.0045 162.556 76.0372 161.421 79.379C161.055 80.4558 160.733 81.5741 160.028 82.4909C159.511 83.1631 158.894 83.6582 158.136 84.0373C156.522 84.8441 155.641 84.2689 154.159 83.5282" stroke="white" stroke-width="3" stroke-linecap="round"/>
<path d="M59.7644 67.6226C58.6889 67.5031 57.7187 66.6103 56.518 66.5853C55.0077 66.5539 53.8025 66.8038 52.6761 67.8051C50.9532 69.3366 49.9927 71.4802 50.6014 73.7121C51.5286 77.1115 53.2019 80.1056 55.8745 82.4812C56.9097 83.4014 58.0368 84.4041 59.2457 85.0841C60.91 86.0202 62.7452 85.9823 64.6052 85.7756" stroke="white" stroke-width="3" stroke-linecap="round"/>
<path d="M93.3055 65.2014C91.3882 63.0446 89.1851 61.3979 86.2172 61.3979C82.4525 61.3979 81.3117 64.0379 79.1289 66.5845" stroke="white" stroke-width="3" stroke-linecap="round"/>
<path d="M118.373 63.9917C117.749 64.5461 118.067 63.6546 118.2 63.3385C118.661 62.2465 119.837 61.2785 120.832 60.6684C122.271 59.7853 123.567 58.8801 125.202 58.3825C126.248 58.0642 128.144 58.4605 129.101 58.8915C131.225 59.8474 132.732 62.1993 133.587 64.3374" stroke="white" stroke-width="3" stroke-linecap="round"/>
<path d="M101.084 70.3886C101.131 70.0154 101.364 70.4909 101.43 70.5999C102.159 71.8012 102.11 73.5065 102.467 74.8452C102.956 76.6785 102.986 78.4493 102.986 80.3391C102.986 83.2361 103.504 86.0995 103.504 88.9738C103.504 91.4382 104.04 94.2816 105.147 96.4943C106.005 98.2099 106.637 100.468 108.691 101.153C110.162 101.643 112.296 100.963 113.013 99.5294C114.459 96.6382 114.699 92.9731 114.185 89.8286C113.529 85.82 113.688 81.7007 112.84 77.7266C112.046 74.0057 112.183 69.5701 113.186 65.8936" stroke="white" stroke-width="3" stroke-linecap="round"/>
<path d="M109.556 107.905C108.786 107.905 107.914 107.4 107.193 107.117C106.079 106.679 104.803 106.927 103.716 107.386C100.126 108.902 102.041 112.399 103.322 114.897C105.651 119.438 111.98 122.36 116.548 119.315C121.088 116.288 123.878 109.269 119.448 105.004C118.056 103.663 115.579 103.959 114.319 105.302C113.024 106.683 111.744 107.973 109.901 106.867" stroke="white" stroke-width="3" stroke-linecap="round"/>
<path d="M119.582 114.993C119.527 114.495 119.409 114.085 119.409 113.553C119.409 113.417 119.347 111.291 119.294 111.334C118.648 111.863 118.24 112.921 117.815 113.61C117.17 114.656 116.479 115.672 115.798 116.693C115.618 116.963 114.991 117.626 114.991 117.99C114.991 118.747 115.851 116.745 116.259 116.108C116.381 115.917 118.409 112.477 118.084 112.477C116.711 112.477 115.451 116.746 115.193 117.808C115.018 118.526 115.238 118.251 115.471 117.779C116.063 116.582 116.597 115.283 116.95 113.994C117.066 113.573 117.303 112.804 117.143 112.362C117.049 112.106 115.786 114.292 115.711 114.455C115.494 114.932 114.007 119.021 115.202 116.972C115.469 116.515 117.54 110.798 116.912 110.959C115.799 111.246 114.944 114.334 114.914 115.301C114.872 116.66 116.214 112.839 116.365 111.488C116.655 108.871 113.369 113.165 113.137 114.167C113.066 114.477 113.075 114.942 113.531 114.782C114.292 114.515 114.812 113.157 115.087 112.496C115.522 111.452 115.762 107.995 113.877 109.932C113.579 110.238 111.138 113.86 112.667 113.802C114.128 113.747 115.052 110.687 115.145 109.576C115.187 109.075 115.006 108.349 114.357 108.673C113.261 109.222 112.611 110.502 112.263 111.612C111.833 112.986 112.278 115.546 113.954 113.553C114.621 112.759 115.204 111.654 115.529 110.671C115.605 110.442 115.957 108.614 115.183 109.096C113.98 109.845 112.807 112.256 113.262 113.668C113.89 115.614 116.322 111.743 116.537 111.199C117.035 109.941 116.331 108.382 115.049 109.788C114.698 110.172 113.004 113.066 114.693 112.794C116.365 112.524 117.315 110.895 117.315 109.327C117.315 107.926 115.906 107.32 115.126 108.597C114.66 109.358 114.026 112.114 115.788 111.497C116.873 111.117 118.389 109.146 117.2 108.155C115.143 106.44 114.051 112.17 116.633 110.556C117.608 109.947 117.535 108.261 116.854 107.463C115.963 106.418 114.926 108.451 114.847 109.115C114.517 111.886 119.328 109.897 117.373 107.29C116.705 106.4 115.993 108.134 116.067 108.673C116.291 110.31 118.913 110.466 119.035 108.769C119.079 108.154 118.358 107.049 117.7 107.78C116.392 109.233 118.709 110.234 119.889 109.423C121.385 108.395 120.391 107.06 118.891 107.06C117.586 107.06 116.185 107.999 116.124 109.423C116.082 110.43 117.132 110.257 117.508 109.557C117.851 108.918 118.527 106.564 116.97 106.983C115.503 107.378 114.664 108.884 114.242 110.239C113.934 111.228 114.281 112.989 115.644 112.189C118.104 110.745 114.915 106.908 112.868 110.575C112.292 111.607 112.27 113.547 113.954 112.669C114.669 112.296 116.333 110.04 114.809 109.576C112.257 108.8 109.775 116 113.915 112.074C115.505 110.566 113.187 110.823 112.283 111.401C111.456 111.93 110.607 112.583 110.121 113.457C109.88 113.891 109.312 115.529 110.371 115.128C111.681 114.632 113.858 112.18 113.224 110.623C112.552 108.974 109.856 111.999 109.593 112.746C109.396 113.307 109.635 113.785 110.285 113.639C111.357 113.398 112.268 112.46 112.801 111.545C114.189 109.167 111.176 109.772 110.016 110.71C109.536 111.097 107.069 114.177 108.978 114.225C110.269 114.258 113.069 112.322 112.196 110.777C111.296 109.185 108.728 111.92 108.345 112.784C107.463 114.774 109.824 114.236 110.659 113.245C111.693 112.02 110.935 111.507 109.545 111.564C108.692 111.6 105.478 113.437 106.904 114.571C108.346 115.718 110.356 112.612 110.131 111.392C109.795 109.569 107.421 110.192 106.616 111.267C105.578 112.65 106.611 113.76 108.037 112.803C109.278 111.972 110.759 108.926 108.345 108.558C106.848 108.33 105.6 110.016 106.03 111.401C106.414 112.64 109.767 110.51 108.306 108.981C107.424 108.058 106.401 109.045 106.174 109.98C105.987 110.751 106.696 112.549 107.634 111.507C108.434 110.618 107.499 108.826 106.404 108.712C104.979 108.564 104.097 110.099 104.983 111.238C105.766 112.245 107.211 111.383 107.538 110.402C107.85 109.465 107.144 107.948 106.135 108.981C105.552 109.578 105.574 110.98 106.27 111.497C107.068 112.09 107.828 110.751 107.471 110.066C106.208 107.646 103.563 111.504 105.06 113.265C105.598 113.898 105.774 114.315 106.529 114.734C107.162 115.085 108.029 114.909 108.729 115.339C110.647 116.52 112.848 116.854 114.905 115.954C115.12 115.859 115.62 115.378 115.5 115.445C114.862 115.799 114.133 116.443 113.704 117.03C113.078 117.886 114.067 117.388 114.492 117.049C115.541 116.209 116.261 115.105 116.989 113.994C117.276 113.556 118.754 111.661 117.844 113.197C117.376 113.987 116.816 114.792 116.432 115.608C116.153 116.201 117.332 114.654 117.748 114.148C118.045 113.786 118.532 113.292 118.708 112.852C118.938 112.278 117.865 113.759 117.508 114.263C116.768 115.307 118.859 112.084 119.669 111.094C120.545 110.023 120.198 110.19 119.371 111.055C117.968 112.524 116.72 114.153 115.087 115.378C113.057 116.9 109.77 116.792 107.442 116.069C105.207 115.375 104.869 112.54 104.282 110.662C104.018 109.818 103.676 108.055 102.812 107.598C102.449 107.406 103.137 109.29 103.196 109.423C103.562 110.245 104.215 110.844 105.146 110.844C105.487 110.844 105.747 110.345 105.492 110.345C105.229 110.345 105.215 111.22 105.271 111.401C105.564 112.353 106.37 113.474 107.173 114.052C108.7 115.152 111.694 116.031 113.598 116.031C114.256 116.031 115.157 114.751 115.606 114.302C116.252 113.655 117.292 112.682 116.643 111.709" stroke="white" stroke-width="3" stroke-linecap="round"/>
<path d="M117.505 116.078C117.613 115.957 117.936 115.44 117.64 115.853C117.487 116.068 117.333 116.283 117.19 116.505C117.172 116.533 116.993 116.772 117.121 116.692C117.456 116.481 118.402 115.8 118.026 115.925C117.823 115.992 117.612 116.146 117.433 116.262C117.275 116.364 117.278 116.358 117.397 116.206C117.554 116.005 117.695 115.793 117.852 115.592C117.912 115.516 118.175 115.269 118.175 115.168C118.175 115.057 118.061 115.359 117.991 115.444C117.768 115.714 117.524 115.966 117.277 116.214C116.382 117.109 115.383 117.762 114.098 117.459C113.945 117.423 113.788 117.413 113.638 117.367C113.361 117.282 113.62 117.409 113.728 117.482C113.947 117.63 114.495 117.926 113.945 117.919C113.827 117.918 112.529 117.774 112.551 117.97C112.577 118.207 113.323 118.473 113.359 118.149C113.399 117.795 112.943 117.939 112.784 118.068C112.462 118.329 112.819 118.715 113.098 118.374C113.197 118.254 113.197 118.059 113.052 117.973C112.854 117.855 112.576 118.002 112.421 118.134C111.817 118.648 112.985 118.676 112.804 118.17C112.599 117.594 111.486 117.986 111.163 118.218C111.06 118.292 110.984 118.443 111.183 118.415C111.352 118.392 111.706 118.215 111.776 118.047C111.954 117.627 110.802 117.811 110.654 117.85C110.229 117.963 111.104 118.057 111.234 118.057C111.833 118.057 109.999 117.998 109.472 117.715C109.193 117.564 108.926 117.236 108.769 116.953C108.63 116.702 108.575 116.659 108.252 116.676C107.804 116.7 108.877 117.666 108.616 117.477C108.384 117.31 108.147 117.036 107.838 117.045C107.669 117.05 107.573 117.205 107.654 117.346C107.684 117.399 107.722 117.676 107.644 117.551C107.584 117.456 107.487 117.381 107.424 117.275" stroke="white" stroke-width="3" stroke-linecap="round"/>
<path d="M102.774 112.028C102.774 111.962 102.754 111.739 102.769 111.747C102.895 111.81 103.088 112.071 102.958 111.818C102.846 111.6 102.916 111.909 102.969 111.982C103.031 112.069 103.344 112.219 103.281 112.028" stroke="white" stroke-width="3" stroke-linecap="round"/>
<path d="M110.552 108.391C110.45 108.42 110.673 108.632 110.7 108.647C111.029 108.83 111.468 108.916 111.605 108.488C111.77 107.974 110.542 108.645 110.866 108.772C111.046 108.842 111.345 108.683 111.508 108.611C111.712 108.521 111.664 108.495 111.477 108.529C111.311 108.559 111.378 108.618 111.518 108.575C111.772 108.497 112.018 108.417 112.255 108.299" stroke="white" stroke-width="3" stroke-linecap="round"/>
<path d="M113.866 107.7C113.722 107.797 112.97 108.382 113.426 108.012C113.818 107.695 114.171 107.432 114.513 107.056C114.929 106.598 115.455 106.157 116.04 105.941C116.448 105.79 116.862 105.675 117.298 105.675C117.563 105.675 118.045 105.711 118.239 105.905" stroke="white" stroke-width="3" stroke-linecap="round"/>
<path d="M106.547 107.01C106.351 106.836 105.846 106.78 105.58 106.78C105.321 106.78 105.02 106.755 104.775 106.849C104.33 107.02 103.963 107.254 103.555 107.481C102.845 107.875 102.285 109.229 102.542 110.002" stroke="white" stroke-width="3" stroke-linecap="round"/>
<path d="M107.193 106.78C106.919 106.506 106.697 106.126 106.319 105.977C106.014 105.858 105.707 105.775 105.388 105.711C104.651 105.564 103.802 105.95 103.373 106.56C102.891 107.245 102.423 108.794 103.189 109.45" stroke="white" stroke-width="3" stroke-linecap="round"/>
<path d="M109.725 106.964C109.725 106.657 107.822 106.274 107.433 106.274C106.654 106.274 105.98 106.276 105.352 106.826" stroke="white" stroke-width="3" stroke-linecap="round"/>
<path d="M113.768 105.086C113.044 105.147 112.286 105.41 111.586 105.585C110.033 105.973 108.484 106.384 106.95 106.839C106.591 106.946 106.183 107.024 105.843 107.175C105.407 107.369 104.642 107.751 104.16 107.751" stroke="white" stroke-width="3" stroke-linecap="round"/>
<path d="M58.3265 103.275C58.2867 103.593 57.7794 103.644 57.504 103.762C55.0765 104.802 52.1186 105.126 49.5527 105.742" stroke="white" stroke-width="3" stroke-linecap="round"/>
<path d="M58.0516 104.37C58.4881 104.316 58.2975 104.213 58.0516 104.767C56.5489 108.148 56.345 112.545 55.584 116.16" stroke="white" stroke-width="3" stroke-linecap="round"/>
<path d="M48.1819 105.468C48.0994 106.128 47.5754 105.043 47.4812 104.889C45.4184 101.513 41.8821 99.7345 38.281 98.4912C29.1347 95.3336 17.7639 95.8556 9.79671 101.873C2.89438 107.086 0.314572 114.706 3.0793 122.832C5.78246 130.778 13.6699 135.281 21.5408 136.968C32.437 139.303 48.5316 138.264 55.1583 127.661C56.581 125.385 60.4161 115.612 54.7622 115.612" stroke="white" stroke-width="3" stroke-linecap="round"/>
<path d="M61.0676 19.3748C62.6116 19.2033 62.3797 15.6199 62.3928 14.8356C62.4479 11.5611 61.7207 8.64278 58.5696 7.0672C56.6205 6.09269 54.6269 6.11157 52.6899 7.09766C52.1588 7.36803 51.7641 7.84068 51.3495 8.25531C51.18 8.42478 51.1373 8.94132 50.923 8.83414C50.3856 8.56544 49.9197 5.86693 49.5216 5.2698C47.9963 2.98174 45.3011 2.00113 42.6823 1.70546C40.1989 1.42507 36.7523 1.564 34.7464 3.25914C33.5614 4.26052 33.1037 5.98929 32.0046 6.91488C31.7928 7.0932 29.3289 5.27862 28.9277 5.13271C25.0842 3.7351 20.6268 5.248 17.1531 6.94534C11.3758 9.76836 3.52633 15.0615 5.13492 22.7259C5.24108 23.2317 6.49185 25.1161 6.07932 25.5287C5.35481 26.2532 4.37442 26.1987 3.76402 27.2499C0.48358 32.8995 3.27536 41.3859 8.76019 44.3861C10.6162 45.4014 13.3288 46.4357 15.2491 44.9954C16.2722 44.2281 15.9239 43.4141 16.5134 42.5887C16.6628 42.3795 19.2331 45.0842 19.5141 45.3001C22.7827 47.8107 28.5463 45.0212 30.8469 42.345C32.0695 40.9228 33.1013 39.3985 33.1013 37.4859C33.1013 35.9064 33.7633 36.8204 34.7616 37.4859C39.31 40.5182 44.4724 39.0086 46.9626 34.0282C47.4371 33.0791 47.3586 32.0695 47.3586 31.0427C47.3586 30.5149 48.9 31.6412 49.4302 31.85C53.7431 33.5491 56.8484 31.7023 57.7166 27.2651C58.1031 25.2895 57.1822 25.1022 59.0265 25.1022C59.7756 25.1022 60.8427 24.3997 61.3418 23.914C63.0942 22.209 62.4275 20.7264 61.3418 18.8265" stroke="white" stroke-width="3" stroke-linecap="round"/>
<path d="M58.8745 33.907C58.7739 33.1016 58.3262 34.1046 58.3262 34.4706C58.3262 36.0094 59.7749 37.1592 61.2203 36.3746C63.5653 35.1016 61.0429 31.3042 58.3262 33.6328" stroke="white" stroke-width="3" stroke-linecap="round"/>
<path d="M127.968 79.4202C125.33 79.4202 132.243 71.9609 133.512 76.4043C135.197 82.3006 129.805 86.5355 126.871 90.9358" stroke="#086562" stroke-width="3" stroke-linecap="round"/>
<path d="M126.598 79.9695C126.496 80.7833 123.438 78.9868 122.972 78.7661C121.708 78.1671 119.999 79.3563 119.362 80.396C117.35 83.6789 123.097 87.7997 125.775 88.469" stroke="#086562" stroke-width="3" stroke-linecap="round"/>
<path d="M88.2115 84.63C86.8225 84.4564 89.6916 80.2953 90.2678 79.8471C91.9919 78.5062 93.5117 80.8253 93.8322 82.2995C94.807 86.7836 89.2929 91.2256 86.5664 93.9521" stroke="#086562" stroke-width="3" stroke-linecap="round"/>
<path d="M87.6648 86.0013C87.0669 85.9349 86.685 84.8587 86.3244 84.4476C85.4049 83.3994 84.4811 82.9021 83.1409 82.6959C81.4662 82.4383 79.4918 82.8722 79.15 84.7523C78.8109 86.6175 80.1749 88.8867 81.6329 90.0531C83.0527 91.1889 85.3729 93.2424 87.1165 93.6783" stroke="#086562" stroke-width="3" stroke-linecap="round"/>
</svg>
