<svg width="145" height="124" viewBox="0 0 145 124" fill="none" xmlns="http://www.w3.org/2000/svg">
<path d="M57.1215 51.9185C57.047 49.9673 55.5847 55.6181 55.5567 55.7853C54.8456 60.0307 55.3392 64.6598 55.5268 68.9368C55.7984 75.1284 56.2174 81.5819 57.917 87.5653C59.1781 92.005 61.0242 95.9703 63.2135 100.015C63.8749 101.236 64.3901 102.598 65.2652 103.677C66.1691 104.791 67.3207 104.995 68.5931 105.495C70.1171 106.094 71.9851 106.428 73.5943 106.726C76.1008 107.19 78.6499 107.495 81.1821 107.774C86.0038 108.305 91.317 108.339 96.132 107.661C102.714 106.734 109.137 105.72 115.553 104.035C119.975 102.874 124.21 101.449 128.402 99.621C130.362 98.7663 132.32 98.1575 133.82 96.538C134.951 95.3172 136.116 94.0133 136.697 92.4216C137.579 90.0057 137.417 86.8443 136.986 84.3225C136.291 80.245 135.299 76.2571 134.273 72.2483C132.948 67.0745 131.432 61.9073 129.974 56.7682C129.304 54.4022 128.567 52.1098 127.673 49.8237C127.03 48.18 126.43 46.6446 124.959 45.5882" stroke="black" stroke-width="3" stroke-linecap="round"/>
<path d="M129.64 74.138C129.411 74.1754 129.562 74.3455 129.72 74.2679C130.26 74.0026 130.608 72.9153 130.764 72.4409C131.328 70.7244 131.241 68.6974 130.269 67.1148C130.073 66.7954 128.285 64.602 127.746 65.2494C127.06 66.0732 128.751 67.3514 129.353 67.4989C132.403 68.2458 134.956 64.1326 136.055 61.8898C137.577 58.786 135.195 55.1976 132.628 53.5585C129.932 51.837 127.188 54.7558 129.067 57.4018C131.136 60.3135 135.552 54.9056 136.66 53.3381C139.279 49.6307 138.086 44.5274 135.591 41.0265C133.039 37.4458 126.711 35.8701 122.974 38.4492C121.338 39.5785 118.984 41.4618 119.454 43.7872C119.838 45.6872 121.235 46.5636 123.121 46.2241C124.827 45.9171 126.434 44.1552 127.321 42.7886C128.749 40.5886 128.982 37.8936 128.541 35.3439C128.094 32.7561 125.837 30.5368 124.154 28.6453C122.457 26.7379 120.168 25.9058 117.678 25.5841C115.486 25.3008 113.046 25.3788 110.889 25.8599C109.195 26.2378 106.449 27.5857 106.276 29.5771C106.087 31.7651 107.947 32.9934 109.95 32.6039C112.175 32.1711 114.237 30.3725 115.412 28.4803C116.213 27.1886 116.414 25.5674 116.357 24.0718C116.31 22.842 116.464 21.4005 116.061 20.2261C115.48 18.5381 113.573 16.987 112.136 16.07C109.125 14.1476 106.458 13.1358 102.821 13.1006C99.8243 13.0716 96.78 12.9988 93.786 13.1131C90.9756 13.2203 88.055 13.3419 85.5076 14.6593C81.4698 16.7474 78.2166 21.6125 77.6797 26.047C77.4159 28.225 78.7457 31.9488 81.063 32.5845C83.0239 33.1224 86.1035 32.9307 87.3296 31.0319C90.0301 26.8495 86.7397 21.3249 83.1286 18.9729C80.959 17.5598 77.62 17.2775 75.1064 17.6499C72.3476 18.0586 69.71 18.9833 67.4131 20.5869C63.183 23.5402 62.51 29.6732 63.485 34.4026C64.3196 38.4509 67.3636 42.8973 72.0604 41.2905C74.0616 40.6059 74.1074 38.2991 73.4281 36.6166C72.525 34.3794 70.7545 33.1479 68.4395 32.6674C63.2758 31.5955 56.4538 34.1746 53.4341 38.5103C50.5097 42.7091 49.9585 48.7207 51.9753 53.4288C53.0134 55.852 54.5854 57.349 57.3921 57.054C59.5582 56.8264 62.9867 56.1929 63.468 53.5553C63.8225 51.6131 63.1991 49.2566 61.3788 48.2568C59.1485 47.0319 56.4755 48.2582 54.6772 49.7346C51.2964 52.5102 48.6098 57.4605 48.8251 61.928C48.9305 64.1146 50.4931 65.6759 52.4917 66.3017C54.9197 67.062 57.9417 65.2712 58.3658 62.7442C58.5622 61.5739 57.7396 59.8831 56.4474 59.7418C55.0201 59.5857 53.8933 60.7556 52.9709 61.6534C50.4811 64.0767 49.8989 67.8102 50.9691 71.0564C52.0117 74.2187 55.0348 76.2875 58.3099 75.2151" stroke="black" stroke-width="3" stroke-linecap="round"/>
<path d="M133.295 56.1932C134.305 54.9658 136.092 53.526 137.844 53.6339C140.157 53.7764 141.523 56.747 141.77 58.7126C142.146 61.71 142.218 64.3319 141.348 67.2573C141.067 68.1999 140.826 69.1771 140.247 69.9926C139.822 70.5905 139.305 71.0388 138.663 71.3914C137.295 72.1419 136.514 71.6738 135.21 71.0826" stroke="black" stroke-width="3" stroke-linecap="round"/>
<path d="M53.1075 60.4512C52.1742 60.3834 51.3062 59.6438 50.2678 59.6618C48.9615 59.6844 47.9283 59.9402 46.9879 60.8427C45.5494 62.223 44.7902 64.1072 45.3898 66.0159C46.3032 68.9231 47.8481 71.4554 50.2361 73.4202C51.1611 74.1813 52.1682 75.0106 53.2354 75.5584C54.7045 76.3125 56.2892 76.2192 57.8898 75.9792" stroke="black" stroke-width="3" stroke-linecap="round"/>
<path d="M82.0136 57.2524C80.2855 55.4517 78.3272 54.1014 75.7624 54.1993C72.509 54.3235 71.6102 56.6426 69.8078 58.9153" stroke="black" stroke-width="3" stroke-linecap="round"/>
<path d="M103.638 55.3799C103.117 55.8796 103.362 55.0988 103.467 54.8212C103.83 53.8623 104.814 52.9869 105.653 52.4269C106.868 51.6162 107.958 50.7912 109.355 50.3072C110.248 49.9976 111.899 50.2776 112.741 50.6185C114.608 51.3744 115.988 53.3573 116.797 55.1768" stroke="black" stroke-width="3" stroke-linecap="round"/>
<path d="M88.9081 61.4783C88.9361 61.1543 89.153 61.5575 89.2138 61.6495C89.8838 62.6637 89.8977 64.139 90.2503 65.2841C90.7333 66.8523 90.8175 68.3817 90.8798 70.0148C90.9754 72.5183 91.518 74.9758 91.6129 77.4598C91.6942 79.5895 92.2512 82.0291 93.2803 83.9048C94.0782 85.3591 94.6992 87.2896 96.4969 87.8136C97.7842 88.1888 99.6064 87.5306 100.179 86.2682C101.332 83.722 101.42 80.5466 100.871 77.8462C100.172 74.4036 100.174 70.8384 99.3098 67.432C98.5011 64.2426 98.473 60.4048 99.2183 57.1945" stroke="black" stroke-width="3" stroke-linecap="round"/>
<path d="M97.4657 93.6203C96.8008 93.6456 96.0307 93.2387 95.3978 93.0176C94.421 92.6762 93.3261 92.9322 92.402 93.3647C89.3497 94.7929 91.1199 97.752 92.3094 99.8686C94.472 103.717 100.038 106.033 103.885 103.25C107.709 100.485 109.888 94.3272 105.919 90.7872C104.672 89.6746 102.541 90.0116 101.497 91.2137C100.423 92.4504 99.3589 93.6069 97.7303 92.7124" stroke="black" stroke-width="3" stroke-linecap="round"/>
<path d="M106.365 99.4153C106.301 98.9867 106.186 98.6359 106.168 98.176C106.164 98.0588 106.039 96.2233 105.995 96.2624C105.454 96.7405 105.137 97.6689 104.792 98.2784C104.269 99.2031 103.706 100.104 103.151 101.009C103.004 101.249 102.484 101.842 102.496 102.157C102.521 102.81 103.199 101.052 103.53 100.488C103.629 100.319 105.268 97.2793 104.987 97.29C103.801 97.3353 102.853 101.066 102.664 101.992C102.537 102.619 102.718 102.374 102.904 101.958C103.376 100.904 103.794 99.7645 104.058 98.6389C104.144 98.2709 104.323 97.5985 104.17 97.2215C104.081 97.0032 103.061 98.9346 103.002 99.0782C102.83 99.4971 101.68 103.08 102.645 101.27C102.86 100.866 104.462 95.8569 103.924 96.0172C102.972 96.3013 102.335 98.9986 102.341 99.8349C102.349 101.011 103.383 97.6648 103.469 96.4918C103.634 94.2206 100.935 98.0405 100.768 98.9141C100.717 99.1842 100.74 99.5858 101.129 99.4323C101.778 99.1761 102.182 97.986 102.398 97.4055C102.739 96.4885 102.832 93.493 101.268 95.2292C101.02 95.5041 99.0304 98.7145 100.349 98.6142C101.61 98.5183 102.308 95.8431 102.351 94.8803C102.371 94.4457 102.191 93.8242 101.641 94.126C100.712 94.636 100.193 95.7638 99.9285 96.735C99.6018 97.9361 100.071 100.134 101.453 98.3559C102.004 97.6484 102.471 96.6743 102.72 95.8139C102.777 95.6132 103.022 94.0222 102.369 94.464C101.354 95.151 100.419 97.2735 100.86 98.4784C101.466 100.139 103.441 96.714 103.609 96.2371C103.997 95.1335 103.337 93.8088 102.275 95.0661C101.985 95.41 100.617 97.967 102.067 97.6758C103.504 97.3876 104.271 95.9479 104.219 94.5929C104.173 93.3823 102.935 92.9049 102.303 94.0343C101.925 94.7077 101.468 97.1103 102.971 96.5191C103.896 96.1552 105.141 94.4012 104.081 93.584C102.246 92.1703 101.492 97.1578 103.67 95.6778C104.493 95.119 104.373 93.6646 103.759 92.9978C102.955 92.1243 102.125 93.9152 102.079 94.4917C101.885 96.8967 105.977 95.0192 104.202 92.8313C103.595 92.0836 103.037 93.606 103.118 94.0696C103.366 95.4769 105.638 95.5252 105.686 94.0547C105.704 93.521 105.045 92.5903 104.5 93.2438C103.418 94.5429 105.454 95.3311 106.447 94.5909C107.705 93.6533 106.802 92.5325 105.506 92.582C104.378 92.625 103.198 93.4832 103.193 94.7152C103.189 95.5868 104.091 95.4027 104.393 94.7857C104.668 94.2226 105.175 92.1654 103.843 92.579C102.588 92.9687 101.913 94.2975 101.593 95.4828C101.36 96.3473 101.718 97.8578 102.869 97.1215C104.948 95.7924 102.065 92.5816 100.417 95.8186C99.9534 96.7296 99.998 98.4062 101.424 97.5923C102.03 97.2465 103.393 95.2419 102.061 94.8914C99.8299 94.3043 97.9232 100.609 101.371 97.0789C102.696 95.7233 100.701 96.0221 99.9381 96.5518C99.241 97.0358 98.529 97.6283 98.1383 98.3994C97.9441 98.7828 97.507 100.217 98.4093 99.8354C99.5248 99.3639 101.325 97.1725 100.726 95.8484C100.091 94.4453 97.861 97.1486 97.6584 97.8026C97.5062 98.2936 97.7289 98.6994 98.2855 98.5517C99.2041 98.3078 99.9601 97.4673 100.391 96.6592C101.512 94.558 98.9279 95.1807 97.9564 96.0289C97.5548 96.3796 95.5243 99.1223 97.1759 99.1011C98.2922 99.0868 100.648 97.3214 99.8428 96.0151C99.0128 94.6692 96.883 97.1173 96.5806 97.877C95.8845 99.6253 97.9067 99.0825 98.5962 98.199C99.449 97.1063 98.7775 96.6873 97.5779 96.7832C96.8416 96.8421 94.1251 98.5355 95.3945 99.4684C96.679 100.412 98.313 97.6616 98.0785 96.6145C97.7282 95.0503 95.6973 95.6676 95.0364 96.6225C94.1854 97.8523 95.1143 98.777 96.3156 97.9037C97.3602 97.1443 98.5399 94.4626 96.4412 94.2248C95.1402 94.0773 94.1175 95.5756 94.5346 96.7581C94.9076 97.8157 97.7352 95.8646 96.4219 94.5913C95.6295 93.823 94.7775 94.7099 94.6122 95.5248C94.4757 96.1976 95.1479 97.7282 95.9242 96.7965C96.5862 96.002 95.7193 94.4838 94.7696 94.4216C93.5328 94.3406 92.821 95.6961 93.6244 96.6515C94.3345 97.4959 95.5546 96.7034 95.8048 95.8451C96.0439 95.0247 95.3837 93.7371 94.546 94.6629C94.0615 95.1984 94.1265 96.4091 94.7452 96.8331C95.4544 97.3191 96.0669 96.1367 95.7356 95.5568C94.5644 93.5067 92.4065 96.9284 93.7577 98.4003C94.2438 98.9299 94.4099 99.2843 95.0761 99.6218C95.6344 99.9047 96.3779 99.7231 96.9969 100.072C98.6937 101.029 100.606 101.245 102.354 100.4C102.538 100.311 102.953 99.8788 102.852 99.9401C102.312 100.268 101.703 100.848 101.352 101.369C100.84 102.13 101.678 101.667 102.034 101.36C102.913 100.599 103.499 99.6216 104.091 98.6376C104.325 98.2489 105.539 96.5628 104.803 97.9205C104.425 98.6185 103.967 99.333 103.663 100.05C103.441 100.572 104.409 99.1966 104.752 98.7454C104.997 98.4228 105.401 97.9796 105.539 97.5932C105.718 97.0899 104.84 98.4055 104.548 98.8529C103.944 99.7791 105.644 96.9245 106.311 96.0425C107.033 95.0881 106.738 95.2441 106.052 96.0191C104.888 97.3343 103.864 98.7832 102.493 99.8956C100.789 101.278 97.9448 101.293 95.9087 100.745C93.9543 100.22 93.5687 97.7804 92.9995 96.1766C92.7437 95.4558 92.3901 93.944 91.6285 93.5772C91.3084 93.4232 91.9653 95.0289 92.0207 95.1417C92.3636 95.8402 92.9481 96.3365 93.7525 96.3058C94.0467 96.2946 94.255 95.8544 94.0349 95.8628C93.8073 95.8714 93.8247 96.6285 93.8788 96.7831C94.1634 97.5962 94.8973 98.5385 95.6098 99.0113C96.9662 99.9114 99.5824 100.572 101.228 100.509C101.796 100.487 102.532 99.3518 102.906 98.9489C103.443 98.369 104.31 97.4934 103.717 96.6735" stroke="black" stroke-width="3" stroke-linecap="round"/>
<path d="M104.604 100.422C104.694 100.314 104.955 99.8555 104.714 100.223C104.588 100.413 104.463 100.605 104.346 100.801C104.332 100.826 104.185 101.038 104.293 100.965C104.575 100.772 105.37 100.151 105.05 100.272C104.876 100.337 104.699 100.477 104.548 100.583C104.415 100.677 104.418 100.671 104.515 100.536C104.644 100.357 104.759 100.169 104.889 99.9902C104.938 99.9224 105.156 99.7006 105.153 99.6127C105.149 99.5171 105.061 99.7814 105.003 99.8574C104.819 100.098 104.617 100.324 104.412 100.546C103.668 101.349 102.826 101.947 101.706 101.727C101.572 101.701 101.436 101.698 101.305 101.663C101.063 101.598 101.29 101.7 101.386 101.759C101.581 101.88 102.064 102.118 101.588 102.13C101.486 102.133 100.36 102.052 100.386 102.22C100.416 102.424 101.07 102.629 101.09 102.348C101.112 102.041 100.723 102.18 100.59 102.297C100.32 102.533 100.641 102.855 100.872 102.551C100.953 102.444 100.947 102.276 100.819 102.206C100.643 102.111 100.408 102.247 100.278 102.366C99.7738 102.83 100.784 102.816 100.611 102.384C100.414 101.893 99.4657 102.269 99.1938 102.481C99.1073 102.548 99.0464 102.68 99.218 102.65C99.3634 102.624 99.6629 102.459 99.7185 102.312C99.8581 101.943 98.8687 102.14 98.7419 102.179C98.3787 102.29 99.1376 102.343 99.2504 102.339C99.7674 102.319 98.181 102.329 97.7164 102.101C97.4699 101.98 97.2287 101.705 97.0835 101.466C96.9548 101.253 96.9063 101.219 96.6279 101.244C96.2409 101.279 97.2004 102.078 96.9682 101.924C96.7626 101.787 96.5485 101.558 96.2821 101.576C96.1361 101.586 96.0581 101.723 96.1329 101.843C96.1605 101.887 96.2022 102.125 96.1308 102.02C96.0764 101.94 95.9902 101.878 95.9316 101.788" stroke="black" stroke-width="3" stroke-linecap="round"/>
<path d="M91.7412 97.4074C91.739 97.3504 91.7146 97.1585 91.7275 97.1644C91.8387 97.2147 92.0143 97.4341 91.8934 97.22C91.7892 97.0353 91.8603 97.2998 91.9077 97.3611C91.9642 97.4342 92.2403 97.5538 92.1789 97.3906" stroke="black" stroke-width="3" stroke-linecap="round"/>
<path d="M98.3442 94.0077C98.2575 94.036 98.457 94.2118 98.4808 94.2238C98.7714 94.3711 99.154 94.4309 99.2581 94.0569C99.3834 93.6072 98.344 94.2276 98.6286 94.3267C98.7868 94.3817 99.0395 94.2341 99.1782 94.1662C99.3511 94.0816 99.3088 94.0611 99.149 94.0965C99.0059 94.1282 99.0661 94.177 99.1859 94.1349C99.4024 94.0588 99.613 93.9819 99.8134 93.8719" stroke="black" stroke-width="3" stroke-linecap="round"/>
<path d="M101.186 93.3016C101.064 93.3897 100.434 93.9206 100.816 93.5857C101.144 93.2984 101.44 93.06 101.724 92.7233C102.068 92.3142 102.508 91.9159 103.006 91.7094C103.354 91.5654 103.708 91.4524 104.085 91.438C104.313 91.4293 104.732 91.4447 104.906 91.6059" stroke="black" stroke-width="3" stroke-linecap="round"/>
<path d="M94.839 92.9462C94.6639 92.8021 94.2254 92.7704 93.9958 92.7792C93.772 92.7877 93.5104 92.7759 93.3018 92.8655C92.9234 93.0278 92.6131 93.2425 92.2681 93.4517C91.6678 93.8159 91.2278 95.0054 91.4759 95.6648" stroke="black" stroke-width="3" stroke-linecap="round"/>
<path d="M95.3865 92.7263C95.1407 92.4985 94.9357 92.1771 94.6042 92.0612C94.337 91.9678 94.0693 91.9068 93.791 91.8621C93.1495 91.7591 92.4283 92.1211 92.0775 92.6623C91.6838 93.2698 91.3305 94.6238 92.0137 95.1657" stroke="black" stroke-width="3" stroke-linecap="round"/>
<path d="M97.5812 92.8018C97.571 92.5362 95.914 92.2679 95.5782 92.2807C94.9048 92.3064 94.3222 92.3311 93.7975 92.8267" stroke="black" stroke-width="3" stroke-linecap="round"/>
<path d="M101.014 91.0458C100.39 91.1219 99.7436 91.3746 99.1451 91.5488C97.8158 91.9355 96.4902 92.3418 95.1796 92.7859C94.8728 92.8899 94.5227 92.9705 94.2344 93.112C93.8635 93.2941 93.2153 93.65 92.7989 93.6659" stroke="black" stroke-width="3" stroke-linecap="round"/>
<path d="M53.0412 91.3089C53.0173 91.5853 52.5806 91.6462 52.3465 91.7573C50.283 92.7364 47.7375 93.1141 45.5404 93.7309" stroke="black" stroke-width="3" stroke-linecap="round"/>
<path d="M52.841 92.2652C53.2165 92.2036 53.0483 92.1212 52.8541 92.6074C51.667 95.5789 51.6359 99.3861 51.0975 102.535" stroke="black" stroke-width="3" stroke-linecap="round"/>
<path d="M44.3482 93.5387C44.2987 94.1121 43.8101 93.1917 43.7236 93.0616C41.8295 90.2125 38.7148 88.792 35.5617 87.8364C27.5533 85.4093 17.744 86.2356 11.0573 91.6984C5.26428 96.4311 3.2862 103.101 5.94357 110.033C8.54175 116.811 15.5066 120.442 22.3642 121.64C31.8577 123.298 45.7324 121.869 51.1093 112.488C52.2637 110.474 55.2556 101.902 50.3696 102.089" stroke="black" stroke-width="3" stroke-linecap="round"/>
<path d="M52.6424 18.7127C53.9711 18.5135 53.6524 15.4244 53.6379 14.7462C53.5775 11.9146 52.8528 9.41657 50.0776 8.15891C48.3611 7.38105 46.6388 7.46313 44.9974 8.37921C44.5474 8.63038 44.2219 9.05186 43.8772 9.42386C43.7364 9.57591 43.7165 10.0237 43.5277 9.93815C43.0545 9.72368 42.5628 7.407 42.1991 6.9041C40.8054 4.97709 38.4439 4.21856 36.171 4.04943C34.0156 3.88905 31.0416 4.12282 29.364 5.65393C28.373 6.55841 28.0345 8.0675 27.1152 8.90365C26.9381 9.06475 24.7489 7.57787 24.3973 7.46502C21.0298 6.38401 17.2276 7.8385 14.2817 9.41993C9.38203 12.0502 2.77316 16.8834 4.41615 23.4539C4.52458 23.8875 5.66766 25.4748 5.32476 25.8449C4.72254 26.4949 3.87349 26.4801 3.38067 27.4088C0.732105 32.3994 3.42472 39.6412 8.26366 42.053C9.90109 42.8691 12.2795 43.6735 13.8915 42.3655C14.7503 41.6687 14.4224 40.9766 14.9047 40.2439C15.0269 40.0582 17.3374 42.3108 17.5873 42.4881C20.4948 44.5499 25.3837 41.9491 27.2836 39.5604C28.2932 38.291 29.1346 36.9397 29.0715 35.2869C29.0194 33.9219 29.6217 34.6899 30.5063 35.2321C34.5371 37.7025 38.9486 36.2276 40.9363 31.8415C41.3151 31.0056 41.214 30.1357 41.1801 29.2483C41.1627 28.7921 42.5319 29.7146 42.997 29.8776C46.7803 31.2037 49.4029 29.5053 50.0068 25.642C50.2756 23.922 49.4736 23.7904 51.0675 23.7296C51.7148 23.7049 52.6138 23.0626 53.0291 22.6264C54.4873 21.0951 53.8622 19.8359 52.8613 18.2298" stroke="black" stroke-width="3" stroke-linecap="round"/>
<path d="M51.2282 31.3442C51.1146 30.6513 50.7607 31.5331 50.7728 31.8495C50.8235 33.1797 52.1138 34.1258 53.3374 33.3999C55.3225 32.222 53.0167 29.0227 50.7451 31.1253" stroke="black" stroke-width="3" stroke-linecap="round"/>
<path d="M112.44 68.3967C110.16 68.4837 115.888 61.8093 117.132 65.6074C118.782 70.6474 114.262 74.485 111.872 78.3845" stroke="#EF4423" stroke-width="3" stroke-linecap="round"/>
<path d="M111.273 68.9164C111.212 69.6231 108.51 68.1715 108.1 67.9961C106.988 67.5201 105.551 68.6042 105.034 69.5237C103.404 72.4272 108.507 75.7987 110.843 76.2889" stroke="#EF4423" stroke-width="3" stroke-linecap="round"/>
<path d="M78.2529 74.2107C77.0468 74.1064 79.389 70.4158 79.8722 70.0095C81.3179 68.7938 82.7078 70.7478 83.0334 72.0112C84.0237 75.8543 79.405 79.8749 77.1388 82.3211" stroke="#EF4423" stroke-width="3" stroke-linecap="round"/>
<path d="M77.8256 75.4137C77.3066 75.376 76.9411 74.4585 76.6159 74.1152C75.7867 73.2397 74.9719 72.8404 73.8069 72.7064C72.3511 72.539 70.6592 72.9792 70.4259 74.6151C70.1943 76.2383 71.4479 78.1543 72.7464 79.1142C74.0109 80.0489 76.0837 81.747 77.6049 82.0662" stroke="#EF4423" stroke-width="3" stroke-linecap="round"/>
</svg>
