<svg width="125" height="113" viewBox="0 0 125 113" fill="none" xmlns="http://www.w3.org/2000/svg">
<path d="M22.8258 66.867C23.0889 66.8341 23.4867 66.3707 23.7431 66.2425C24.4164 65.9058 25.1163 65.6034 25.8119 65.3252C26.7873 64.935 28.1049 64.5473 29.1493 64.3981C31.9992 63.991 34.7002 63.811 36.9756 66.0863C38.274 67.3847 38.9992 68.8318 39.6885 70.5167C40.5849 72.7078 42.4948 74.621 43.0161 76.9671C43.7731 80.3738 45.8205 83.4834 47.3489 86.5401C48.4507 88.7439 50.0773 90.7812 51.8085 92.5123C53.4783 94.1821 55.271 96.1555 55.8875 98.4845C56.3173 100.108 55.8713 100.799 55.4191 102.349C54.8313 104.364 53.8546 105.454 52.6867 107.052C52.0859 107.875 50.915 108.382 50.4033 109.277C50.3813 109.316 49.4692 107.053 49.1737 106.74C46.2577 103.653 44.7451 99.5198 42.7624 95.8595C41.5062 93.5404 39.4029 91.8885 37.9319 89.7019C36.4674 87.5249 35.2268 84.7132 33.365 82.8514C31.5997 81.0862 30.2886 78.6763 29.2859 76.4108C28.4885 74.6093 27.5417 72.7659 26.8658 70.907C26.4015 69.6303 25.7132 68.0217 24.797 67.0036C23.2911 65.3303 22.2988 68.004 22.2988 69.3457C22.2988 70.8857 22.783 72.3518 22.8258 73.8931C22.8724 75.5722 23.1704 77.2939 23.626 78.909C24.0982 80.583 24.8782 82.1703 25.6362 83.7297C26.43 85.3626 26.9253 87.1011 27.9197 88.648C30.7544 93.0575 34.553 96.6864 38.2442 100.378C39.5788 101.712 40.8159 103.275 42.0598 104.71C43.1429 105.96 44.4369 106.994 45.485 108.282C46.0085 108.925 48.6047 111.818 49.6128 111.034C50.1258 110.635 51.8085 109.457 51.8085 108.848" stroke="black" stroke-width="3" stroke-linecap="round"/>
<path d="M21.7721 78.1086C22.4005 78.0388 21.2022 78.2083 20.8548 78.4599C19.7244 79.2785 19.1466 80.734 18.1712 81.7095C16.4218 83.4589 15.9865 85.8989 16.4147 88.2964C16.871 90.852 18.0001 93.4316 19.8399 95.3225C21.612 97.1439 23.7136 98.4936 25.4998 100.28C28.1772 102.957 30.3484 105.959 32.8382 108.76C33.8648 109.915 36.3716 109.43 37.6198 108.984C39.6892 108.245 42.1916 107.407 43.9043 106.037" stroke="black" stroke-width="3" stroke-linecap="round"/>
<path d="M100.112 68.0962C98.8819 68.0962 98.1085 66.479 96.9499 66.125C95.206 65.5921 93.7171 64.7588 91.8463 64.7588C87.5025 64.7588 84.3787 68.4766 81.9219 71.7068C80.3163 73.8179 78.5177 75.7708 76.9255 77.8937C75.7268 79.492 74.8439 81.3779 74.0273 83.1926C72.9296 85.6318 72.0766 88.0556 70.602 90.2675C69.1484 92.4479 67.102 94.4106 66.1327 96.9032C65.4919 98.5508 65.0925 101.597 65.8594 103.227C66.6003 104.801 67.7402 105.786 69.0309 106.915C69.4679 107.298 70.3063 108 70.4361 108.584C70.5625 109.153 70.9533 110.835 70.9533 110.253" stroke="black" stroke-width="3" stroke-linecap="round"/>
<path d="M98.8823 69.3259C98.8586 69.5149 98.4236 69.6293 98.2577 69.765C97.1561 70.6663 96.2561 71.8743 95.4082 73.0146C94.0425 74.8512 92.5366 76.9181 91.417 78.8989C90.1038 81.2222 88.7376 83.5104 87.1526 85.6616C83.6535 90.4103 80.2731 95.2125 76.7891 99.987C75.2095 102.152 74.0729 104.478 72.8076 106.828C72.351 107.676 71.611 109.449 72.0464 110.429C72.7353 111.978 73.9725 110.921 75.0813 110.429C76.4651 109.814 78.0428 109.463 79.3458 108.672C81.4238 107.41 82.5806 106.32 83.6883 104.105C84.7462 101.989 85.9312 100.102 87.2892 98.1719C88.5188 96.4246 90.1053 94.9792 91.0755 93.039C91.8952 91.3995 93.2215 89.6031 94.4909 88.2963C96.2991 86.4349 97.6455 84.2851 99.2336 82.2558C100.781 80.2786 101.625 78.068 102.747 75.825C103.583 74.153 103.907 72.2209 103.449 70.3895C102.776 67.6972 99.6371 68.1039 98.1796 69.8528" stroke="black" stroke-width="3" stroke-linecap="round"/>
<path d="M102.221 80.5676C102.656 80.5676 103.558 81.8742 103.86 82.2168C104.446 82.8812 104.68 84.0295 104.68 84.8906C104.68 88.0524 102.792 90.7053 101.42 93.4098C99.3281 97.5348 95.6271 100.305 92.9013 103.939C91.1827 106.231 89.4541 108.968 87.0365 110.507C85.7894 111.3 85.0798 110.68 83.9528 110.116C83.3172 109.799 83.0326 109.157 82.5475 108.672C81.9408 108.065 81.2558 107.69 80.791 106.916" stroke="black" stroke-width="3" stroke-linecap="round"/>
<path d="M102.746 77.0545C102.818 77.6268 107.208 77.6194 107.947 77.5717C110.957 77.3775 115.139 76.4305 117.316 74.2538C119.779 71.7903 127.211 63.1849 119.784 62.124" stroke="black" stroke-width="3" stroke-linecap="round"/>
<path d="M22.6493 74.2441C19.7539 74.6061 17.253 75.9202 14.179 75.2981C11.037 74.6622 8.33027 74.3689 6.17703 71.785C5.32549 70.7632 4.52891 69.6913 3.67885 68.6623C2.88207 67.6978 1.97845 67.0364 2.00039 65.6762C2.01532 64.7507 2.58916 63.0578 3.1519 62.3388C4.00674 61.2465 5.61955 61.2608 6.8406 60.8945" stroke="black" stroke-width="3" stroke-linecap="round"/>
<path d="M96.247 103.403C95.2347 103.403 95.8531 103.865 96.5983 104.105C98.7141 104.787 100.471 104.042 101.78 102.349C104.188 99.2324 105.665 95.9481 107.489 92.5024C109.275 89.1283 110.604 85.2695 111.958 81.6998C113.319 78.1109 114.846 74.502 115.666 70.7508C116.236 68.1444 116.39 65.4621 116.837 62.8269C117.273 60.2641 117.569 57.4593 117.111 54.8835C116.702 52.586 116.526 50.3302 115.881 48.072C115.3 46.0394 114.391 44.1259 113.812 42.0999" stroke="black" stroke-width="3" stroke-linecap="round"/>
<path d="M114.165 44.2078C113.971 45.7636 114.201 41.0717 114.165 39.5042C114.136 38.2296 113.558 36.8228 113.326 35.5618C113.043 34.019 112.881 32.4665 112.487 30.946C111.78 28.2188 110.341 26.6634 108.379 24.7006C105.228 21.5499 102.112 18.3419 98.3566 15.9277C91.5223 11.5342 85.075 6.56152 77.1124 4.25657C74.9038 3.61724 72.7015 3.00217 70.4278 2.65617C68.6573 2.38675 66.5722 1.76942 64.7679 2.09018C62.3165 2.526 59.7869 2.70581 57.3515 3.19289C54.2082 3.82154 51.0041 3.65534 47.8369 4.4127C44.921 5.10999 41.7182 5.67067 38.947 6.83281C37.3936 7.48423 35.8284 8.10649 34.2434 8.68692C32.0955 9.47347 30.4273 10.238 28.5249 11.4974C25.4512 13.532 22.2422 16.7255 20.4644 19.958C18.1463 24.1727 15.5651 28.2468 13.3797 32.5367C12.102 35.0447 11.2568 37.7131 10.2668 40.3532C9.42782 42.5904 9.36146 45.077 8.6371 47.3305C7.51042 50.8357 6.49023 54.653 6.49023 58.3478C6.49023 61.4308 7.3685 64.3902 7.3685 67.433C7.3685 69.1968 8.16413 70.9262 8.46145 72.644C8.77881 74.4777 9.65199 76.5122 9.65199 78.3625C9.65199 79.3956 10.2996 80.4014 10.3546 81.4462C10.4152 82.5982 10.9501 84.3658 11.5061 85.3984C12.6342 87.4934 13.9575 89.5163 14.9606 91.634C15.9239 93.6677 16.3694 95.8912 17.4685 97.8697C18.6229 99.9475 19.8861 102.46 21.6354 104.144C22.8301 105.295 23.9661 105.686 25.5486 105.686C26.0433 105.686 28.1689 105.54 28.0955 105.686" stroke="black" stroke-width="3" stroke-linecap="round"/>
</svg>
