<svg xmlns="http://www.w3.org/2000/svg" width="33" height="31" fill="none" style=""><rect id="backgroundrect" width="100%" height="100%" x="0" y="0" fill="none" stroke="none"/>

<defs>
<filter id="filter0_d_933_1530" x="0.5" y="0.5" width="32" height="30" filterUnits="userSpaceOnUse" color-interpolation-filters="sRGB">
<feFlood flood-opacity="0" result="BackgroundImageFix"/>
<feColorMatrix in="SourceAlpha" type="matrix" values="0 0 0 0 0 0 0 0 0 0 0 0 0 0 0 0 0 0 127 0" result="hardAlpha"/>
<feOffset dy="4"/>
<feGaussianBlur stdDeviation="2"/>
<feComposite in2="hardAlpha" operator="out"/>
<feColorMatrix type="matrix" values="0 0 0 0 0 0 0 0 0 0 0 0 0 0 0 0 0 0 0.25 0"/>
<feBlend mode="normal" in2="BackgroundImageFix" result="effect1_dropShadow_933_1530"/>
<feBlend mode="normal" in="SourceGraphic" in2="effect1_dropShadow_933_1530" result="shape"/>
</filter>
</defs>
<g class="currentLayer" style=""><title>Layer 1</title><g filter="url(#filter0_d_933_1530)" id="svg_1" class="" fill="#eb1a1a" fill-opacity="1">
<path d="M16.5 4.39549L16.1106 4.70918C16.2055 4.82699 16.3487 4.89549 16.5 4.89549C16.6513 4.89549 16.7944 4.82699 16.8893 4.70918L16.5 4.39549ZM5 7.68156L4.5 7.67425V7.68156H5ZM28 7.68156H28.5001L28.4999 7.67425L28 7.68156ZM5.49995 7.68886C5.5362 5.20777 6.93667 2.8533 8.90853 1.9238C9.88268 1.4646 11.0086 1.34474 12.2171 1.73277C13.4327 2.12311 14.7649 3.03891 16.1106 4.70918L16.8893 4.08179C15.4569 2.30389 13.9722 1.24606 12.5228 0.78065C11.0661 0.312925 9.6788 0.455178 8.48214 1.01926C6.11237 2.13632 4.54099 4.87307 4.50005 7.67425L5.49995 7.68886ZM16.5 21.5C16.3247 21.5 16.0122 21.4296 15.5654 21.2451C15.1314 21.066 14.6119 20.7967 14.0379 20.4429C12.8903 19.7357 11.552 18.7074 10.2788 17.4359C7.71912 14.8797 5.5 11.4206 5.5 7.68156H4.5C4.5 11.8063 6.93154 15.5065 9.57218 18.1435C10.8992 19.4687 12.2984 20.5455 13.5132 21.2942C14.1204 21.6685 14.6883 21.9649 15.1838 22.1695C15.6665 22.3687 16.1256 22.5 16.5 22.5V21.5ZM28.4999 7.67425C28.459 4.87306 26.8876 2.13632 24.5178 1.01926C23.3212 0.455178 21.9338 0.312925 20.4772 0.78065C19.0277 1.24606 17.5431 2.30389 16.1106 4.08179L16.8893 4.70918C18.235 3.03891 19.5673 2.12311 20.7829 1.73277C21.9914 1.34474 23.1173 1.4646 24.0915 1.9238C26.0633 2.8533 27.4638 5.20778 27.5001 7.68886L28.4999 7.67425ZM16.5 22.5C16.8744 22.5 17.3335 22.3687 17.8162 22.1695C18.3117 21.9649 18.8796 21.6685 19.4868 21.2942C20.7016 20.5455 22.1008 19.4687 23.4278 18.1435C26.0684 15.5065 28.5 11.8063 28.5 7.68156H27.5C27.5 11.4206 25.2809 14.8797 22.7212 17.4359C21.448 18.7074 20.1096 19.7357 18.9621 20.4429C18.3881 20.7967 17.8686 21.066 17.4346 21.2451C16.9878 21.4296 16.6752 21.5 16.5 21.5V22.5Z" fill="#eb1a1a" id="svg_2" fill-opacity="1"/>
</g></g></svg>