<svg width="429" height="243" viewBox="0 0 429 243" fill="none" xmlns="http://www.w3.org/2000/svg">
<path d="M-49.1686 66.1756C-46.6457 54.5092 -56.2422 63.4748 -58.1133 69.5923C-68.9 104.859 -69.9115 149.056 -62.2723 185.1C-58.0377 205.081 -49.5323 224.865 -30.2937 234.226C18.0287 257.74 78.4005 213.315 106.082 176.52C130.79 143.676 146.77 86.1882 116.921 50.9079C109.313 41.9158 98.5485 35.8589 86.6032 35.916C62.8928 36.0294 48.3419 61.537 39.1893 80.3871C22.5984 114.556 26.6327 166.618 44.2979 199.343C64.024 235.887 104.222 240.647 141.128 229.173C190.165 213.928 232.787 171.253 250.409 123.196C262.069 91.3965 267.665 49.9357 248.065 19.7336C237.287 3.1241 213.129 -4.81134 196.83 8.21841C175.611 25.1812 167.664 66.5063 166.025 91.8448C163.775 126.641 174.916 161.596 200.442 186.281C255.605 239.627 355.147 195.082 391.462 141.195C404.979 121.139 416.478 99.7153 419.813 75.4393C420.718 68.8513 419.611 56.7018 427.461 64.8418" stroke="black" stroke-width="3" stroke-linecap="round"/>
</svg>
