<svg width="261" height="57" viewBox="0 0 261 57" fill="none" xmlns="http://www.w3.org/2000/svg">
<path d="M66.7126 8.46693C69.845 8.46693 72.7795 8.66748 75.5162 9.06494C78.2492 9.46604 80.2092 9.87444 81.3925 10.2901L83.1144 10.9173V27.2386C80.0187 25.8311 75.7763 25.1274 70.3835 25.1274V26.6115C75.3513 26.9907 78.9269 27.9825 81.1068 29.5796C83.2866 31.1768 84.3747 33.5943 84.3747 36.8287C84.3747 40.7085 82.7884 43.7168 79.6157 45.8463C76.4431 47.9794 71.5485 49.0441 64.9358 49.0441C61.1513 49.0441 57.8065 48.8254 54.9012 48.3878C51.996 47.9502 50.047 47.5236 49.0542 47.1043L47.5045 46.4187V32.2087C47.8489 32.3618 48.3654 32.5697 49.0542 32.8359C49.7429 33.1021 51.2816 33.4448 53.6703 33.8642C56.0589 34.2835 58.6308 34.4913 61.3821 34.4913V33.1203C56.7184 32.7775 53.2013 31.7894 50.831 30.1521C48.4607 28.5149 47.2773 25.6634 47.2773 21.5903C47.2773 17.521 48.9003 14.3121 52.1499 11.9748C55.3995 9.63742 60.2537 8.46693 66.7126 8.46693Z" fill="#086562" stroke="#100F26" stroke-width="0.133945" stroke-miterlimit="10"/>
<path d="M106.336 8.46693C109.468 8.46693 112.403 8.66748 115.139 9.06494C117.872 9.46604 119.832 9.87444 121.016 10.2901L122.737 10.9173V27.2386C119.642 25.8311 115.399 25.1274 110.007 25.1274V26.6115C114.974 26.9907 118.55 27.9825 120.73 29.5796C122.91 31.1768 123.998 33.5943 123.998 36.8287C123.998 40.7085 122.411 43.7168 119.239 45.8463C116.066 47.9794 111.172 49.0441 104.559 49.0441C100.774 49.0441 97.4295 48.8254 94.5243 48.3878C91.6191 47.9502 89.67 47.5236 88.6772 47.1043L87.1275 46.4187V32.2087C87.4719 32.3618 87.9885 32.5697 88.6772 32.8359C89.366 33.1021 90.9047 33.4448 93.2933 33.8642C95.682 34.2835 98.2538 34.4913 101.005 34.4913V33.1203C96.3414 32.7775 92.8244 31.7894 90.4541 30.1521C88.0837 28.5149 86.9004 25.6634 86.9004 21.5903C86.9004 17.521 88.5233 14.3121 91.7729 11.9748C95.0225 9.63742 99.8768 8.46693 106.336 8.46693Z" fill="#086562" stroke="#100F26" stroke-width="0.133945" stroke-miterlimit="10"/>
<path d="M139.128 37.0912C141.78 36.4823 143.945 35.6874 145.616 34.7065L145.238 33.0802C143.52 34.072 141.762 34.7721 139.959 35.1878C133.797 36.6026 129.214 36.3875 126.217 34.5388C123.217 32.6937 121.136 29.2478 119.963 24.1976C117.593 13.9584 123.609 7.18706 138.021 3.87977C145.938 2.06386 152.214 2.81866 156.856 6.15148C161.497 9.48429 164.813 15.4425 166.802 24.0298C170.616 40.497 164.014 50.6814 146.997 54.5867C143.487 55.3926 140.15 55.8484 136.981 55.9541C133.808 56.0599 131.496 55.9833 130.038 55.7207L127.906 55.2431L126.404 37.7731C129.577 38.5389 133.819 38.3091 139.128 37.0912ZM140.359 24.956L141.033 27.8585C141.175 28.4711 141.48 28.9233 141.945 29.215C142.41 29.5067 142.93 29.5833 143.498 29.4557C144.872 29.1384 145.403 28.2998 145.085 26.9287L144.41 24.0262C144.268 23.4136 143.963 22.9614 143.498 22.6697C143.029 22.378 142.513 22.2978 141.945 22.429C141.377 22.5603 140.934 22.8593 140.619 23.3297C140.304 23.8037 140.219 24.3434 140.359 24.956Z" fill="#F4F4F4" stroke="#100F26" stroke-width="0.133945" stroke-miterlimit="10"/>
<path d="M210.809 9.03944H230.533V33.8095H236.38V48.4753H210.809V9.03944Z" fill="#EF4423" stroke="#100F26" stroke-width="0.133945" stroke-miterlimit="10"/>
<path d="M239.648 48.4753V9.03944H259.373V48.4753H239.648Z" fill="#EF4423" stroke="#100F26" stroke-width="0.133945" stroke-miterlimit="10"/>
<path d="M205.98 18.5092C205.017 16.7954 204.005 15.1107 203.02 13.4625C202.866 13.2036 202.851 12.952 202.914 12.7296C199.756 10.374 195.235 9.1853 189.326 9.1853H184.545C177.631 9.1853 172.587 10.797 169.421 14.0241C166.252 17.2512 164.666 22.316 164.666 29.2223C164.666 31.9863 164.933 34.4549 165.446 36.65C166.505 35.9426 167.67 36.7339 168.396 37.6163C169.971 39.5307 169.67 42.054 171.858 43.746C172.902 44.5555 174.334 44.9821 175.613 45.54C178.525 45.6166 181.427 46.1708 184.178 47.1189C184.823 47.3413 185.014 48.0013 184.808 48.4972C184.922 48.5191 185.035 48.5373 185.149 48.5556C187.281 47.9393 189.641 47.7205 192.022 47.5966C191.982 47.159 192.209 46.7032 192.733 46.5428C193.601 46.2766 194.469 46.0323 195.337 45.777C195.744 45.1134 196.162 44.4497 196.612 43.8079C196.466 43.4871 196.488 43.1042 196.832 42.7687C197.33 42.2801 197.884 41.8425 198.451 41.4159C199.803 39.837 201.338 38.4222 203.101 37.3137C203.526 37.0475 204.027 37.1934 204.343 37.5106C204.936 37.0767 205.57 36.6865 206.248 36.3401C205.823 30.4074 205.94 24.4637 205.98 18.5092ZM188.805 33.1896C188.805 34.2945 187.889 35.1988 186.772 35.1988C185.655 35.1988 184.739 34.2945 184.739 33.1896V29.1713C184.739 28.0664 185.655 27.1621 186.772 27.1621C187.889 27.1621 188.805 28.0664 188.805 29.1713V33.1896Z" fill="#F4F4F4" stroke="#100F26" stroke-width="0.133945" stroke-miterlimit="10"/>
<path d="M203.402 13.025C200.251 9.80156 195.221 8.1862 188.304 8.1862H183.523C176.61 8.1862 171.565 9.79791 168.4 13.025C165.231 16.2521 163.645 21.3169 163.645 28.2232C163.645 35.1295 165.238 40.26 168.426 43.6183C171.613 46.9767 176.647 48.654 183.523 48.654H188.304C195.181 48.654 200.203 46.973 203.372 43.6183C206.541 40.26 208.128 35.1295 208.128 28.2232C208.128 21.3169 206.552 16.2484 203.402 13.025ZM187.787 32.1868C187.787 33.2917 186.872 34.196 185.754 34.196C184.637 34.196 183.721 33.2917 183.721 32.1868V28.1685C183.721 27.0637 184.637 26.1593 185.754 26.1593C186.872 26.1593 187.787 27.0637 187.787 28.1685V32.1868Z" fill="#EF4423" stroke="#100F26" stroke-width="0.133945" stroke-miterlimit="10"/>
<path d="M140.106 36.114C142.758 35.505 144.924 34.7101 146.594 33.7292L146.217 32.1029C144.499 33.0948 142.74 33.7949 140.938 34.2106C134.776 35.6254 130.192 35.4102 127.196 33.5615C124.195 31.7164 122.114 28.2706 120.942 23.2203C118.572 12.9812 124.587 6.20979 139 2.9025C146.917 1.08659 153.192 1.8414 157.834 5.17422C162.476 8.50703 165.791 14.4653 167.781 23.0526C171.594 39.5197 164.993 49.7042 147.975 53.6095C144.466 54.4153 141.128 54.8711 137.959 54.9769C134.787 55.0826 132.475 55.006 131.017 54.7435L128.885 54.2658L127.382 36.7959C130.559 37.5616 134.798 37.3355 140.106 36.114ZM141.341 23.9824L142.015 26.8849C142.158 27.4975 142.462 27.9497 142.927 28.2414C143.392 28.5331 143.913 28.6097 144.48 28.4821C145.854 28.1648 146.385 27.3261 146.067 25.9551L145.393 23.0526C145.25 22.44 144.946 21.9878 144.48 21.6961C144.011 21.4044 143.495 21.3242 142.927 21.4554C142.359 21.5867 141.916 21.8857 141.601 22.3561C141.286 22.8265 141.198 23.3698 141.341 23.9824Z" fill="#EF4423" stroke="#100F26" stroke-width="0.133945" stroke-miterlimit="10"/>
<path d="M43.0142 18.5092C42.058 16.7954 41.0542 15.1107 40.076 13.4625C39.9221 13.2036 39.9075 12.952 39.9698 12.7296C36.8337 10.374 32.3459 9.1853 26.4841 9.1853H21.7362C14.8743 9.1853 9.86984 10.797 6.72649 14.0241C3.57949 17.2512 2.00781 22.316 2.00781 29.2223C2.00781 31.9863 2.27159 34.4549 2.78083 36.65C3.83227 35.9426 4.98996 36.7339 5.70802 37.6163C7.27237 39.5307 6.97562 42.054 9.14079 43.746C10.1776 44.5555 11.599 44.9821 12.8703 45.54C15.7609 45.6166 18.6404 46.1708 21.3698 47.1189C22.0109 47.3413 22.1978 48.0013 21.9963 48.4972C22.1098 48.5191 22.2234 48.5373 22.3333 48.5556C24.4472 47.9393 26.7919 47.7205 29.1549 47.5966C29.1146 47.159 29.3381 46.7032 29.8583 46.5428C30.7192 46.2766 31.5838 46.0323 32.4448 45.777C32.8478 45.1134 33.2654 44.4497 33.7087 43.8079C33.5622 43.4871 33.5878 43.1042 33.9249 42.7687C34.4194 42.2801 34.969 41.8425 35.5295 41.4159C36.8704 39.837 38.3944 38.4222 40.1456 37.3137C40.5669 37.0475 41.0652 37.1934 41.3802 37.5106C41.9701 37.0767 42.6002 36.6865 43.2706 36.3401C42.8567 30.4074 42.9739 24.4637 43.0142 18.5092ZM25.9676 33.1896C25.9676 34.2945 25.059 35.1988 23.9489 35.1988C22.8389 35.1988 21.9303 34.2945 21.9303 33.1896V29.1713C21.9303 28.0664 22.8389 27.1621 23.9489 27.1621C25.059 27.1621 25.9676 28.0664 25.9676 29.1713V33.1896Z" fill="#F4F4F4" stroke="#100F26" stroke-width="0.133945" stroke-miterlimit="10"/>
<path d="M40.4567 13.025C37.3317 9.80156 32.3382 8.1862 25.4727 8.1862H20.7283C13.8665 8.1862 8.86203 9.79791 5.71868 13.025C2.57167 16.2521 1 21.3169 1 28.2232C1 35.1295 2.58266 40.26 5.74799 43.6183C8.91332 46.9767 13.9068 48.654 20.732 48.654H25.4763C32.3016 48.654 37.284 46.973 40.431 43.6183C43.578 40.26 45.1497 35.1295 45.1497 28.2232C45.1461 21.3169 43.5817 16.2484 40.4567 13.025ZM24.9598 32.1868C24.9598 33.2917 24.0512 34.196 22.9411 34.196C21.8311 34.196 20.9225 33.2917 20.9225 32.1868V28.1685C20.9225 27.0637 21.8311 26.1593 22.9411 26.1593C24.0512 26.1593 24.9598 27.0637 24.9598 28.1685V32.1868Z" fill="#086562" stroke="#100F26" stroke-width="0.133945" stroke-miterlimit="10"/>
<path d="M67.3396 7.16153C70.4719 7.16153 73.4064 7.36209 76.1431 7.75954C78.8761 8.16065 80.8362 8.56905 82.0195 8.98474L83.7414 9.61192V25.9332C80.6456 24.5257 76.4032 23.822 71.0104 23.822V25.3061C75.9783 25.6853 79.5539 26.6771 81.7337 28.2742C83.9136 29.8714 85.0016 32.2889 85.0016 35.5233C85.0016 39.4031 83.4153 42.4114 80.2426 44.5409C77.07 46.674 72.1755 47.7388 65.5627 47.7388C61.7782 47.7388 58.4334 47.52 55.5282 47.0824C52.623 46.6448 50.674 46.2182 49.6811 45.7989L48.1314 45.1133V30.9033C48.4758 31.0564 48.9924 31.2643 49.6811 31.5305C50.3699 31.7967 51.9086 32.1394 54.2972 32.5588C56.6859 32.9781 59.2577 33.1859 62.0091 33.1859V31.8149C57.3453 31.4721 53.8283 30.484 51.458 28.8467C49.0876 27.2095 47.9043 24.358 47.9043 20.285C47.9043 16.2156 49.5273 13.0067 52.7768 10.6694C56.0264 8.32838 60.8807 7.16153 67.3396 7.16153Z" fill="#3FA692" stroke="#100F26" stroke-width="0.133945" stroke-miterlimit="10"/>
<path d="M106.961 7.16153C110.093 7.16153 113.028 7.36209 115.764 7.75954C118.497 8.16065 120.457 8.56905 121.641 8.98474L123.362 9.61192V25.9332C120.267 24.5257 116.024 23.822 110.632 23.822V25.3061C115.599 25.6853 119.175 26.6771 121.355 28.2742C123.535 29.8714 124.623 32.2889 124.623 35.5233C124.623 39.4031 123.036 42.4114 119.864 44.5409C116.691 46.674 111.797 47.7388 105.184 47.7388C101.399 47.7388 98.0545 47.52 95.1493 47.0824C92.2441 46.6448 90.2951 46.2182 89.3022 45.7989L87.7525 45.1133V30.9033C88.0969 31.0564 88.6135 31.2643 89.3022 31.5305C89.991 31.7967 91.5297 32.1394 93.9183 32.5588C96.307 32.9781 98.8788 33.1859 101.63 33.1859V31.8149C96.9664 31.4721 93.4494 30.484 91.0791 28.8467C88.7087 27.2095 87.5254 24.358 87.5254 20.285C87.5254 16.2156 89.1484 13.0067 92.3979 10.6694C95.6475 8.32838 100.502 7.16153 106.961 7.16153Z" fill="#3FA692" stroke="#100F26" stroke-width="0.133945" stroke-miterlimit="10"/>
<path d="M211.436 7.73039H231.16V32.5004H237.007V47.1663H211.436V7.73039Z" fill="#F8962F" stroke="#100F26" stroke-width="0.133945" stroke-miterlimit="10"/>
<path d="M240.275 47.1663V7.73039H260V47.1663H240.275Z" fill="#F8962F" stroke="#100F26" stroke-width="0.133945" stroke-miterlimit="10"/>
<path d="M204.029 11.7159C200.878 8.49244 195.848 6.87709 188.931 6.87709H184.15C177.237 6.87709 172.192 8.4888 169.027 11.7159C165.858 14.9429 164.271 20.0078 164.271 26.9141C164.271 33.8204 165.865 38.9509 169.052 42.3092C172.24 45.6676 177.273 47.3449 184.15 47.3449H188.931C195.808 47.3449 200.83 45.6639 203.999 42.3092C207.168 38.9509 208.755 33.8204 208.755 26.9141C208.755 20.0078 207.179 14.9429 204.029 11.7159ZM188.414 30.8777C188.414 31.9826 187.499 32.8869 186.381 32.8869C185.264 32.8869 184.348 31.9826 184.348 30.8777V26.8594C184.348 25.7545 185.264 24.8502 186.381 24.8502C187.499 24.8502 188.414 25.7545 188.414 26.8594V30.8777Z" fill="#F8962F" stroke="#100F26" stroke-width="0.133945" stroke-miterlimit="10"/>
<path d="M141.098 35.1732C143.751 34.5643 145.916 33.7694 147.586 32.7885L147.209 31.1622C145.491 32.154 143.732 32.8541 141.93 33.2698C135.768 34.6846 131.185 34.4695 128.188 32.6207C125.187 30.7757 123.106 27.3298 121.934 22.2795C119.564 12.0404 125.579 5.26904 139.992 1.96175C147.909 0.14584 154.185 0.90065 158.826 4.23347C163.468 7.56628 166.784 13.5245 168.773 22.1118C172.587 38.579 165.985 48.7634 148.968 52.6687C145.458 53.4745 142.12 53.9304 138.951 54.0361C135.779 54.1418 133.467 54.0653 132.009 53.8027L129.877 53.3251L128.375 35.8551C131.551 36.6209 135.79 36.3911 141.098 35.1732ZM142.333 23.038L143.007 25.9405C143.15 26.5531 143.454 27.0053 143.919 27.297C144.384 27.5887 144.905 27.6653 145.473 27.5377C146.846 27.2204 147.378 26.3817 147.059 25.0107L146.385 22.1082C146.242 21.4956 145.938 21.0434 145.473 20.7517C145.004 20.46 144.487 20.3798 143.919 20.511C143.351 20.6423 142.908 20.9413 142.593 21.4117C142.278 21.8857 142.19 22.4254 142.333 23.038Z" fill="#F8962F" stroke="#100F26" stroke-width="0.133945" stroke-miterlimit="10"/>
<path d="M41.0836 11.7159C37.9586 8.49244 32.9652 6.87709 26.0996 6.87709H21.3553C14.4934 6.87709 9.48898 8.4888 6.34563 11.7159C3.19863 14.9429 1.62695 20.0078 1.62695 26.9141C1.62695 33.8204 3.20962 38.9509 6.37494 42.3092C9.54027 45.6676 14.5337 47.3449 21.359 47.3449H26.1033C32.9285 47.3449 37.911 45.6639 41.058 42.3092C44.205 38.9509 45.7767 33.8204 45.7767 26.9141C45.773 20.0078 44.2087 14.9429 41.0836 11.7159ZM25.5867 30.8777C25.5867 31.9826 24.6782 32.8869 23.5681 32.8869C22.458 32.8869 21.5495 31.9826 21.5495 30.8777V26.8594C21.5495 25.7545 22.458 24.8502 23.5681 24.8502C24.6782 24.8502 25.5867 25.7545 25.5867 26.8594V30.8777Z" fill="#3FA692" stroke="#100F26" stroke-width="0.133945" stroke-miterlimit="10"/>
</svg>
