<svg width="79" height="110" viewBox="0 0 79 110" fill="none" xmlns="http://www.w3.org/2000/svg">
<path d="M10.3828 24.5729C9.97338 25.0335 10.1893 24.1411 10.2103 23.7105C10.2629 22.6337 10.5096 21.3247 10.9002 20.2994C11.572 18.536 12.3568 17.1276 13.4106 15.5948C15.3342 12.7969 17.8721 9.70485 20.5586 7.63236C22.114 6.43247 24.13 5.72344 26.0011 5.21776C27.5055 4.81117 28.9516 3.99229 30.4853 3.71342C34.3987 3.0019 38.3425 1.46429 42.4242 2.18992C43.8692 2.44681 45.6837 2.61526 46.9851 3.3589C48.4456 4.19351 50.3656 4.25115 51.6993 5.34232C52.8279 6.2657 54.2958 6.698 55.4075 7.67069C56.0337 8.21867 56.699 8.73439 57.2184 9.3954C57.7774 10.1069 58.2806 11.0242 58.8856 11.6759C59.7579 12.6152 60.5214 13.9005 61.2619 14.9528C62.2659 16.3795 63.5377 17.6522 64.5389 19.0538C65.8239 20.8529 69.1749 24.7154 67.4709 26.9875" stroke="black" stroke-width="3" stroke-linecap="round"/>
<path d="M10.209 25.4353C10.3923 25.4582 10.3815 31.8895 10.3815 32.7653C10.3815 35.5413 10.8989 38.3476 10.8989 41.1302C10.8989 45.6267 10.7264 50.1078 10.7264 54.583" stroke="black" stroke-width="3" stroke-linecap="round"/>
<path d="M67.4713 26.47C67.4713 27.8304 67.988 29.2416 67.5576 30.6189C67.1949 31.7794 67.4713 33.3574 67.4713 34.5665C67.4713 36.7383 67.1264 38.9465 67.1264 41.13C67.1264 43.798 66.7486 46.586 67.0881 49.217C67.426 51.8358 67.4713 54.4865 67.4713 57.1316C67.4713 58.1633 67.7786 59.2641 67.6342 60.2744C67.4449 61.5999 67.2341 62.9788 67.1168 64.3275C66.9403 66.3572 65.9191 68.344 65.9191 70.364C65.9191 72.1333 65.1492 73.8676 65.0567 75.6243C65.0073 76.563 64.2101 78.6348 63.332 79.0738" stroke="black" stroke-width="3" stroke-linecap="round"/>
<path d="M10.0383 54.4106C9.73618 56.8278 10.9007 59.3896 10.9007 61.9036C10.9007 62.8129 11.0995 63.6634 11.0732 64.5865C11.0377 65.8282 10.7282 67.098 10.7282 68.3425C10.7282 69.7756 10.3869 71.6408 10.9869 72.9609C11.7103 74.5524 12.3544 75.4262 13.6602 76.6595C14.7055 77.6467 16.2735 78.3094 17.378 79.2561C18.4625 80.1857 18.8753 81.6468 19.8692 82.696C22.1927 85.1485 25.1267 86.4723 28.1478 87.8318C31.5232 89.3507 35.6307 90.4572 39.3202 90.4572C40.2498 90.4572 41.1105 90.2847 42.0414 90.2847C42.7756 90.2847 44.1238 90.3251 44.7818 90.026C45.8297 89.5497 47.7022 89.2825 48.8444 89.2499C50.3466 89.207 52.5655 88.5807 53.7503 87.6114C55.3499 86.3027 57.6152 85.8848 59.3268 84.7656C60.7987 83.8033 62.1681 82.9976 63.4183 81.7474C63.8182 81.3474 64.3348 80.5136 64.3668 79.9364C64.4319 78.7651 65.3166 77.811 65.9191 76.8319" stroke="black" stroke-width="3" stroke-linecap="round"/>
<path d="M46.0834 44.0619C46.0834 45.1188 44.8089 42.3727 44.1095 41.5802C43.5117 40.9026 42.6042 39.766 41.7333 39.4434C39.9252 38.7738 37.7091 38.588 36.0034 39.6734C35.0148 40.3025 34.573 41.3998 33.7996 42.203C32.9929 43.0407 32.3024 44.0415 31.8449 45.0871C31.0905 46.8114 29.858 49.9469 31.4616 51.6123C33.607 53.8402 35.7711 54.828 38.8204 55.5408C41.0206 56.0551 44.7652 55.7242 46.3421 53.7969C47.2139 52.7314 47.9898 51.5797 48.498 50.3092C48.9245 49.2429 48.8429 48.2199 48.8429 47.0801C48.8429 45.0986 47.093 43.6003 45.566 42.5096" stroke="black" stroke-width="3" stroke-linecap="round"/>
<path d="M40.7369 48.201C39.4648 48.201 35.7471 49.0634 37.0192 49.0634C37.7256 49.0634 39.0532 47.4032 39.3955 46.8213C39.5838 46.5011 39.9411 46.4591 40.0566 46.0547C40.2268 45.459 40.2215 46.6923 40.2195 46.7829C40.1896 48.1288 39.1 51.9921 39.7021 50.7881" stroke="black" stroke-width="3" stroke-linecap="round"/>
<path d="M44.0137 29.7473C44.1427 30.7793 58.4653 29.4023 60.5709 29.4023C63.218 29.4023 71.1517 29.7473 68.5046 29.7473" stroke="black" stroke-width="3" stroke-linecap="round"/>
<path d="M65.7461 42.1653C67.2039 42.1653 62.8442 42.5102 61.3864 42.5102C60.0142 42.5102 58.6705 42.3377 57.3046 42.3377C56.6383 42.3377 53.3281 42.3437 53.3281 41.8203" stroke="black" stroke-width="3" stroke-linecap="round"/>
<path d="M10.7266 30.0918C14.2225 30.0918 17.8168 29.5722 21.324 29.3924C24.6125 29.2237 27.8044 28.8845 31.0782 28.8845" stroke="black" stroke-width="3" stroke-linecap="round"/>
<path d="M10.5547 42.3374C15.0926 42.3374 19.6508 41.9924 24.1799 41.9924" stroke="black" stroke-width="3" stroke-linecap="round"/>
<path d="M11.244 54.7554C7.53044 54.7554 18.7396 54.9407 22.3684 54.1518C24.363 53.7182 30.5323 54.0655 28.4912 54.0655" stroke="black" stroke-width="3" stroke-linecap="round"/>
<path d="M51.6027 54.9282C51.2833 54.9282 50.6445 54.9282 50.6445 54.9282C50.6445 54.9282 53.0387 55.0842 54.2377 55.1103C56.9042 55.1682 59.5443 55.4456 62.2097 55.4456C63.2158 55.4456 64.2219 55.4456 65.228 55.4456C65.7861 55.4456 67.1569 55.5243 66.7802 55.2732" stroke="black" stroke-width="3" stroke-linecap="round"/>
<path d="M65.5726 67.1731C67.6108 67.1731 61.4897 67.2195 59.4594 67.039C56.8344 66.8057 54.2004 66.6557 51.5641 66.6557C50.0054 66.6557 48.4899 66.4833 46.9457 66.4833C46.5103 66.4833 44.235 66.7535 44.0137 66.3108" stroke="black" stroke-width="3" stroke-linecap="round"/>
<path d="M11.7624 67.1736C10.7172 67.1736 12.329 67.3381 12.7685 67.2502C14.5123 66.9014 16.3174 67.0647 18.0576 66.7424C21.0046 66.1966 24.1267 66.1734 27.1124 65.8321C30.14 65.4861 39.3007 65.9663 36.2534 65.9663" stroke="black" stroke-width="3" stroke-linecap="round"/>
<path d="M33.8385 4.91089C32.5244 4.91089 33.2705 10.0183 33.139 11.4648C33.0951 11.9479 32.6805 15.4562 33.1486 14.0519" stroke="black" stroke-width="3" stroke-linecap="round"/>
<path d="M43.3241 3.01392C43.3241 4.36494 43.2274 5.69636 43.3145 7.04784C43.3799 8.06132 43.5124 9.42267 43.2379 10.411C43.0944 10.9276 42.5929 13.7691 42.9792 13.1897" stroke="black" stroke-width="3" stroke-linecap="round"/>
<path d="M53.3288 6.80811C52.378 7.75886 52.4664 10.0174 52.4664 11.2924C52.4664 11.9354 52.1079 13.7342 52.1215 13.707" stroke="black" stroke-width="3" stroke-linecap="round"/>
<path d="M24.6973 7.32568C25.9941 7.16358 24.5232 14.3962 25.9046 15.0869" stroke="black" stroke-width="3" stroke-linecap="round"/>
<path d="M7.79532 57.1699C8.1846 57.2186 8.02876 57.4011 7.62285 57.2562C6.89054 56.9946 5.58902 57.3956 4.95912 57.7736C3.84524 58.4419 2.85887 59.1528 2.41037 60.4086C1.9109 61.8071 1.90545 63.7964 2.19 65.2761C2.53917 67.0918 1.98514 69.0217 2.31456 70.8335C2.59333 72.3668 2.83875 73.9911 3.40688 75.4519C4.04247 77.0862 5.47571 78.5125 6.41555 79.9745C7.85522 82.214 8.62654 84.5184 10.9381 86.1451C12.0054 86.8962 13.0259 87.6591 14.1672 88.301C15.0314 88.7872 16.1999 89.3534 16.9363 90.0162C18.2967 91.2406 20.2472 92.9347 21.9763 93.5997C23.5997 94.2241 25.3631 95.4367 27.1121 95.6311C28.0628 95.7367 30.2916 97.0184 31.079 96.4934" stroke="black" stroke-width="3" stroke-linecap="round"/>
<path d="M67.471 56.8248C67.4138 57.2828 67.4481 56.986 67.998 56.7385C69.0665 56.2577 70.4246 55.8229 71.6104 55.7899C73.2406 55.7446 74.1891 56.0987 75.4047 57.1793C78.251 59.7093 76.0403 64.4092 75.3664 67.3072C74.729 70.0482 73.548 72.6526 72.9901 75.4421C72.4805 77.9904 70.8663 79.9358 69.7132 82.1781C68.5959 84.3505 66.8537 85.8999 65.1427 87.6109C63.2302 89.5234 62.1353 92.0336 59.844 93.5612C57.7939 94.9279 55.4497 95.7828 53.1463 96.589C51.4182 97.1939 49.1154 97.7005 47.2919 97.7005C46.8094 97.7005 44.7979 97.9127 44.8773 97.873" stroke="black" stroke-width="3" stroke-linecap="round"/>
<path d="M44.876 92.0094C44.5613 89.4926 44.8562 97.119 44.3202 99.5981C43.9853 101.147 44.1861 102.925 44.1861 104.514C44.1861 106.18 42.2598 106.849 40.9187 107.436C39.7877 107.931 37.612 108.189 36.3865 107.838C33.027 106.878 31.7268 102.833 31.4328 99.5981C31.2236 97.2976 31.9406 94.989 31.9406 92.6992C31.9406 91.8025 32.2855 90.9481 32.2855 90.0355C32.2855 89.7941 32.458 88.5743 32.458 89.2498" stroke="black" stroke-width="3" stroke-linecap="round"/>
<path d="M52.9826 75.9694C52.9381 75.6134 52.6447 75.9825 52.6377 76.1802C52.5991 77.261 52.9514 78.369 53.2413 79.3997C53.6262 80.7681 53.8157 82.1775 54.1516 83.5582C54.3285 84.2856 54.7073 85.2377 54.7073 85.9728C54.7073 86.2429 54.7073 87.6953 54.7073 87.1801" stroke="black" stroke-width="3" stroke-linecap="round"/>
<path d="M43.3242 76.4866C43.3242 79.5569 44.1866 82.5481 44.1866 85.6276C44.1866 86.6149 44.2245 87.6112 44.1866 88.5979C44.1735 88.9385 44.0141 91.2398 44.0141 90.2843" stroke="black" stroke-width="3" stroke-linecap="round"/>
<path d="M34.0117 90.6289C34.0117 95.6962 34.8741 80.5187 34.8741 75.4514" stroke="black" stroke-width="3" stroke-linecap="round"/>
<path d="M24.3535 86.4899C25.198 86.2788 25.0434 79.8208 25.0434 78.6329C25.0434 77.9615 25.361 77.045 25.7333 76.4866" stroke="black" stroke-width="3" stroke-linecap="round"/>
</svg>
