<svg width="76" height="55" viewBox="0 0 76 55" fill="none" xmlns="http://www.w3.org/2000/svg">
<g opacity="0.05">
<path d="M38.6211 29.4978C38.68 29.5174 38.7259 29.5501 38.7717 29.5894C39.1777 29.321 39.5771 29.0459 39.9766 28.7578C39.5509 28.8495 39.0795 29.1311 38.6211 29.4978Z" stroke="#121113" stroke-miterlimit="10"/>
<path d="M38.7518 8.42562C35.7921 5.35453 31.0578 3.82227 24.5555 3.82227H20.0569C13.5546 3.82227 8.8137 5.35453 5.83429 8.42562C2.86143 11.4967 1.375 16.3161 1.375 22.8905C1.375 25.5228 1.62383 27.8736 2.10839 29.9625C3.10371 29.288 4.19725 30.0411 4.88481 30.8792C6.36469 32.6996 6.08312 35.1028 8.13924 36.7136C9.12146 37.4863 10.4704 37.8923 11.6687 38.4227C14.4058 38.4947 17.1364 39.0251 19.7229 39.9288C20.3319 40.1383 20.5087 40.7669 20.3188 41.2384C20.4236 41.258 20.5349 41.2777 20.6397 41.2973C22.6434 40.708 24.8632 40.505 27.1027 40.3806C27.0634 39.9615 27.2795 39.5293 27.7706 39.3787C28.5891 39.1233 29.4011 38.8942 30.2196 38.6519C30.5994 38.0167 30.9988 37.3881 31.4179 36.7791C31.2804 36.4713 31.3001 36.1112 31.6209 35.7903C31.8959 35.5219 32.1906 35.2665 32.4853 35.0242C32.5246 34.926 32.5638 34.8343 32.6031 34.7426C32.5115 34.7426 32.4263 34.7033 32.3609 34.6444C32.2102 34.8932 32.0596 35.1486 31.909 35.3975C31.706 35.7183 31.2477 35.4826 31.3328 35.1552C30.4881 35.6725 29.591 36.0392 28.7725 36.1439C28.432 36.1898 28.373 35.7052 28.6088 35.5481C29.1392 35.1945 29.735 34.8081 30.3637 34.4414C30.3899 34.4021 30.4161 34.3628 30.4488 34.3236C30.3047 34.2253 30.2262 34.0158 30.3833 33.8324C30.4619 33.7408 30.547 33.6425 30.6321 33.5378C30.4553 33.4657 30.3964 33.2562 30.475 33.086C30.547 32.9484 30.619 32.8044 30.7042 32.6603C30.6845 32.6276 30.6649 32.5948 30.6452 32.5621C30.4291 32.7258 30.2 32.8764 29.9577 33.0074C29.6958 33.1514 29.4404 32.9157 29.4862 32.6472C29.519 32.477 29.5779 32.2871 29.6565 32.1037C29.0278 31.8091 28.6481 31.0822 28.9624 30.0411C29.0082 29.8839 29.0933 29.6875 29.2046 29.4779C29.1785 29.4124 29.1588 29.3535 29.1326 29.288C29.0017 29.3273 28.8576 29.2946 28.7856 29.1505C28.3599 28.3124 28.17 27.4022 28.0915 26.4658C28.0391 26.2759 27.9932 26.0925 27.9474 25.9026C27.8099 26.1318 27.6658 26.361 27.5087 26.5836C27.3319 26.8325 26.9128 26.7604 26.9128 26.4199C26.9062 23.9971 26.6771 21.1552 26.9652 18.4705C26.8342 18.4115 26.736 18.2871 26.7753 18.1038C26.9652 17.3376 27.1878 16.5846 27.4497 15.8512C27.4628 15.8119 27.4694 15.7726 27.4825 15.7268C27.489 15.6417 27.4956 15.55 27.5021 15.4649C27.5087 15.3798 27.5414 15.3143 27.5872 15.2684C27.62 14.6202 27.7902 14.0177 28.0194 13.435C28.0391 13.1796 28.0587 12.9307 28.0915 12.6754C28.1111 12.4724 28.3337 12.3414 28.504 12.3611C28.576 12.2104 28.6546 12.0598 28.7266 11.9158C28.7659 11.7979 28.7987 11.68 28.8314 11.5622C28.8576 11.4574 28.9231 11.3919 29.0016 11.3592C29.0016 11.3526 29.0082 11.3461 29.0082 11.3395C29.1064 11.1366 29.316 11.1431 29.4535 11.2544C29.46 11.1955 29.4666 11.1366 29.4731 11.0842C29.4731 11.0776 29.4731 11.0711 29.4731 11.0645C29.4797 11.0383 29.4797 11.0056 29.4862 10.9794C29.5124 10.8157 29.6499 10.7502 29.7874 10.7568C29.8071 10.6585 29.8333 10.5669 29.8529 10.4686C29.8791 10.3377 29.9577 10.2722 30.0494 10.2526C30.0952 9.81382 30.1279 9.38165 30.1345 8.93637C30.1476 8.52384 30.7762 8.52384 30.7762 8.93637V10.6585C30.9072 10.4294 31.025 10.1936 31.1363 9.95134C31.228 9.74834 31.5096 9.76144 31.6471 9.89895C31.7977 9.10008 31.9811 8.3143 32.2823 7.60055C32.4198 7.27969 32.8978 7.29933 32.9109 7.68567C32.9829 9.80073 32.3216 11.7979 31.8894 13.8409C31.3721 16.2768 31.2149 18.7651 30.7697 21.2142C30.7238 21.4695 30.4815 21.4892 30.3113 21.3844C30.3113 22.1505 30.3178 22.9167 30.3178 23.6828C30.3506 23.8072 30.3833 23.9316 30.4095 24.0561C30.5536 24.0495 30.7238 24.1281 30.7762 24.2787C31.0774 25.1365 31.3786 26.0009 31.562 26.8849C32.0793 26.6229 32.6097 26.5836 33.0811 26.9307C33.3431 27.0944 33.4871 27.3432 33.5395 27.6444C33.5395 27.6575 33.5461 27.6641 33.5461 27.6772C33.5526 27.7034 33.5526 27.723 33.5526 27.7492C33.5723 27.8998 33.5657 28.0504 33.5461 28.2141C33.5264 28.3647 33.5002 28.5153 33.4609 28.6725C33.7753 28.5874 34.0896 28.5546 34.3711 28.6005C34.5872 28.6332 34.6527 28.9082 34.561 29.0719C34.489 29.2029 34.417 29.3339 34.3318 29.4648C34.4955 29.4845 34.6527 29.5238 34.8099 29.5892C34.9277 29.6416 35.0063 29.8315 34.9539 29.9494C34.9081 30.0607 34.8492 30.1786 34.7837 30.303C34.8361 30.2964 34.8884 30.2833 34.9408 30.2768C35.17 30.2506 35.2682 30.4667 35.2355 30.6566C35.3599 30.6369 35.4647 30.6828 35.5302 30.7548C35.923 30.5649 36.3421 30.4274 36.807 30.375C37.9792 28.9672 39.6948 27.6379 40.9782 28.26C41.214 28.3778 41.155 28.6856 40.9782 28.81C40.2186 29.3797 39.4329 29.9232 38.634 30.434C38.6012 30.506 38.5685 30.578 38.5292 30.6435C38.5816 30.6828 38.634 30.7221 38.6864 30.7745C39.2757 30.3357 39.9043 29.9428 40.5853 29.6023C40.8276 29.4779 41.1419 29.4583 41.4104 29.5434C41.6068 29.0588 41.8164 28.5743 42.0063 28.0897C42.1765 27.651 42.5563 27.4611 42.9296 27.448C43.1129 26.027 43.2046 24.5079 43.2046 22.8839C43.1915 16.3161 41.7116 11.4967 38.7518 8.42562ZM24.0709 26.6622C24.0709 27.7165 23.2131 28.5743 22.1588 28.5743C21.1046 28.5743 20.2468 27.7165 20.2468 26.6622V22.8381C20.2468 21.7838 21.1046 20.926 22.1588 20.926C23.2131 20.926 24.0709 21.7838 24.0709 22.8381V26.6622Z" stroke="#121113" stroke-width="0.25" stroke-miterlimit="10"/>
<path d="M34.1999 36.0784C35.2869 36.3404 36.5048 36.4779 37.8472 36.5041C38.4234 35.8689 38.9473 35.1748 39.4122 34.4087C37.2448 34.2842 35.4506 33.7866 34.0231 32.9026C31.0961 31.0953 29.0661 27.7164 27.9202 22.766C26.2111 15.3535 28.9745 9.79416 36.1905 6.0879C33.2242 3.94011 29.0334 2.86621 23.5984 2.86621H19.0998C12.5975 2.86621 7.85667 4.39848 4.87726 7.46956C1.9044 10.5406 0.417969 15.3601 0.417969 21.9344C0.417969 28.5088 1.9175 33.3937 4.91655 36.5892C7.9156 39.7847 12.6434 41.3824 19.1129 41.3824H23.6115C28.0512 41.3824 31.6723 40.6294 34.4684 39.1168L34.1999 36.0784ZM23.1139 25.7062C23.1139 26.7604 22.2561 27.6182 21.2018 27.6182C20.1476 27.6182 19.2897 26.7604 19.2897 25.7062V21.882C19.2897 20.8278 20.1476 19.97 21.2018 19.97C22.2561 19.97 23.1139 20.8278 23.1139 21.882V25.7062Z" fill="black" stroke="#0D0B0F" stroke-width="0.25" stroke-miterlimit="10"/>
<path d="M46.6154 35.4625C49.2019 34.8666 51.3169 34.0874 52.9474 33.1248L52.5807 31.5271C50.9044 32.4962 49.1888 33.1837 47.4273 33.5897C41.4161 34.9779 36.9437 34.7618 34.0167 32.9546C31.0897 31.1473 29.0598 27.7684 27.9138 22.818C25.5958 12.7797 31.4695 6.13987 45.5349 2.89854C53.2617 1.11744 59.3842 1.85738 63.9156 5.12491C68.4469 8.39244 71.6817 14.2334 73.6199 22.6543C77.3458 38.7955 70.9025 48.788 54.2963 52.6121C50.8717 53.4044 47.6172 53.8497 44.5199 53.9545C41.4227 54.0592 39.1636 53.9807 37.7426 53.7253L35.6603 53.2538L34.1935 36.1239C37.2908 36.8769 41.4292 36.6543 46.6154 35.4625ZM47.8137 23.5645L48.4685 26.4064C48.606 27.0088 48.9007 27.4541 49.359 27.7357C49.8174 28.0238 50.3216 28.0958 50.8717 27.9714C52.214 27.6636 52.7313 26.8386 52.417 25.4962L51.7622 22.6543C51.6247 22.0519 51.3235 21.6132 50.8717 21.325C50.4133 21.0435 49.9091 20.9649 49.359 21.0893C48.8024 21.2203 48.3703 21.5149 48.0625 21.9733C47.7613 22.4317 47.6762 22.9621 47.8137 23.5645Z" stroke="#121113" stroke-width="0.25" stroke-miterlimit="10"/>
<path d="M47.5724 34.4478C50.1589 33.852 52.274 33.0727 53.9044 32.1102L53.5378 30.5124C51.8614 31.4815 50.1458 32.1691 48.3844 32.5751C42.3732 33.9633 37.9008 33.7472 34.9737 31.9399C32.0467 30.1326 30.0168 26.7538 28.8709 21.8034C26.5528 11.7716 32.4265 5.13177 46.4919 1.88389C54.2188 0.102794 60.3413 0.842736 64.8726 4.11026C69.4039 7.37779 72.6387 13.2187 74.577 21.6397C78.3029 37.7809 71.8595 47.7733 55.2534 51.5975C51.8287 52.3898 48.5743 52.8351 45.477 52.9398C42.3797 53.0446 40.1206 52.966 38.6996 52.7106L36.6173 52.2392L35.1505 35.1092C38.2478 35.8688 42.3862 35.6462 47.5724 34.4478ZM48.7707 22.5564L49.4255 25.3983C49.563 26.0007 49.8577 26.446 50.3161 26.7276C50.7744 27.0157 51.2786 27.0877 51.8287 26.9633C53.1711 26.6555 53.6884 25.8305 53.374 24.4881L52.7192 21.6462C52.5817 21.0438 52.2805 20.6051 51.8287 20.3169C51.3703 20.0354 50.8661 19.9568 50.3161 20.0812C49.7595 20.2122 49.3273 20.5068 49.0195 20.9652C48.7183 21.4236 48.6332 21.954 48.7707 22.5564Z" fill="black" stroke="#0D0B0F" stroke-width="0.25" stroke-miterlimit="10"/>
</g>
</svg>
