<svg width="155" height="147" viewBox="0 0 155 147" fill="none" xmlns="http://www.w3.org/2000/svg">
<path d="M41.6731 96.0224C41.9222 95.9076 42.1693 95.3261 42.3819 95.1195C42.9404 94.5768 43.5358 94.0595 44.1344 93.5675C44.9739 92.8775 46.1516 92.0828 47.1346 91.6088C49.8169 90.3152 52.4235 89.2922 55.3791 90.8232C57.0657 91.6968 58.2336 92.8965 59.4406 94.3419C61.0103 96.2215 63.4923 97.5099 64.7406 99.6596C66.5535 102.781 69.5455 105.206 72.0092 107.741C73.7854 109.569 76.0268 111.069 78.2755 112.233C80.4445 113.357 82.8298 114.741 84.1667 116.845C85.0986 118.311 84.8751 119.131 84.9146 120.801C84.9659 122.972 84.3443 124.353 83.6931 126.294C83.3581 127.292 82.3625 128.159 82.1383 129.202C82.1287 129.247 80.5212 127.302 80.1318 127.086C76.2904 124.954 73.5053 121.353 70.4047 118.365C68.4403 116.472 65.8495 115.502 63.7147 113.807C61.5893 112.119 59.486 109.735 57.0676 108.482C54.7746 107.295 52.7276 105.329 51.0298 103.409C49.6797 101.883 48.1692 100.362 46.9209 98.7408C46.0635 97.6274 44.8813 96.2569 43.6593 95.54C41.6507 94.3617 41.5095 97.3083 41.9295 98.6311C42.4116 100.149 43.3479 101.443 43.8726 102.95C44.4442 104.59 45.2769 106.194 46.2317 107.644C47.2213 109.147 48.4872 110.468 49.7227 111.768C51.0165 113.129 52.049 114.688 53.5137 115.902C57.6888 119.362 62.5698 121.75 67.3646 124.234C69.0982 125.132 70.8071 126.286 72.4827 127.311C73.9419 128.205 75.5414 128.819 76.9778 129.76C77.6952 130.231 81.1604 132.27 81.9089 131.181C82.2897 130.627 83.5801 128.94 83.3893 128.339" stroke="#EA291B" stroke-width="3" stroke-linecap="round"/>
<path d="M44.1544 107.435C44.7522 107.17 43.6239 107.712 43.3601 108.069C42.5018 109.23 42.3879 110.846 41.7315 112.113C40.5544 114.385 40.8892 116.927 42.0618 119.157C43.3117 121.533 45.2324 123.723 47.6383 125.012C49.9556 126.253 52.45 126.925 54.7703 128.127C58.2481 129.929 61.3285 132.209 64.6599 134.191C66.0337 135.008 68.3534 133.745 69.4445 132.915C71.2533 131.539 73.4582 129.929 74.7178 128.042" stroke="#EA291B" stroke-width="3" stroke-linecap="round"/>
<path d="M118.258 73.0398C117.045 73.4248 115.776 72.0725 114.523 72.0861C112.637 72.1067 110.908 71.7512 109.064 72.3369C104.781 73.6967 102.865 78.3399 101.455 82.2938C100.532 84.8777 99.3705 87.3662 98.4654 89.9576C97.7839 91.9086 97.5037 94.0443 97.2667 96.0891C96.9481 98.8376 96.8659 101.494 96.1045 104.137C95.354 106.741 93.9508 109.317 93.7754 112.078C93.6595 113.903 94.2193 117.031 95.4856 118.398C96.7088 119.718 98.141 120.332 99.7671 121.042C100.318 121.282 101.364 121.712 101.675 122.247C101.977 122.768 102.889 124.304 102.707 123.73" stroke="#EA291B" stroke-width="3" stroke-linecap="round"/>
<path d="M117.429 74.6372C117.465 74.831 117.072 75.0799 116.951 75.2656C116.147 76.4991 115.638 77.9718 115.159 79.3614C114.387 81.5998 113.55 84.1089 113.066 86.4123C112.498 89.114 111.868 91.7976 110.978 94.4146C109.015 100.192 107.186 105.985 105.246 111.782C104.366 114.411 103.973 117.06 103.462 119.773C103.277 120.752 103.102 122.732 103.838 123.562C105.003 124.874 105.892 123.444 106.831 122.612C108.002 121.572 109.448 120.733 110.485 119.545C112.139 117.65 112.938 116.214 113.337 113.683C113.717 111.266 114.295 109.034 115.029 106.706C115.695 104.598 116.806 102.677 117.156 100.46C117.451 98.5871 118.196 96.4008 119.038 94.715C120.238 92.3138 120.893 89.7728 121.823 87.275C122.73 84.8413 122.87 82.3975 123.273 79.835C123.574 77.9249 123.289 75.9184 122.265 74.2562C120.758 71.8125 117.791 73.1961 116.901 75.3767" stroke="#EA291B" stroke-width="3" stroke-linecap="round"/>
<path d="M124.239 84.6756C124.669 84.5392 125.966 85.5451 126.372 85.7883C127.158 86.2599 127.747 87.3188 128.017 88.1679C129.007 91.2851 127.976 94.4915 127.47 97.5873C126.699 102.309 123.917 106.199 122.367 110.635C121.39 113.432 120.543 116.673 118.641 118.946C117.66 120.119 116.766 119.729 115.479 119.527C114.753 119.412 114.271 118.869 113.641 118.543C112.853 118.134 112.06 117.979 111.359 117.361" stroke="#EA291B" stroke-width="3" stroke-linecap="round"/>
<path d="M123.658 81.0472C123.908 81.589 128.235 80.2072 128.948 79.9289C131.855 78.7953 135.681 76.5525 137.146 73.7251C138.803 70.5252 143.436 59.7146 135.783 60.9934" stroke="#EA291B" stroke-width="3" stroke-linecap="round"/>
<path d="M43.8108 103.351C41.0695 104.614 39.0152 106.692 35.7898 107.041C32.493 107.398 29.7326 107.956 26.8008 106.083C25.6414 105.342 24.5205 104.535 23.3603 103.786C22.2728 103.085 21.1749 102.715 20.7707 101.368C20.4957 100.45 20.5315 98.6018 20.8612 97.7167C21.3621 96.3722 22.9567 95.8815 24.0458 95.1381" stroke="#EA291B" stroke-width="3" stroke-linecap="round"/>
<path d="M125.5 109.059C124.502 109.375 125.257 109.638 126.067 109.641C128.366 109.651 129.865 108.367 130.626 106.287C132.024 102.461 132.452 98.7609 133.171 94.7927C133.876 90.9069 133.979 86.6865 134.196 82.7432C134.415 78.7788 134.79 74.7428 134.425 70.7876C134.171 68.0395 133.482 65.347 133.099 62.6088C132.725 59.9459 132.139 57.0879 130.881 54.6918C129.759 52.5546 128.88 50.3856 127.537 48.3612C126.328 46.539 124.833 44.9371 123.628 43.1208" stroke="#EA291B" stroke-width="3" stroke-linecap="round"/>
<path d="M124.633 45.0891C124.928 46.6838 123.686 41.986 123.16 40.4517C122.733 39.2041 121.722 37.9984 121.099 36.8276C120.336 35.3953 119.691 33.9152 118.826 32.5396C117.275 30.0721 115.37 28.9889 112.821 27.6683C108.728 25.5483 104.652 23.3609 100.194 22.1563C92.0803 19.9642 84.1671 17.0798 75.5951 17.3C73.2175 17.3611 70.8537 17.4441 68.5038 17.8148C66.6739 18.1034 64.4249 18.1475 62.7464 19.0286C60.4659 20.2257 58.0283 21.1948 55.7797 22.4374C52.8775 24.0412 49.6665 24.8804 46.7811 26.6185C44.1245 28.2188 41.1424 29.7742 38.774 31.7875C37.4464 32.916 36.0981 34.0195 34.7171 35.0879C32.8457 36.5358 31.4404 37.8117 29.959 39.6489C27.5656 42.6171 25.4015 46.7701 24.6606 50.5136C23.6946 55.3946 22.4252 60.2194 21.6135 65.1329C21.1389 68.0056 21.141 70.9009 20.9913 73.8138C20.8646 76.2821 21.5776 78.7544 21.5689 81.2029C21.5553 85.0114 21.7445 89.0943 22.9012 92.7371C23.8663 95.7766 25.6586 98.4194 26.6111 101.419C27.1633 103.158 28.4891 104.614 29.32 106.215C30.2069 107.923 31.7046 109.656 32.2839 111.48C32.6073 112.498 33.5606 113.287 33.9419 114.3C34.3623 115.417 35.443 116.992 36.3144 117.836C38.0824 119.549 40.0204 121.129 41.6723 122.903C43.2586 124.606 44.3939 126.659 46.0969 128.265C47.8855 129.953 49.9174 132.034 52.1693 133.147C53.7074 133.907 54.9498 133.938 56.51 133.442C56.9978 133.287 59.0475 132.477 59.0211 132.645" stroke="#EA291B" stroke-width="3" stroke-linecap="round"/>
</svg>
