<svg width="64" height="67" viewBox="0 0 64 67" fill="none" xmlns="http://www.w3.org/2000/svg">
<path d="M32.7712 2C32.5283 2.03036 32.4788 2.0476 32.3891 2.30168C30.7631 6.90848 28.1442 11.4847 25.8125 15.7163C22.7693 21.2392 19.6213 27.2493 14.5498 31.2427C10.6937 34.2791 6.47326 34.988 2 36.3914" stroke="black" stroke-width="3" stroke-linecap="round"/>
<path d="M31.6855 7.0682C31.6855 5.93489 31.9411 4.95747 32.3291 3.89051C32.4304 3.61215 32.4027 4.47932 32.4096 4.77543C32.4703 7.38582 32.8381 10.002 33.4554 12.5386C34.5344 16.9727 36.157 21.5539 39.851 24.5253C46.329 29.7363 54.0617 29.3971 61.7328 30.9611" stroke="black" stroke-width="3" stroke-linecap="round"/>
<path d="M6.70668 36.3913C5.88287 36.2883 6.88891 36.0297 7.0687 35.9488C9.53485 34.839 12.5103 35.509 15.0732 36.1097C19.901 37.2412 23.0346 42.7232 25.1694 46.769C27.5786 51.3347 29.5424 56.1733 31.3237 61.0082" stroke="black" stroke-width="3" stroke-linecap="round"/>
<path d="M54.4914 32.0473C50.8286 31.6403 47.0926 30.6546 43.7919 33.1937C34.0926 40.6546 30.8327 53.913 29.1504 65.3526" stroke="black" stroke-width="3" stroke-linecap="round"/>
<path d="M30.9161 12.9177C31.3235 12.4594 31.365 12.0087 30.834 13.2053C29.5377 16.1261 27.6231 18.9031 25.9244 21.5761C23.9228 24.7259 21.884 27.8638 19.7002 30.8919C19.637 30.9795 17.5486 33.7866 18.2212 33.5213C20.4962 32.6241 22.7195 30.0203 24.4249 28.3858C27.279 25.6501 29.5295 22.4912 31.6351 19.1625C32.1706 18.3159 32.6916 17.46 33.1963 16.5947C34.0216 15.1798 32.0597 19.6676 31.4707 21.1961C30.2253 24.4283 28.6826 27.515 27.3007 30.6865C27.0905 31.169 26.3774 32.8218 27.4856 31.7136C28.2302 30.9691 36.1553 22.2991 36.3392 22.5519C36.6774 23.0169 32.6255 28.1605 32.4157 28.468C30.2354 31.6626 27.8216 34.776 25.8423 38.1022C23.8975 41.3701 29.996 36.1131 30.3204 35.8425C32.628 33.9175 35.0533 32.0751 37.1814 29.947C38.9623 28.1661 35.67 31.3858 35.5072 31.5595C33.5849 33.6112 31.7954 35.8129 30.4231 38.2768C30.114 38.8318 28.8083 40.9812 29.6014 41.584C30.7272 42.4396 33.8938 38.9089 34.4596 38.3692C36.6954 36.2366 43.1146 29.5828 40.7146 31.5287C38.5733 33.265 36.6986 35.6236 34.9115 37.7016C32.8374 40.1134 30.9344 42.6491 29.2419 45.3432C28.448 46.607 28.1903 47.6213 29.9506 46.2162C33.0513 43.7414 35.8654 40.8666 38.4858 37.8967C40.8797 35.1836 43.5998 32.7765 45.9631 30.0497C46.8316 29.0476 43.8759 31.3248 43.6213 31.6006C39.9064 35.6251 37.0546 41.2605 35.1683 46.3806" stroke="#EF4423" stroke-width="3" stroke-linecap="round"/>
</svg>
