<svg width="83" height="104" viewBox="0 0 83 104" fill="none" xmlns="http://www.w3.org/2000/svg">
<path d="M42.5017 2C24.454 2 9.62405 9.1895 11.1017 24.6563C11.762 31.5681 14.392 44.4107 24.5588 46.3518C28.0792 47.024 37.8931 47.9502 39.3812 44.5906C41.9907 38.6991 48.5251 6.05007 38.9911 3.44103" stroke="black" stroke-opacity="0.25" stroke-width="3" stroke-linecap="round"/>
<path d="M2.76391 96.1525C3.86825 75.0068 11.4809 55.2341 39.8992 55.2341C49.0265 55.2341 58.6059 53.7942 66.4518 58.0561C73.9323 62.1195 75.2493 69.9987 78.9585 76.3988C80.4285 78.9352 83.4945 90.9769 77.1306 91.8411C67.0953 93.2039 58.1256 95.7377 47.8842 97.4067C37.8351 99.0442 27.0227 101.561 16.6175 101.796C6.4232 102.027 -0.352719 103.488 2.76391 93.3305" stroke="black" stroke-opacity="0.25" stroke-width="3" stroke-linecap="round"/>
</svg>
