<svg width="44" height="41" viewBox="0 0 44 41" fill="none" xmlns="http://www.w3.org/2000/svg">
<path d="M40.4643 21.2143C40.4643 31.8314 31.5087 40.4643 20.4286 40.4643C9.34849 40.4643 0.392857 31.8314 0.392857 21.2143C0.392857 10.5972 9.34849 1.96427 20.4286 1.96427C31.5087 1.96427 40.4643 10.5972 40.4643 21.2143Z" stroke="black" stroke-width="0.785714"/>
<path d="M43.6069 19.6429C43.6069 30.26 34.6512 38.8929 23.5711 38.8929C12.4911 38.8929 3.53544 30.26 3.53544 19.6429C3.53544 9.02576 12.4911 0.392857 23.5711 0.392857C34.6512 0.392857 43.6069 9.02576 43.6069 19.6429Z" fill="#E8D9C1" stroke="black" stroke-width="0.785714"/>
<rect x="11.2357" y="17.5215" width="23.1" height="4.24286" fill="white" stroke="black" stroke-width="0.471429"/>
<rect x="11.2357" y="23.8071" width="23.1" height="4.24286" fill="white" stroke="black" stroke-width="0.471429"/>
<rect x="11.2357" y="11.2357" width="23.1" height="4.24286" fill="white" stroke="black" stroke-width="0.471429"/>
<path d="M29.6524 11.0028H33.0782V13.5014H35.4353V16.9114H33.0782V19.1585H29.6524V16.9114H27.2796V13.5014H29.6524V11.0028Z" fill="#E8D9C1"/>
<path d="M29.6524 11.0028V10.5314H29.181V11.0028H29.6524ZM33.0782 11.0028H33.5496V10.5314H33.0782V11.0028ZM33.0782 13.5014H32.6067V13.9728H33.0782V13.5014ZM35.4353 13.5014H35.9067V13.0299H35.4353V13.5014ZM35.4353 16.9114V17.3828H35.9067V16.9114H35.4353ZM33.0782 16.9114V16.4399H32.6067V16.9114H33.0782ZM33.0782 19.1585V19.6299H33.5496V19.1585H33.0782ZM29.6524 19.1585H29.181V19.6299H29.6524V19.1585ZM29.6524 16.9114H30.1239V16.4399H29.6524V16.9114ZM27.2796 16.9114H26.8082V17.3828H27.2796V16.9114ZM27.2796 13.5014V13.0299H26.8082V13.5014H27.2796ZM29.6524 13.5014V13.9728H30.1239V13.5014H29.6524ZM29.6524 11.4742H33.0782V10.5314H29.6524V11.4742ZM32.6067 11.0028V13.5014H33.5496V11.0028H32.6067ZM33.0782 13.9728H35.4353V13.0299H33.0782V13.9728ZM34.9639 13.5014V16.9114H35.9067V13.5014H34.9639ZM35.4353 16.4399H33.0782V17.3828H35.4353V16.4399ZM32.6067 16.9114V19.1585H33.5496V16.9114H32.6067ZM33.0782 18.6871H29.6524V19.6299H33.0782V18.6871ZM30.1239 19.1585V16.9114H29.181V19.1585H30.1239ZM29.6524 16.4399H27.2796V17.3828H29.6524V16.4399ZM27.751 16.9114V13.5014H26.8082V16.9114H27.751ZM27.2796 13.9728H29.6524V13.0299H27.2796V13.9728ZM30.1239 13.5014V11.0028H29.181V13.5014H30.1239Z" fill="black"/>
</svg>
