<svg width="20" height="25" viewBox="0 0 12 15" fill="none" xmlns="http://www.w3.org/2000/svg">
<path d="M0.637384 13.1903V13.1902L0.637385 1.41025L0.637384 1.40989C0.637248 1.30491 0.666437 1.20134 0.722564 1.11015C0.778738 1.01889 0.860044 0.943103 0.95864 0.89178C1.05729 0.840429 1.16903 0.815799 1.2818 0.821055C1.39456 0.82631 1.50315 0.861203 1.59596 0.921286L10.6941 6.81126C10.6941 6.81127 10.6941 6.81127 10.6941 6.81128C10.7784 6.86586 10.8466 6.93924 10.8935 7.02428L11.1366 6.89029L10.8935 7.02429C10.9403 7.10929 10.9646 7.20365 10.9646 7.29909C10.9646 7.39453 10.9403 7.48889 10.8935 7.57389L11.1366 7.70789L10.8935 7.5739C10.8466 7.65895 10.7784 7.73233 10.6941 7.78692L10.8446 8.01936L10.6941 7.78692L1.59596 13.6783C1.59595 13.6783 1.59594 13.6784 1.59593 13.6784C1.50317 13.7384 1.39465 13.7733 1.28195 13.7786C1.16924 13.7838 1.05754 13.7593 0.958913 13.708C0.860334 13.6567 0.779016 13.581 0.722796 13.4898C0.666624 13.3987 0.637356 13.2952 0.637384 13.1903Z" fill="#F5F4F4" stroke="black" stroke-width="0.55527"/>
</svg>
