<svg width="24" height="25" viewBox="0 0 24 25" fill="none" xmlns="http://www.w3.org/2000/svg">
<path d="M4.93421 16.4339C7.10702 16.4339 8.86843 14.6724 8.86843 12.4996C8.86843 10.3268 7.10702 8.56543 4.93421 8.56543C2.76141 8.56543 1 10.3268 1 12.4996C1 14.6724 2.76141 16.4339 4.93421 16.4339Z" stroke="black" stroke-linecap="round" stroke-linejoin="round"/>
<path d="M18.5905 8.86843C20.7633 8.86843 22.5247 7.10702 22.5247 4.93421C22.5247 2.76141 20.7633 1 18.5905 1C16.4177 1 14.6562 2.76141 14.6562 4.93421C14.6562 7.10702 16.4177 8.86843 18.5905 8.86843Z" stroke="black" stroke-linecap="round" stroke-linejoin="round"/>
<path d="M18.5905 23.9998C20.7633 23.9998 22.5247 22.2384 22.5247 20.0656C22.5247 17.8928 20.7633 16.1313 18.5905 16.1313C16.4177 16.1313 14.6562 17.8928 14.6562 20.0656C14.6562 22.2384 16.4177 23.9998 18.5905 23.9998Z" stroke="black" stroke-linecap="round" stroke-linejoin="round"/>
<path d="M6.75586 9.05592C10.3484 7.02968 10.5664 7.01262 14.6548 5.85938" stroke="black" stroke-linecap="round" stroke-linejoin="round"/>
<path d="M6.75586 15.9441C10.3484 17.9703 10.5664 17.9874 14.6548 19.1406" stroke="black" stroke-linecap="round" stroke-linejoin="round"/>
</svg>
