<svg width="71" height="88" viewBox="0 0 71 88" fill="none" xmlns="http://www.w3.org/2000/svg">
<path d="M60.306 38.4928C60.2355 38.5016 59.884 38.7891 59.9323 38.5721C59.9917 38.3046 60.4104 37.8578 60.5325 37.6773C63.4986 33.2962 66.3666 28.8442 69.2763 24.4258" stroke="black" stroke-width="3" stroke-linecap="round"/>
<path d="M42.9774 36.454C42.8004 36.8302 42.6177 37.5501 42.3658 36.7258C41.3571 33.4244 40.082 30.3306 38.7415 27.1213C35.2459 18.7523 31.7535 10.3828 28.2988 2" stroke="black" stroke-width="3" stroke-linecap="round"/>
<path d="M28.5031 45.6281C28.7231 45.6281 29.2656 45.7105 28.7862 45.5262C28.1574 45.2843 27.0009 45.247 26.4757 45.1298C18.2079 43.2846 10.1255 40.8463 2 38.4927" stroke="black" stroke-width="3" stroke-linecap="round"/>
<path d="M30.9491 68.8695C31.0962 68.7387 31.4542 68.5717 31.0171 68.6883C30.5957 68.8006 30.13 69.0822 29.7712 69.2999C21.0872 74.5672 12.7264 80.4202 4.24219 85.9945" stroke="black" stroke-width="3" stroke-linecap="round"/>
</svg>
