<svg width="54" height="49" viewBox="0 0 54 49" fill="none" xmlns="http://www.w3.org/2000/svg">
<path d="M27.2033 45.0612C27.0297 45.0612 26.771 45.0531 27.1442 45.0612C31.3315 45.1523 35.6488 46.111 39.7826 46.6558" stroke="black" stroke-width="3" stroke-linecap="round"/>
<path d="M25.2544 31.9501C24.4975 31.9501 26.6213 31.2885 27.3411 31.0544C35.5763 28.3772 43.8909 25.934 52.1848 23.4458" stroke="black" stroke-width="3" stroke-linecap="round"/>
<path d="M17.6359 23.8003C17.6359 24.1525 16.862 24.9467 17.1438 24.7354C17.8484 24.207 18.3751 23.0071 18.8368 22.2943C20.5046 19.7194 21.8562 17.0158 23.1283 14.2329" stroke="black" stroke-width="3" stroke-linecap="round"/>
<path d="M8.77613 25.0405C8.3965 25.0879 8.26659 23.8303 8.14618 23.377C6.25983 16.2754 4.48917 9.17949 2.2207 2.18506" stroke="black" stroke-width="3" stroke-linecap="round"/>
</svg>
