<svg width="75" height="115" viewBox="0 0 100 122" fill="none" xmlns="http://www.w3.org/2000/svg">
<path d="M68.7712 2C68.5283 2.03036 68.4788 2.0476 68.3891 2.30168C66.7631 6.90848 64.1442 11.4847 61.8125 15.7163C58.7693 21.2392 55.6213 27.2493 50.5498 31.2427C46.6937 34.2791 42.4733 34.988 38 36.3914" stroke="black" stroke-width="3" stroke-linecap="round"/>
<path d="M67.6855 7.0682C67.6855 5.93489 67.9411 4.95747 68.3291 3.89051C68.4304 3.61215 68.4027 4.47932 68.4096 4.77543C68.4703 7.38582 68.8381 10.002 69.4554 12.5386C70.5344 16.9727 72.157 21.5539 75.851 24.5253C82.329 29.7363 90.0617 29.3971 97.7328 30.9611" stroke="black" stroke-width="3" stroke-linecap="round"/>
<path d="M42.7067 36.3914C41.8829 36.2884 42.8889 36.0298 43.0687 35.9489C45.5348 34.8391 48.5103 35.5091 51.0732 36.1098C55.901 37.2413 59.0346 42.7233 61.1694 46.7691C63.5786 51.3348 65.5424 56.1734 67.3237 61.0084" stroke="black" stroke-width="3" stroke-linecap="round"/>
<path d="M90.4914 32.0472C86.8286 31.6402 83.0926 30.6545 79.7919 33.1935C70.0926 40.6545 66.8327 53.9129 65.1504 65.3525" stroke="black" stroke-width="3" stroke-linecap="round"/>
<path d="M66.9161 12.9177C67.3235 12.4594 67.365 12.0087 66.834 13.2053C65.5377 16.1261 63.6231 18.9031 61.9244 21.5761C59.9228 24.7259 57.884 27.8638 55.7002 30.8919C55.637 30.9795 53.5486 33.7866 54.2212 33.5213C56.4962 32.6241 58.7195 30.0203 60.4249 28.3858C63.279 25.6501 65.5295 22.4912 67.6351 19.1625C68.1706 18.3159 68.6916 17.46 69.1963 16.5947C70.0216 15.1798 68.0597 19.6676 67.4707 21.1961C66.2253 24.4283 64.6826 27.515 63.3007 30.6865C63.0905 31.169 62.3774 32.8218 63.4856 31.7136C64.2302 30.9691 72.1553 22.2991 72.3392 22.5519C72.6774 23.0169 68.6255 28.1605 68.4157 28.468C66.2354 31.6626 63.8216 34.776 61.8423 38.1022C59.8975 41.3701 65.996 36.1131 66.3204 35.8425C68.628 33.9175 71.0533 32.0751 73.1814 29.947C74.9623 28.1661 71.67 31.3858 71.5072 31.5595C69.5849 33.6112 67.7954 35.8129 66.4231 38.2768C66.114 38.8318 64.8083 40.9812 65.6014 41.584C66.7272 42.4396 69.8938 38.9089 70.4596 38.3692C72.6954 36.2366 79.1146 29.5828 76.7146 31.5287C74.5733 33.265 72.6986 35.6236 70.9115 37.7016C68.8374 40.1134 66.9344 42.6491 65.2419 45.3432C64.448 46.607 64.1903 47.6213 65.9506 46.2162C69.0513 43.7414 71.8654 40.8666 74.4858 37.8967C76.8797 35.1836 79.5998 32.7765 81.9631 30.0497C82.8316 29.0476 79.8759 31.3248 79.6213 31.6006C75.9064 35.6251 73.0546 41.2605 71.1683 46.3806" stroke="#EF4423" stroke-width="3" stroke-linecap="round"/>
<path d="M20.5454 82C20.399 82.0183 20.3692 82.0287 20.3151 82.1818C19.3352 84.9583 17.7568 87.7163 16.3515 90.2667C14.5174 93.5952 12.6202 97.2174 9.56363 99.6242C7.23961 101.454 4.69598 101.881 2 102.727" stroke="black" stroke-width="3" stroke-linecap="round"/>
<path d="M19.8906 85.0546C19.8906 84.3716 20.0447 83.7825 20.2785 83.1394C20.3395 82.9717 20.3228 83.4943 20.327 83.6728C20.3636 85.246 20.5853 86.8227 20.9573 88.3515C21.6076 91.0239 22.5855 93.7849 24.8118 95.5758C28.716 98.7164 33.3765 98.512 37.9997 99.4546" stroke="black" stroke-width="3" stroke-linecap="round"/>
<path d="M4.83542 102.727C4.33892 102.665 4.94524 102.509 5.0536 102.461C6.53992 101.792 8.33321 102.195 9.87784 102.558C12.7875 103.239 14.6761 106.543 15.9627 108.982C17.4146 111.733 18.5982 114.65 19.6718 117.564" stroke="black" stroke-width="3" stroke-linecap="round"/>
<path d="M33.636 100.109C31.4284 99.8637 29.1768 99.2696 27.1875 100.8C21.3419 105.296 19.3772 113.287 18.3633 120.182" stroke="black" stroke-width="3" stroke-linecap="round"/>
<path d="M19.4287 88.58C19.6742 88.3038 19.6992 88.0321 19.3792 88.7533C18.5979 90.5136 17.444 92.1873 16.4202 93.7983C15.2139 95.6967 13.9852 97.5878 12.669 99.4128C12.6309 99.4656 11.3722 101.157 11.7776 100.998C13.1487 100.457 14.4887 98.8875 15.5165 97.9024C17.2367 96.2537 18.593 94.3498 19.862 92.3436C20.1847 91.8334 20.4987 91.3175 20.8029 90.7961C21.3003 89.9433 20.1179 92.648 19.763 93.5693C19.0123 95.5173 18.0826 97.3776 17.2497 99.289C17.123 99.5798 16.6932 100.576 17.3612 99.908C17.8099 99.4593 22.5863 94.234 22.6971 94.3864C22.9009 94.6667 20.4589 97.7666 20.3324 97.9519C19.0184 99.8773 17.5637 101.754 16.3707 103.758C15.1987 105.728 18.8741 102.56 19.0696 102.397C20.4604 101.236 21.9221 100.126 23.2047 98.8433C24.278 97.77 22.2938 99.7105 22.1957 99.8152C21.0372 101.052 19.9586 102.379 19.1315 103.864C18.9452 104.198 18.1583 105.494 18.6363 105.857C19.3148 106.372 21.2233 104.245 21.5643 103.919C22.9118 102.634 26.7806 98.6238 25.3341 99.7966C24.0436 100.843 22.9137 102.265 21.8367 103.517C20.5866 104.97 19.4397 106.499 18.4197 108.122C17.9412 108.884 17.7859 109.495 18.8468 108.649C20.7155 107.157 22.4115 105.424 23.9909 103.635C25.4336 101.999 27.073 100.549 28.4973 98.9052C29.0208 98.3013 27.2394 99.6737 27.086 99.84C24.847 102.265 23.1283 105.662 21.9914 108.748" stroke="#FFC62D" stroke-width="3" stroke-linecap="round"/>
</svg>
