<svg width="47" height="47" viewBox="0 0 47 47" fill="none" xmlns="http://www.w3.org/2000/svg">
<rect x="0.5" y="0.5" width="46" height="46" rx="23" fill="white" stroke="black"/>
<path d="M22.5379 12.1182C22.7082 11.7061 23.2918 11.7061 23.4621 12.1182L26.5332 19.5497L34.772 20.2663C35.2193 20.3053 35.3926 20.8683 35.0446 21.152L29.132 25.9721C28.9861 26.0911 28.9194 26.282 28.9594 26.466L30.7722 34.7953C30.8677 35.2341 30.3813 35.5666 30.0072 35.3183L23 30.6678L15.9928 35.3183C15.6187 35.5666 15.1323 35.2341 15.2278 34.7953L17.0406 26.466C17.0806 26.282 17.0139 26.0911 16.868 25.9721L10.9554 21.152C10.6074 20.8683 10.7807 20.3053 11.228 20.2663L19.4668 19.5497L22.5379 12.1182Z" fill="#D9D9D9"/>
<path d="M26.5332 19.5497L26.0711 19.7406C26.1424 19.9132 26.3039 20.0316 26.4898 20.0478L26.5332 19.5497ZM23 30.6678L23.2765 30.2512C23.1089 30.14 22.8911 30.14 22.7235 30.2512L23 30.6678ZM19.4668 19.5497L19.5102 20.0478C19.6961 20.0316 19.8576 19.9132 19.9289 19.7406L19.4668 19.5497ZM17.0406 26.466L16.552 26.3597L17.0406 26.466ZM16.868 25.9721L17.1839 25.5846L16.868 25.9721ZM15.9928 35.3183L16.2693 35.7349L15.9928 35.3183ZM30.7722 34.7953L30.2837 34.9017L30.7722 34.7953ZM30.0072 35.3183L29.7307 35.7349L30.0072 35.3183ZM29.132 25.9721L28.8161 25.5846L29.132 25.9721ZM28.9594 26.466L29.448 26.3597L28.9594 26.466ZM34.772 20.2663L34.7287 20.7645L34.772 20.2663ZM35.0446 21.152L35.3606 21.5395L35.0446 21.152ZM23.4621 12.1182L23.9242 11.9272L23.4621 12.1182ZM22.5379 12.1182L23 12.3092L22.5379 12.1182ZM23 12.3092L26.0711 19.7406L26.9953 19.3587L23.9242 11.9272L23 12.3092ZM26.4898 20.0478L34.7287 20.7645L34.8154 19.7682L26.5765 19.0515L26.4898 20.0478ZM34.7287 20.7645L28.8161 25.5846L29.448 26.3597L35.3606 21.5395L34.7287 20.7645ZM28.4708 26.5723L30.2837 34.9017L31.2608 34.689L29.448 26.3597L28.4708 26.5723ZM30.2837 34.9017L23.2765 30.2512L22.7235 31.0844L29.7307 35.7349L30.2837 34.9017ZM22.7235 30.2512L15.7163 34.9017L16.2693 35.7349L23.2765 31.0844L22.7235 30.2512ZM15.7163 34.9017L17.5292 26.5723L16.552 26.3597L14.7392 34.689L15.7163 34.9017ZM17.1839 25.5846L11.2713 20.7645L10.6394 21.5395L16.552 26.3597L17.1839 25.5846ZM11.2713 20.7645L19.5102 20.0478L19.4235 19.0515L11.1846 19.7682L11.2713 20.7645ZM19.9289 19.7406L23 12.3092L22.0758 11.9272L19.0047 19.3587L19.9289 19.7406ZM11.2713 20.7645L11.2713 20.7645L11.1846 19.7682C10.29 19.846 9.94341 20.9721 10.6394 21.5395L11.2713 20.7645ZM17.5292 26.5723C17.6092 26.2044 17.4758 25.8226 17.1839 25.5846L16.552 26.3597L17.5292 26.5723ZM15.7163 34.9017H15.7163L14.7392 34.689C14.5482 35.5665 15.521 36.2315 16.2693 35.7349L15.7163 34.9017ZM30.2837 34.9017V34.9017L29.7307 35.7349C30.479 36.2315 31.4518 35.5665 31.2608 34.689L30.2837 34.9017ZM28.8161 25.5846C28.5242 25.8226 28.3908 26.2044 28.4708 26.5723L29.448 26.3597L28.8161 25.5846ZM34.7287 20.7645L34.7287 20.7645L35.3606 21.5395C36.0566 20.9721 35.71 19.846 34.8154 19.7682L34.7287 20.7645ZM23.9242 11.9272C23.5836 11.1031 22.4164 11.1031 22.0758 11.9272L23 12.3092V12.3092L23.9242 11.9272Z" fill="black"/>
</svg>
