<svg width="47" height="47" viewBox="0 0 47 47" fill="none" xmlns="http://www.w3.org/2000/svg">
<rect x="0.5" y="0.5" width="46" height="46" rx="23" fill="white" stroke="black"/>
<path d="M22.5379 12.1182C22.7082 11.7061 23.2918 11.7061 23.4621 12.1182L26.5332 19.5497L34.772 20.2663C35.2193 20.3053 35.3926 20.8683 35.0446 21.152L29.132 25.9721C28.9861 26.0911 28.9194 26.282 28.9594 26.466L30.7722 34.7953C30.8677 35.2341 30.3813 35.5666 30.0072 35.3183L23 30.6678L15.9928 35.3183C15.6187 35.5666 15.1323 35.2341 15.2278 34.7953L17.0406 26.466C17.0806 26.282 17.0139 26.0911 16.868 25.9721L10.9554 21.152C10.6074 20.8683 10.7807 20.3053 11.228 20.2663L19.4668 19.5497L22.5379 12.1182Z" fill="#FFC62D" stroke="black" stroke-linejoin="round"/>
</svg>
