<svg width="92" height="103" viewBox="0 0 92 103" fill="none" xmlns="http://www.w3.org/2000/svg">
<path d="M32.7712 38.0002C32.5283 38.0306 32.4788 38.0478 32.3891 38.3019C30.7631 42.9087 28.1442 47.4849 25.8125 51.7166C22.7693 57.2394 19.6213 63.2495 14.5498 67.243C10.6937 70.2793 6.47326 70.9882 2 72.3916" stroke="black" stroke-width="3" stroke-linecap="round"/>
<path d="M31.6855 43.0684C31.6855 41.9351 31.9411 40.9577 32.3291 39.8908C32.4304 39.6124 32.4027 40.4796 32.4096 40.7757C32.4703 43.3861 32.8381 46.0022 33.4554 48.5389C34.5344 52.973 36.157 57.5541 39.851 60.5256C46.329 65.7366 54.0617 65.3974 61.7328 66.9614" stroke="black" stroke-width="3" stroke-linecap="round"/>
<path d="M6.70668 72.3915C5.88287 72.2885 6.88891 72.03 7.0687 71.9491C9.53485 70.8393 12.5103 71.5093 15.0732 72.1099C19.901 73.2415 23.0346 78.7234 25.1694 82.7693C27.5786 87.335 29.5424 92.1735 31.3237 97.0085" stroke="black" stroke-width="3" stroke-linecap="round"/>
<path d="M54.4914 68.0475C50.8286 67.6406 47.0926 66.6549 43.7919 69.1939C34.0926 76.6549 30.8327 89.9132 29.1504 101.353" stroke="black" stroke-width="3" stroke-linecap="round"/>
<path d="M30.9161 48.9177C31.3235 48.4594 31.365 48.0087 30.834 49.2053C29.5377 52.1261 27.6231 54.9031 25.9244 57.5761C23.9228 60.7259 21.884 63.8638 19.7002 66.8919C19.637 66.9795 17.5486 69.7866 18.2212 69.5213C20.4962 68.6241 22.7195 66.0203 24.4249 64.3858C27.279 61.6501 29.5295 58.4912 31.6351 55.1625C32.1706 54.3159 32.6916 53.46 33.1963 52.5947C34.0216 51.1798 32.0597 55.6676 31.4707 57.1961C30.2253 60.4283 28.6826 63.515 27.3007 66.6865C27.0905 67.169 26.3774 68.8218 27.4856 67.7136C28.2302 66.9691 36.1553 58.2991 36.3392 58.5519C36.6774 59.0169 32.6255 64.1605 32.4157 64.468C30.2354 67.6626 27.8216 70.776 25.8423 74.1022C23.8975 77.3701 29.996 72.1131 30.3204 71.8425C32.628 69.9175 35.0533 68.0751 37.1814 65.947C38.9623 64.1661 35.67 67.3858 35.5072 67.5595C33.5849 69.6112 31.7954 71.8129 30.4231 74.2768C30.114 74.8318 28.8083 76.9812 29.6014 77.584C30.7272 78.4396 33.8938 74.9089 34.4596 74.3692C36.6954 72.2366 43.1146 65.5828 40.7146 67.5287C38.5733 69.265 36.6986 71.6236 34.9115 73.7016C32.8374 76.1134 30.9344 78.6491 29.2419 81.3432C28.448 82.607 28.1903 83.6213 29.9506 82.2162C33.0513 79.7414 35.8654 76.8666 38.4858 73.8967C40.8797 71.1836 43.5998 68.7765 45.9631 66.0497C46.8316 65.0476 43.8759 67.3248 43.6213 67.6006C39.9064 71.6251 37.0546 77.2605 35.1683 82.3806" stroke="#086562" stroke-width="3" stroke-linecap="round"/>
<path d="M58.4273 22.3241C58.3956 22.3378 57.9418 22.5579 57.9686 22.5808C58.637 23.1513 60.7581 21.4375 60.9953 21.2667C64.2765 18.9046 66.697 16.4278 68.0453 12.6045C68.8679 10.2719 69.6219 7.79506 70.0649 5.35615C70.2726 4.21287 70.1875 3.12548 70.2751 2.00228C70.2826 1.90522 70.5924 3.9207 70.6541 4.2689C71.4023 8.4965 72.5646 13.5729 76.4919 16.0408C78.1906 17.1083 80.274 17.518 82.2076 17.9337C83.9909 18.3171 85.7879 18.666 87.6079 18.8078C87.8356 18.8255 90.1147 19.0744 89.4661 18.7917C88.7229 18.4678 88.0133 18.5976 87.2289 18.7929C80.5094 20.4657 76.4111 26.3473 75.3626 32.9722C74.6371 37.5563 74.3809 42.1932 74.0207 46.8165C73.9766 47.3825 73.8705 45.5406 73.8712 45.3573C73.8884 40.8596 71.6733 36.4275 69.2528 32.7593C67.472 30.0605 65.6475 27.4915 62.9834 25.5888C60.6245 23.9041 58.6499 23.0387 55.74 23.0358" stroke="black" stroke-width="3" stroke-linecap="round"/>
</svg>
