<svg width="82" height="99" viewBox="0 0 82 99" fill="none" xmlns="http://www.w3.org/2000/svg">
<path d="M5.45496 30.0869C5.41475 30.1083 4.8416 30.4459 4.87913 30.4734C5.81492 31.1587 8.42408 28.6749 8.71798 28.4248C12.7837 24.9645 15.7078 21.4412 17.0867 16.2487C17.9279 13.0806 18.6644 9.72895 18.9965 6.45949C19.1522 4.92688 18.9293 3.49829 18.9293 2.00459C18.9293 1.87551 19.5422 4.50773 19.6587 4.96164C21.0734 10.4727 23.1185 17.0631 28.5264 19.9208C30.8656 21.1569 33.6424 21.4838 36.2233 21.8342C38.6035 22.1574 40.9982 22.4333 43.402 22.4333C43.7027 22.4333 46.72 22.5276 45.8396 22.2207C44.8309 21.8692 43.9127 22.1138 42.9029 22.4527C34.253 25.3559 29.4747 33.5525 28.776 42.4176C28.2925 48.5516 28.4305 54.7073 28.4305 60.8556C28.4305 61.6083 28.1028 59.1846 28.085 58.9423C27.6475 52.9952 24.2863 47.3648 20.7336 42.7655C18.1197 39.3815 15.4618 36.1737 11.7699 33.933C8.50099 31.9491 5.82024 31.0086 2 31.3045" stroke="black" stroke-width="3" stroke-linecap="round"/>
<path d="M64.0833 61.2734C63.9464 61.2906 63.9184 61.3003 63.8678 61.4436C62.9509 64.0415 61.474 66.6221 60.1591 69.0085C58.4429 72.123 56.6677 75.5123 53.8077 77.7643C51.6331 79.4766 49.2531 79.8764 46.7305 80.6678" stroke="black" stroke-width="3" stroke-linecap="round"/>
<path d="M63.4707 64.1317C63.4707 63.4926 63.6148 62.9414 63.8336 62.3397C63.8907 62.1827 63.8751 62.6718 63.879 62.8388C63.9132 64.3108 64.1207 65.7862 64.4688 67.2167C65.0772 69.7172 65.9923 72.3006 68.0755 73.9764C71.7286 76.915 76.0893 76.7237 80.4153 77.6057" stroke="black" stroke-width="3" stroke-linecap="round"/>
<path d="M49.3855 80.6677C48.9209 80.6096 49.4883 80.4638 49.5897 80.4181C50.9804 79.7923 52.6584 80.1701 54.1037 80.5089C56.8262 81.147 58.5933 84.2384 59.7972 86.52C61.1558 89.0948 62.2633 91.8234 63.2678 94.55" stroke="black" stroke-width="3" stroke-linecap="round"/>
<path d="M76.3336 78.218C74.268 77.9885 72.1612 77.4326 70.2998 78.8644C64.83 83.0719 62.9917 90.5487 62.043 96.9999" stroke="black" stroke-width="3" stroke-linecap="round"/>
<path d="M63.037 67.4301C63.2667 67.1717 63.2901 66.9175 62.9906 67.5923C62.2596 69.2394 61.1799 70.8055 60.222 72.3129C59.0932 74.0891 57.9435 75.8587 56.712 77.5663C56.6763 77.6157 55.4986 79.1987 55.8779 79.0491C57.1609 78.5432 58.4147 77.0748 59.3764 76.1531C60.9859 74.6103 62.255 72.8289 63.4424 70.9517C63.7444 70.4743 64.0382 69.9916 64.3228 69.5037C64.7883 68.7057 63.6819 71.2366 63.3498 72.0986C62.6474 73.9213 61.7774 75.662 60.9981 77.4505C60.8796 77.7226 60.4774 78.6547 61.1024 78.0297C61.5223 77.6098 65.9915 72.7205 66.0952 72.8631C66.2859 73.1254 64.001 76.026 63.8826 76.1994C62.6531 78.0009 61.2919 79.7567 60.1757 81.6324C59.079 83.4753 62.5181 80.5107 62.701 80.3581C64.0024 79.2725 65.3701 78.2336 66.5702 77.0335C67.5745 76.0292 65.7179 77.8449 65.6261 77.9428C64.542 79.0998 63.5328 80.3414 62.759 81.7309C62.5846 82.0439 61.8483 83.256 62.2956 83.5959C62.9304 84.0784 64.7162 82.0874 65.0353 81.783C66.2961 80.5804 69.9161 76.8281 68.5627 77.9254C67.3551 78.9046 66.2979 80.2347 65.2901 81.4065C64.1204 82.7666 63.0473 84.1966 62.0929 85.7159C61.6451 86.4285 61.4998 87.0006 62.4925 86.2082C64.2411 84.8126 65.828 83.1914 67.3058 81.5166C68.6558 79.9866 70.1897 78.6291 71.5225 77.0914C72.0122 76.5262 70.3454 77.8105 70.2018 77.966C68.1069 80.2355 66.4987 83.4135 65.4349 86.3009" stroke="#3FA692" stroke-width="3" stroke-linecap="round"/>
</svg>
