<svg width="1002" height="955" viewBox="0 0 1002 955" fill="none" xmlns="http://www.w3.org/2000/svg">
<circle cx="500.5" cy="495.5" r="457" stroke="black"/>
<path d="M828.5 498.5C828.5 680.761 682.985 828.5 503.5 828.5C324.015 828.5 178.5 680.761 178.5 498.5C178.5 316.239 324.015 168.5 503.5 168.5C682.985 168.5 828.5 316.239 828.5 498.5Z" stroke="black"/>
<circle cx="503.5" cy="498.5" r="208" stroke="black"/>
<rect x="278.595" y="48.509" width="198" height="62" rx="31" transform="rotate(-12.2991 278.595 48.509)" stroke="black"/>
<rect x="583.22" y="138.063" width="198" height="62" rx="31" transform="rotate(29.5085 583.22 138.063)" stroke="black"/>
<rect x="90.7546" y="651.699" width="198" height="62" rx="31" transform="rotate(53.8374 90.7546 651.699)" stroke="black"/>
<rect x="281.437" y="42.7726" width="198" height="62" rx="31" transform="rotate(-12.2991 281.437 42.7726)" fill="#F8962F" stroke="black"/>
<rect x="589.162" y="135.681" width="198" height="62" rx="31" transform="rotate(29.5085 589.162 135.681)" fill="#FFC62D" stroke="black"/>
<rect x="97.1511" y="651.976" width="198" height="62" rx="31" transform="rotate(53.8374 97.1511 651.976)" fill="#3FA692" stroke="black"/>
<path d="M318.534 55.3515L317.954 52.6939L315.203 53.2938L315.782 55.9513L318.534 55.3515ZM322.641 75.0897L319.116 58.9254L316.709 59.4503L320.233 75.6145L322.641 75.0897ZM328.617 64.0921C328.454 63.3417 328.418 62.6289 328.511 61.9536C328.625 61.2738 328.853 60.6673 329.195 60.1341C329.533 59.5801 329.969 59.1249 330.503 58.7684C331.052 58.3864 331.671 58.1205 332.359 57.9705C333.797 57.657 334.998 57.8539 335.96 58.5611C336.922 59.2684 337.566 60.3725 337.894 61.8732L339.952 71.3154L342.36 70.7905L340.171 60.7543C339.962 59.7955 339.626 58.9519 339.161 58.2234C338.718 57.4904 338.163 56.9016 337.499 56.457C336.85 55.987 336.107 55.6797 335.267 55.5352C334.449 55.3861 333.55 55.4184 332.57 55.632C331.173 55.9365 330.106 56.4968 329.366 57.313C328.623 58.1083 328.075 59.0027 327.724 59.9963L327.111 57.1824L324.703 57.7073L328.228 73.8716L330.635 73.3467L328.617 64.0921ZM360.776 63.8933L358.93 62.7891C358.434 63.6178 357.829 64.3501 357.117 64.9859C356.424 65.6171 355.557 66.0463 354.515 66.2735C353.661 66.4599 352.834 66.4762 352.037 66.3226C351.255 66.1436 350.532 65.8318 349.868 65.3872C349.219 64.9172 348.655 64.3306 348.174 63.6276C347.714 62.92 347.389 62.1285 347.198 61.253C347.007 60.3776 346.976 59.5329 347.104 58.7189C347.227 57.8841 347.488 57.1284 347.887 56.4521C348.281 55.7548 348.798 55.1726 349.438 54.7055C350.074 54.2175 350.799 53.8848 351.612 53.7076C352.716 53.4668 353.696 53.5042 354.551 53.82C355.427 54.1313 356.261 54.55 357.052 55.0761L358.279 53.0401C357.817 52.7259 357.329 52.4393 356.814 52.1804C356.299 51.9215 355.754 51.7238 355.178 51.5873C354.598 51.4299 353.979 51.3465 353.322 51.3369C352.665 51.3273 351.951 51.4066 351.179 51.5747C349.991 51.8338 348.937 52.3039 348.015 52.9851C347.11 53.641 346.367 54.4363 345.784 55.3711C345.223 56.3014 344.847 57.3331 344.658 58.4661C344.464 59.5784 344.491 60.7077 344.741 61.8541C344.991 63.0005 345.436 64.0389 346.076 64.9694C346.715 65.8998 347.484 66.6711 348.381 67.2833C349.295 67.8701 350.303 68.2837 351.403 68.5241C352.52 68.7392 353.672 68.7172 354.86 68.4581C356.382 68.1264 357.59 67.5574 358.484 66.7511C359.399 65.9402 360.163 64.9876 360.776 63.8933ZM367.982 65.2044L363.006 42.3806L360.598 42.9054L365.574 65.7293L367.982 65.2044ZM383.537 54.575C383.7 55.3254 383.725 56.0405 383.611 56.7203C383.498 57.4002 383.272 58.0171 382.934 58.5711C382.613 59.0997 382.177 59.5549 381.627 59.9368C381.093 60.2934 380.483 60.5466 379.795 60.6966C378.357 61.0101 377.156 60.8133 376.194 60.106C375.232 59.3987 374.588 58.2946 374.26 56.7939L372.202 47.3517L369.794 47.8766L371.983 57.9128C372.192 58.8716 372.518 59.7175 372.962 60.4505C373.426 61.1789 373.983 61.7782 374.631 62.2482C375.295 62.6928 376.037 62.9897 376.856 63.1387C377.695 63.2832 378.604 63.2487 379.584 63.0351C380.981 62.7306 382.051 62.1807 382.794 61.3854C383.534 60.5692 384.079 59.6644 384.43 58.6708L385.043 61.4847L387.419 60.9666L383.895 44.8023L381.519 45.3204L383.537 54.575ZM402.946 52.8326L402.932 52.77C402.773 52.0405 402.483 51.4597 402.061 51.0276C401.66 50.591 401.171 50.25 400.593 50.0048C400.016 49.7595 399.39 49.5904 398.714 49.4974C398.06 49.3999 397.399 49.3255 396.733 49.2743C396.155 49.2257 395.597 49.1725 395.061 49.1148C394.524 49.0572 394.035 48.9673 393.594 48.8452C393.173 48.7185 392.819 48.5447 392.53 48.3237C392.237 48.0819 392.05 47.7734 391.968 47.3982L391.955 47.3357C391.809 46.6687 391.97 46.055 392.437 45.4946C392.9 44.9133 393.611 44.5182 394.57 44.3091C395.362 44.1364 396.196 44.1074 397.073 44.222C397.966 44.3112 398.839 44.5137 399.694 44.8295L400.393 42.7775C399.441 42.4173 398.421 42.1923 397.331 42.1023C396.237 41.9915 395.19 42.0451 394.189 42.2632C393.397 42.4359 392.682 42.7119 392.044 43.0911C391.423 43.445 390.907 43.8849 390.498 44.4108C390.105 44.9114 389.837 45.483 389.693 46.1257C389.545 46.7476 389.546 47.4024 389.695 48.0902L389.709 48.1528C389.873 48.9031 390.165 49.4944 390.587 49.9265C391.03 50.354 391.537 50.68 392.11 50.9044C392.704 51.1243 393.339 51.2807 394.014 51.3737C394.706 51.4412 395.385 51.5007 396.051 51.5519C396.604 51.5842 397.138 51.6315 397.654 51.6937C398.19 51.7514 398.671 51.854 399.096 52.0015C399.517 52.1281 399.863 52.3146 400.135 52.561C400.428 52.8028 400.618 53.1217 400.704 53.5178L400.718 53.5803C400.891 54.3724 400.714 55.0658 400.189 55.6607C399.664 56.2556 398.911 56.6599 397.931 56.8734C396.973 57.0825 395.975 57.1143 394.939 56.969C393.924 56.8192 392.906 56.5062 391.885 56.0301L391.041 58.0155C392.117 58.5451 393.297 58.8992 394.58 59.0779C395.859 59.2358 397.082 59.1874 398.249 58.933C399.062 58.7557 399.79 58.4879 400.432 58.1295C401.091 57.7457 401.625 57.2909 402.035 56.7649C402.465 56.2344 402.762 55.6456 402.927 54.9983C403.108 54.3257 403.114 53.6038 402.946 52.8326ZM406.926 36.0802L406.347 33.4226L403.595 34.0225L404.175 36.6801L406.926 36.0802ZM411.033 55.8184L407.509 39.6541L405.101 40.179L408.625 56.3433L411.033 55.8184ZM430.706 43.0466C430.456 41.9002 430.011 40.8617 429.372 39.9313C428.732 39.0008 427.956 38.2422 427.042 37.6554C426.123 37.0478 425.095 36.6388 423.957 36.4283C422.836 36.1924 421.671 36.2062 420.462 36.4698C419.232 36.7379 418.146 37.2148 417.204 37.9006C416.278 38.561 415.524 39.3586 414.942 40.2934C414.36 41.2282 413.974 42.2622 413.784 43.3953C413.59 44.5075 413.618 45.6368 413.868 46.7832C414.118 47.9296 414.562 48.968 415.202 49.8985C415.841 50.8289 416.62 51.598 417.539 52.2056C418.453 52.7924 419.471 53.2037 420.592 53.4396C421.709 53.6547 422.871 53.6304 424.08 53.3668C425.289 53.1032 426.367 52.639 427.314 51.9741C428.256 51.2883 429.018 50.478 429.601 49.5432C430.183 48.6084 430.571 47.5848 430.765 46.4726C430.976 45.335 430.956 44.193 430.706 43.0466ZM428.25 43.6476C428.441 44.523 428.474 45.3782 428.351 46.213C428.222 47.027 427.959 47.7722 427.561 48.4486C427.162 49.125 426.635 49.7095 425.978 50.202C425.316 50.6737 424.548 51.005 423.673 51.1959C422.818 51.3822 421.99 51.3881 421.187 51.2137C420.385 51.0392 419.652 50.7297 418.987 50.2851C418.343 49.8359 417.781 49.2598 417.3 48.5567C416.84 47.8491 416.515 47.0576 416.324 46.1822C416.133 45.3067 416.102 44.462 416.23 43.648C416.354 42.8132 416.604 42.0598 416.982 41.388C417.376 40.6908 417.903 40.1063 418.565 39.6346C419.221 39.142 419.988 38.8003 420.863 38.6095C421.718 38.4232 422.546 38.4172 423.348 38.5917C424.15 38.7661 424.886 39.0861 425.555 39.5515C426.22 39.9962 426.782 40.5723 427.242 41.2799C427.723 41.9829 428.059 42.7722 428.25 43.6476ZM437.222 40.4141C437.059 39.6637 437.023 38.9509 437.116 38.2756C437.23 37.5957 437.458 36.9892 437.801 36.4561C438.138 35.9021 438.574 35.4468 439.108 35.0903C439.658 34.7084 440.276 34.4425 440.964 34.2925C442.402 33.9789 443.603 34.1758 444.565 34.8831C445.527 35.5904 446.171 36.6944 446.499 38.1952L448.557 47.6374L450.965 47.1125L448.777 37.0763C448.568 36.1174 448.231 35.2738 447.766 34.5454C447.323 33.8124 446.768 33.2236 446.104 32.779C445.455 32.3089 444.712 32.0017 443.872 31.8572C443.054 31.7081 442.155 31.7404 441.175 31.954C439.778 32.2584 438.711 32.8187 437.972 33.6349C437.228 34.4302 436.68 35.3247 436.329 36.3183L435.716 33.5044L433.308 34.0293L436.833 50.1936L439.24 49.6687L437.222 40.4141Z" fill="white"/>
<path d="M612.03 195.161L623.536 174.831L621.392 173.617L616.474 182.306C616.427 181.74 616.322 181.166 616.161 180.585C616.019 180.014 615.803 179.463 615.515 178.932C615.227 178.402 614.852 177.895 614.39 177.413C613.927 176.931 613.362 176.5 612.694 176.122C611.821 175.628 610.877 175.326 609.86 175.217C608.854 175.089 607.842 175.166 606.825 175.448C605.817 175.711 604.856 176.197 603.941 176.904C603.026 177.612 602.232 178.56 601.559 179.748C600.887 180.936 600.483 182.105 600.347 183.254C600.212 184.403 600.285 185.486 600.567 186.504C600.86 187.503 601.32 188.4 601.948 189.197C602.575 189.994 603.326 190.639 604.198 191.133C604.867 191.511 605.517 191.769 606.15 191.906C606.802 192.055 607.434 192.106 608.048 192.061C608.662 192.017 609.255 191.899 609.829 191.709C610.421 191.529 610.986 191.31 611.525 191.051L609.886 193.947L612.03 195.161ZM614.051 186.781C613.579 187.617 612.994 188.303 612.298 188.841C611.63 189.37 610.91 189.734 610.135 189.933C609.379 190.143 608.607 190.208 607.818 190.129C607.058 190.043 606.344 189.81 605.676 189.432C604.989 189.043 604.412 188.545 603.947 187.938C603.481 187.332 603.153 186.656 602.962 185.91C602.782 185.146 602.747 184.342 602.857 183.498C602.986 182.663 603.292 181.819 603.775 180.965C604.269 180.093 604.84 179.387 605.489 178.847C606.167 178.299 606.86 177.919 607.568 177.707C608.305 177.487 609.049 177.43 609.798 177.535C610.558 177.622 611.291 177.865 611.996 178.264C612.664 178.642 613.226 179.144 613.681 179.77C614.165 180.387 614.512 181.073 614.722 181.829C614.95 182.596 615.009 183.401 614.898 184.246C614.807 185.101 614.524 185.946 614.051 186.781ZM629.258 181.746L630.598 179.379L628.147 177.992L626.807 180.359L629.258 181.746ZM619.161 199.197L627.31 184.799L625.166 183.585L617.017 197.983L619.161 199.197ZM631.317 202.841L633.233 188.151L630.866 186.811L628.892 204.851L630.786 205.923L645.264 194.96L642.953 193.652L631.317 202.841ZM644.546 205.107L655.964 211.569C656.056 211.449 656.134 211.334 656.197 211.223C656.26 211.111 656.317 211.009 656.37 210.916C656.969 209.858 657.383 208.781 657.611 207.684C657.839 206.588 657.86 205.533 657.673 204.521C657.487 203.508 657.086 202.57 656.471 201.707C655.867 200.826 655.035 200.086 653.977 199.487C652.975 198.92 651.936 198.589 650.861 198.496C649.805 198.413 648.776 198.541 647.775 198.882C646.784 199.203 645.849 199.728 644.971 200.457C644.122 201.178 643.403 202.058 642.815 203.097C642.184 204.211 641.792 205.338 641.638 206.476C641.503 207.625 641.571 208.718 641.842 209.754C642.124 210.771 642.596 211.713 643.259 212.578C643.932 213.424 644.76 214.126 645.744 214.683C647.118 215.461 648.406 215.871 649.607 215.914C650.819 215.938 652.019 215.746 653.205 215.339L652.546 213.385C651.605 213.661 650.668 213.78 649.733 213.742C648.818 213.714 647.859 213.416 646.856 212.849C646.225 212.492 645.679 212.048 645.219 211.518C644.77 210.969 644.429 210.36 644.196 209.688C643.973 208.999 643.881 208.273 643.921 207.51C643.97 206.73 644.179 205.928 644.546 205.107ZM645.444 203.519C645.918 202.856 646.453 202.3 647.049 201.853C647.645 201.406 648.268 201.085 648.918 200.889C649.579 200.675 650.247 200.599 650.922 200.663C651.607 200.707 652.266 200.908 652.897 201.266C653.621 201.676 654.173 202.172 654.554 202.755C654.964 203.33 655.229 203.946 655.348 204.602C655.485 205.268 655.488 205.956 655.356 206.666C655.243 207.386 655.03 208.086 654.718 208.768L645.444 203.519ZM661.512 215.591C662.121 214.514 662.806 213.652 663.565 213.003C664.335 212.336 665.137 211.87 665.973 211.608C666.808 211.345 667.647 211.269 668.492 211.379C669.355 211.5 670.177 211.781 670.956 212.222L671.123 212.317L672.432 210.005C671.755 209.598 671.067 209.319 670.368 209.168C669.669 209.018 668.964 208.986 668.252 209.074C667.551 209.143 666.864 209.318 666.191 209.598C665.517 209.879 664.882 210.243 664.286 210.69L666.414 206.93L664.269 205.717L656.121 220.115L658.265 221.328L661.512 215.591ZM679.579 228.06L679.61 228.004C679.978 227.354 680.149 226.728 680.123 226.124C680.115 225.532 679.977 224.951 679.711 224.384C679.444 223.816 679.089 223.272 678.648 222.753C678.225 222.244 677.783 221.748 677.32 221.266C676.922 220.844 676.541 220.433 676.18 220.032C675.818 219.631 675.514 219.238 675.266 218.853C675.037 218.478 674.889 218.112 674.821 217.755C674.764 217.38 674.83 217.025 675.019 216.691L675.051 216.635C675.387 216.041 675.916 215.691 676.638 215.585C677.37 215.46 678.164 215.639 679.018 216.123C679.723 216.522 680.364 217.057 680.941 217.726C681.547 218.388 682.064 219.121 682.49 219.927L684.379 218.863C683.91 217.96 683.299 217.112 682.547 216.319C681.805 215.507 680.989 214.848 680.098 214.344C679.392 213.945 678.675 213.674 677.947 213.531C677.248 213.381 676.57 213.365 675.915 213.484C675.288 213.595 674.707 213.842 674.171 214.226C673.646 214.59 673.21 215.079 672.864 215.692L672.832 215.747C672.454 216.416 672.278 217.052 672.304 217.655C672.349 218.268 672.51 218.85 672.788 219.399C673.084 219.959 673.452 220.499 673.894 221.018C674.364 221.529 674.831 222.026 675.293 222.509C675.684 222.901 676.05 223.293 676.393 223.683C676.755 224.084 677.045 224.481 677.264 224.874C677.493 225.249 677.627 225.619 677.665 225.984C677.722 226.359 677.651 226.723 677.451 227.076L677.42 227.132C677.02 227.837 676.427 228.237 675.639 228.33C674.85 228.423 674.02 228.223 673.147 227.729C672.293 227.246 671.529 226.604 670.853 225.805C670.196 225.017 669.646 224.105 669.203 223.07L667.25 223.987C667.699 225.099 668.342 226.149 669.18 227.138C670.028 228.108 670.972 228.888 672.012 229.476C672.736 229.886 673.457 230.171 674.174 230.332C674.921 230.485 675.622 230.502 676.278 230.383C676.952 230.275 677.567 230.034 678.121 229.661C678.704 229.28 679.19 228.747 679.579 228.06ZM693.713 218.226L695.053 215.859L692.602 214.472L691.263 216.839L693.713 218.226ZM683.616 235.676L691.765 221.278L689.621 220.065L681.472 234.463L683.616 235.676ZM698.566 227.628L703.133 230.213L704.205 228.319L699.638 225.734L702.097 221.39L699.952 220.176L697.494 224.52L695.489 223.386L694.417 225.279L696.422 226.414L691.504 235.103C691.094 235.827 690.845 236.507 690.755 237.142C690.665 237.778 690.701 238.362 690.865 238.896C691.058 239.422 691.363 239.901 691.78 240.333C692.197 240.766 692.693 241.145 693.269 241.47C693.789 241.765 694.284 241.972 694.756 242.091C695.236 242.24 695.719 242.318 696.206 242.323L697.246 240.485C696.77 240.461 696.343 240.391 695.967 240.276C695.609 240.172 695.245 240.015 694.874 239.805C694.149 239.395 693.664 238.887 693.419 238.282C693.173 237.678 693.302 236.929 693.806 236.038L698.566 227.628ZM704.758 239.185L716.177 245.647C716.269 245.528 716.346 245.412 716.409 245.301C716.472 245.19 716.53 245.088 716.583 244.995C717.182 243.936 717.595 242.859 717.824 241.763C718.052 240.666 718.073 239.612 717.886 238.599C717.699 237.586 717.298 236.649 716.684 235.786C716.079 234.905 715.248 234.164 714.19 233.566C713.187 232.998 712.149 232.668 711.074 232.574C710.018 232.491 708.989 232.62 707.987 232.96C706.997 233.282 706.062 233.807 705.184 234.535C704.335 235.256 703.616 236.136 703.028 237.176C702.397 238.29 702.005 239.416 701.851 240.554C701.715 241.703 701.783 242.796 702.055 243.832C702.337 244.85 702.809 245.791 703.472 246.656C704.144 247.503 704.973 248.205 705.957 248.762C707.331 249.539 708.619 249.949 709.82 249.992C711.032 250.016 712.231 249.825 713.418 249.417L712.759 247.463C711.818 247.74 710.88 247.859 709.946 247.82C709.03 247.792 708.071 247.495 707.069 246.927C706.437 246.57 705.892 246.126 705.432 245.596C704.982 245.048 704.641 244.438 704.408 243.767C704.186 243.077 704.094 242.351 704.133 241.589C704.183 240.808 704.391 240.007 704.758 239.185ZM705.657 237.598C706.13 236.934 706.665 236.379 707.261 235.932C707.858 235.485 708.481 235.163 709.131 234.968C709.792 234.753 710.459 234.678 711.134 234.741C711.82 234.786 712.478 234.987 713.11 235.344C713.834 235.754 714.386 236.25 714.767 236.834C715.177 237.409 715.441 238.024 715.56 238.68C715.698 239.346 715.701 240.034 715.569 240.744C715.455 241.464 715.243 242.165 714.931 242.846L705.657 237.598ZM715.636 231.92L720.485 230.694L718.84 228.402L713.909 230.943L715.636 231.92Z" fill="white"/>
<path d="M98.5576 710.061L106.299 720.654C106.433 720.583 106.551 720.51 106.654 720.434C106.757 720.359 106.852 720.289 106.938 720.226C107.92 719.509 108.741 718.698 109.401 717.793C110.06 716.888 110.514 715.935 110.761 714.936C111.008 713.936 111.029 712.916 110.824 711.877C110.637 710.825 110.184 709.808 109.466 708.826C108.787 707.896 107.976 707.167 107.036 706.639C106.107 706.129 105.117 705.822 104.064 705.719C103.029 705.604 101.961 705.698 100.861 706C99.7901 706.307 98.7726 706.813 97.8081 707.518C96.7747 708.273 95.9533 709.137 95.3439 710.111C94.7471 711.102 94.3589 712.126 94.1795 713.182C94.0173 714.225 94.0597 715.278 94.3069 716.339C94.5713 717.388 95.0371 718.368 95.7043 719.281C96.6359 720.556 97.6402 721.46 98.7175 721.994C99.8119 722.515 100.984 722.835 102.232 722.953L102.437 720.901C101.466 720.765 100.562 720.487 99.7269 720.067C98.9041 719.664 98.1528 718.998 97.473 718.068C97.045 717.482 96.7306 716.853 96.5299 716.181C96.3463 715.496 96.2866 714.8 96.3508 714.092C96.4323 713.372 96.6478 712.673 96.9976 711.994C97.3645 711.303 97.8845 710.659 98.5576 710.061ZM100.03 708.985C100.735 708.576 101.451 708.29 102.178 708.128C102.906 707.967 103.606 707.93 104.279 708.02C104.969 708.097 105.609 708.303 106.198 708.639C106.804 708.962 107.321 709.416 107.749 710.002C108.24 710.674 108.539 711.354 108.646 712.042C108.782 712.735 108.77 713.405 108.608 714.051C108.459 714.715 108.178 715.343 107.766 715.936C107.366 716.545 106.883 717.096 106.318 717.588L100.03 708.985ZM111.462 707.923L116.386 708.803L115.831 706.038L110.291 706.321L111.462 707.923ZM114.537 739.517L125.568 731.454L124.114 729.464L121.712 731.22C121.872 730.681 121.99 730.119 122.065 729.535C122.141 728.951 122.142 728.356 122.068 727.749C122.007 727.16 121.851 726.548 121.598 725.913C121.375 725.283 121.038 724.658 120.584 724.038C120.005 723.246 119.292 722.578 118.446 722.034C117.599 721.49 116.686 721.127 115.707 720.944C114.745 720.749 113.736 720.76 112.679 720.977C111.652 721.199 110.648 721.669 109.666 722.386C108.685 723.104 107.932 723.918 107.409 724.829C106.898 725.757 106.581 726.715 106.458 727.704C106.352 728.68 106.423 729.645 106.672 730.6C106.95 731.559 107.385 732.443 107.977 733.253C108.871 734.476 109.902 735.307 111.07 735.749C112.237 736.19 113.423 736.42 114.626 736.439L113.05 737.591C111.483 738.736 109.982 739.159 108.548 738.86C107.096 738.573 105.829 737.689 104.747 736.208C104.042 735.244 103.527 734.232 103.203 733.175C102.879 732.117 102.709 730.999 102.694 729.821L100.483 730.049C100.518 731.398 100.751 732.694 101.184 733.937C101.617 735.18 102.242 736.361 103.06 737.48C103.816 738.514 104.633 739.343 105.513 739.968C106.405 740.611 107.341 741.024 108.32 741.206C109.295 741.419 110.3 741.384 111.336 741.103C112.385 740.838 113.452 740.31 114.537 739.517ZM118.152 733.942C117.463 734.445 116.733 734.767 115.963 734.907C115.211 735.034 114.467 735.01 113.731 734.834C113.007 734.676 112.319 734.386 111.668 733.964C111.033 733.529 110.483 732.993 110.017 732.356C109.564 731.736 109.233 731.066 109.024 730.347C108.845 729.632 108.796 728.915 108.878 728.195C108.989 727.479 109.226 726.791 109.588 726.13C109.98 725.473 110.521 724.893 111.21 724.389C111.899 723.886 112.607 723.553 113.334 723.392C114.079 723.217 114.8 723.192 115.499 723.316C116.209 723.457 116.87 723.728 117.479 724.128C118.101 724.545 118.645 725.072 119.111 725.71C119.577 726.347 119.912 727.04 120.116 727.789C120.337 728.526 120.413 729.263 120.344 730C120.288 730.755 120.077 731.478 119.71 732.169C119.36 732.847 118.84 733.438 118.152 733.942ZM130.772 741.882C131.691 743.139 132.093 744.339 131.976 745.481C131.889 746.628 131.243 747.642 130.038 748.523L129.573 748.863C129.304 748.134 128.989 747.413 128.626 746.701C128.264 745.988 127.768 745.201 127.139 744.34C126.522 743.496 125.861 742.79 125.155 742.222C124.462 741.672 123.746 741.27 123.007 741.018C122.28 740.783 121.54 740.729 120.788 740.856C120.052 740.971 119.332 741.286 118.625 741.802C117.919 742.318 117.408 742.903 117.093 743.556C116.79 744.227 116.628 744.927 116.606 745.656C116.614 746.39 116.746 747.113 117.002 747.824C117.27 748.553 117.631 749.227 118.084 749.847C118.953 751.036 119.903 751.848 120.935 752.283C121.979 752.735 122.972 752.974 123.915 752.998L121.9 754.471L123.297 756.383L131.461 750.416C133.235 749.119 134.211 747.653 134.389 746.016C134.584 744.368 134.015 742.63 132.68 740.805C131.963 739.823 131.224 739.029 130.463 738.422C129.72 737.802 128.905 737.248 128.02 736.76L126.826 738.543C127.572 738.949 128.264 739.408 128.902 739.919C129.57 740.435 130.193 741.09 130.772 741.882ZM125.817 745.623C126.421 746.449 126.896 747.225 127.241 747.951C127.599 748.693 127.892 749.365 128.119 749.965L126.827 750.909C126.293 751.299 125.714 751.538 125.09 751.624C124.496 751.715 123.884 751.673 123.255 751.499C122.655 751.329 122.059 751.038 121.467 750.625C120.905 750.217 120.397 749.703 119.944 749.083C119.616 748.635 119.362 748.161 119.18 747.659C119.011 747.175 118.925 746.696 118.923 746.222C118.937 745.736 119.039 745.279 119.228 744.85C119.429 744.439 119.745 744.076 120.176 743.761C121.037 743.131 121.963 742.97 122.953 743.277C123.944 743.583 124.898 744.365 125.817 745.623ZM127.982 762.792L146.841 749.008L145.387 747.019L126.528 760.803L127.982 762.792ZM149.331 757.838L151.527 756.233L149.866 753.96L147.67 755.565L149.331 757.838ZM132.942 769.579L146.299 759.817L144.845 757.828L131.488 767.59L132.942 769.579ZM149.88 768.404L152.977 772.641L154.733 771.357L151.637 767.12L155.667 764.175L154.213 762.185L150.183 765.131L148.823 763.271L147.066 764.555L148.426 766.415L140.365 772.306C139.694 772.797 139.186 773.314 138.842 773.856C138.498 774.398 138.291 774.946 138.22 775.499C138.179 776.058 138.26 776.62 138.462 777.186C138.664 777.751 138.96 778.301 139.35 778.835C139.703 779.317 140.069 779.71 140.45 780.014C140.825 780.347 141.234 780.616 141.675 780.822L143.38 779.576C142.956 779.358 142.596 779.119 142.301 778.859C142.018 778.616 141.751 778.323 141.499 777.978C141.008 777.307 140.775 776.645 140.8 775.992C140.825 775.34 141.251 774.711 142.078 774.107L149.88 768.404ZM150.761 781.486L158.503 792.079C158.636 792.008 158.754 791.935 158.858 791.859C158.961 791.783 159.056 791.714 159.142 791.651C160.124 790.934 160.944 790.123 161.604 789.218C162.264 788.313 162.717 787.36 162.964 786.36C163.211 785.361 163.232 784.341 163.028 783.302C162.84 782.25 162.387 781.233 161.67 780.251C160.99 779.321 160.18 778.592 159.239 778.064C158.311 777.554 157.321 777.247 156.268 777.144C155.232 777.029 154.165 777.123 153.064 777.425C151.994 777.732 150.976 778.237 150.012 778.942C148.978 779.698 148.157 780.562 147.547 781.536C146.951 782.527 146.562 783.551 146.383 784.607C146.221 785.65 146.263 786.703 146.51 787.764C146.775 788.813 147.241 789.793 147.908 790.706C148.839 791.981 149.844 792.885 150.921 793.419C152.015 793.94 153.187 794.26 154.436 794.377L154.64 792.325C153.669 792.19 152.766 791.912 151.93 791.492C151.108 791.089 150.356 790.423 149.677 789.493C149.249 788.907 148.934 788.278 148.733 787.606C148.55 786.921 148.49 786.224 148.554 785.517C148.636 784.797 148.851 784.098 149.201 783.419C149.568 782.728 150.088 782.084 150.761 781.486ZM152.234 780.41C152.938 780.001 153.655 779.715 154.382 779.553C155.109 779.392 155.81 779.355 156.483 779.445C157.173 779.522 157.813 779.728 158.402 780.064C159.008 780.387 159.525 780.841 159.953 781.427C160.444 782.099 160.743 782.779 160.849 783.467C160.986 784.16 160.973 784.83 160.812 785.476C160.663 786.14 160.382 786.768 159.969 787.36C159.569 787.97 159.087 788.521 158.522 789.013L152.234 780.41ZM163.665 779.348L168.589 780.228L168.034 777.462L162.495 777.746L163.665 779.348Z" fill="white"/>
<rect x="846.534" y="750.19" width="198" height="62" rx="31" transform="rotate(-71.3304 846.534 750.19)" stroke="black"/>
<rect x="434.523" y="794.013" width="198" height="62" rx="31" transform="rotate(-2.69394 434.523 794.013)" stroke="black"/>
<rect x="843.075" y="744.802" width="198" height="62" rx="31" transform="rotate(-71.3304 843.075 744.802)" fill="#17214E" stroke="black"/>
<rect x="438.281" y="788.829" width="198" height="62" rx="31" transform="rotate(-2.69394 438.281 788.829)" fill="#E8D9C1" stroke="black"/>
<path d="M892.054 717.57L890.158 718.584C890.613 719.436 890.93 720.331 891.108 721.27C891.293 722.188 891.215 723.152 890.874 724.163C890.594 724.991 890.183 725.708 889.64 726.313C889.085 726.891 888.445 727.351 887.722 727.692C886.986 728.006 886.192 728.188 885.342 728.238C884.499 728.269 883.652 728.14 882.804 727.854C881.955 727.567 881.214 727.159 880.582 726.63C879.93 726.095 879.417 725.482 879.042 724.792C878.646 724.096 878.413 723.353 878.342 722.563C878.251 721.767 878.339 720.974 878.605 720.186C878.967 719.115 879.503 718.294 880.214 717.724C880.932 717.133 881.719 716.634 882.578 716.226L881.463 714.126C880.956 714.36 880.459 714.631 879.972 714.94C879.485 715.248 879.035 715.614 878.622 716.037C878.189 716.454 877.799 716.941 877.452 717.5C877.106 718.058 876.806 718.712 876.554 719.459C876.165 720.611 876.025 721.758 876.135 722.898C876.232 724.012 876.531 725.059 877.033 726.039C877.542 726.999 878.233 727.852 879.107 728.597C879.961 729.336 880.943 729.893 882.055 730.269C883.167 730.645 884.286 730.798 885.413 730.728C886.54 730.658 887.596 730.396 888.583 729.942C889.557 729.46 890.43 728.809 891.202 727.989C891.961 727.142 892.535 726.143 892.925 724.991C893.423 723.515 893.557 722.187 893.325 721.005C893.101 719.804 892.677 718.658 892.054 717.57ZM890.57 710.168C889.397 709.772 888.421 709.262 887.641 708.638C886.841 708.007 886.233 707.306 885.818 706.536C885.403 705.765 885.17 704.954 885.12 704.104C885.076 703.234 885.198 702.374 885.485 701.525L885.546 701.343L883.03 700.493C882.757 701.234 882.612 701.962 882.596 702.677C882.579 703.392 882.681 704.091 882.901 704.773C883.101 705.449 883.402 706.091 883.804 706.699C884.206 707.308 884.683 707.863 885.234 708.365L881.141 706.982L880.353 709.316L896.026 714.612L896.815 712.278L890.57 710.168ZM893.676 698.575L897.876 686.146C897.741 686.078 897.613 686.023 897.492 685.982C897.371 685.941 897.259 685.904 897.158 685.87C896.006 685.48 894.871 685.277 893.751 685.259C892.631 685.241 891.591 685.418 890.632 685.792C889.672 686.166 888.827 686.736 888.095 687.502C887.343 688.261 886.772 689.217 886.383 690.369C886.014 691.46 885.885 692.543 885.995 693.616C886.113 694.669 886.432 695.655 886.955 696.575C887.457 697.487 888.148 698.306 889.029 699.032C889.897 699.73 890.896 700.271 892.028 700.653C893.241 701.063 894.421 701.236 895.568 701.174C896.722 701.091 897.782 700.818 898.749 700.357C899.695 699.889 900.531 699.248 901.256 698.434C901.961 697.614 902.494 696.669 902.856 695.597C903.362 694.102 903.522 692.76 903.338 691.572C903.134 690.377 902.72 689.235 902.097 688.146L900.302 689.161C900.751 690.033 901.044 690.932 901.182 691.856C901.326 692.761 901.214 693.759 900.846 694.85C900.613 695.538 900.28 696.157 899.846 696.708C899.392 697.253 898.857 697.703 898.242 698.058C897.606 698.406 896.911 698.632 896.155 698.737C895.378 698.835 894.552 698.781 893.676 698.575ZM891.948 697.991C891.207 697.651 890.561 697.23 890.01 696.729C889.459 696.227 889.026 695.676 888.712 695.074C888.377 694.465 888.177 693.824 888.112 693.149C888.027 692.467 888.101 691.783 888.333 691.096C888.599 690.307 888.983 689.671 889.484 689.188C889.972 688.677 890.527 688.301 891.149 688.061C891.777 687.801 892.452 687.668 893.174 687.665C893.903 687.641 894.631 687.718 895.359 687.896L891.948 697.991ZM884.495 689.258L882.379 684.726L880.438 686.773L883.86 691.138L884.495 689.258ZM894.331 674.045C894.829 672.569 895.579 671.55 896.58 670.988C897.567 670.398 898.768 670.342 900.183 670.82L900.729 671.005C900.288 671.644 899.88 672.317 899.506 673.024C899.132 673.73 898.774 674.589 898.433 675.6C898.098 676.59 897.902 677.537 897.845 678.441C897.794 679.324 897.878 680.141 898.098 680.891C898.324 681.62 898.706 682.256 899.243 682.798C899.761 683.333 900.434 683.74 901.262 684.02C902.091 684.3 902.863 684.381 903.579 684.263C904.301 684.124 904.967 683.853 905.575 683.451C906.171 683.022 906.686 682.498 907.12 681.879C907.561 681.24 907.905 680.556 908.151 679.829C908.622 678.434 908.738 677.19 908.5 676.096C908.268 674.982 907.891 674.033 907.368 673.248L909.733 674.047L910.491 671.804L900.911 668.567C898.829 667.863 897.068 667.91 895.628 668.707C894.167 669.497 893.075 670.963 892.351 673.106C891.962 674.258 891.738 675.319 891.681 676.291C891.602 677.255 891.619 678.24 891.729 679.246L893.875 679.194C893.777 678.35 893.753 677.52 893.804 676.704C893.841 675.861 894.017 674.974 894.331 674.045ZM900.243 675.941C900.571 674.971 900.932 674.136 901.326 673.436C901.727 672.716 902.107 672.09 902.467 671.558L903.983 672.071C904.609 672.282 905.137 672.618 905.567 673.079C905.984 673.512 906.302 674.036 906.522 674.651C906.729 675.239 906.834 675.894 906.838 676.616C906.828 677.311 906.701 678.022 906.455 678.749C906.277 679.275 906.036 679.756 905.73 680.193C905.432 680.61 905.09 680.956 904.704 681.232C904.298 681.5 903.866 681.68 903.407 681.773C902.954 681.845 902.476 681.796 901.97 681.625C900.96 681.284 900.295 680.62 899.975 679.634C899.655 678.647 899.744 677.416 900.243 675.941ZM899.575 659.225L901.255 654.253L899.193 653.556L897.513 658.528L892.784 656.93L891.995 659.264L896.725 660.862L895.987 663.045L898.049 663.742L898.786 661.559L908.245 664.755C909.033 665.021 909.748 665.139 910.389 665.108C911.03 665.077 911.597 664.931 912.091 664.669C912.571 664.381 912.984 663.992 913.33 663.501C913.676 663.01 913.955 662.451 914.167 661.824C914.358 661.258 914.468 660.733 914.497 660.247C914.553 659.748 914.538 659.259 914.452 658.78L912.451 658.103C912.517 658.576 912.529 659.008 912.487 659.399C912.451 659.77 912.365 660.157 912.229 660.562C911.962 661.35 911.555 661.922 911.007 662.277C910.46 662.632 909.701 662.646 908.73 662.318L899.575 659.225ZM898.086 645.538L895.509 644.667L894.607 647.335L897.184 648.206L898.086 645.538ZM917.123 652.174L901.45 646.878L900.661 649.212L916.335 654.508L917.123 652.174ZM918.417 639.549L903.629 640.43L902.758 643.006L920.847 641.552L921.544 639.491L908.054 627.333L907.204 629.849L918.417 639.549ZM906.789 619.781L904.212 618.911L903.31 621.578L905.887 622.449L906.789 619.781ZM925.826 626.417L910.153 621.121L909.364 623.455L925.038 628.751L925.826 626.417ZM915.11 613.247L916.79 608.275L914.729 607.579L913.049 612.55L908.32 610.952L907.531 613.287L912.26 614.885L911.523 617.068L913.584 617.764L914.322 615.581L923.78 618.777C924.568 619.044 925.283 619.161 925.924 619.13C926.565 619.099 927.132 618.953 927.626 618.692C928.106 618.404 928.519 618.014 928.865 617.523C929.211 617.032 929.49 616.473 929.702 615.847C929.893 615.281 930.003 614.755 930.032 614.269C930.088 613.771 930.073 613.281 929.988 612.802L927.987 612.126C928.052 612.598 928.064 613.03 928.022 613.421C927.987 613.792 927.901 614.18 927.764 614.584C927.498 615.372 927.091 615.944 926.543 616.299C925.995 616.655 925.236 616.668 924.266 616.341L915.11 613.247ZM925.297 604.992L929.497 592.562C929.362 592.494 929.234 592.44 929.113 592.399C928.992 592.358 928.88 592.32 928.779 592.286C927.627 591.897 926.491 591.693 925.372 591.675C924.252 591.657 923.212 591.835 922.253 592.209C921.293 592.583 920.448 593.153 919.716 593.919C918.964 594.678 918.393 595.634 918.004 596.786C917.635 597.877 917.506 598.959 917.616 600.032C917.733 601.085 918.053 602.072 918.576 602.991C919.078 603.904 919.769 604.723 920.65 605.449C921.518 606.147 922.517 606.687 923.649 607.07C924.862 607.48 926.042 607.653 927.189 607.59C928.343 607.507 929.403 607.235 930.37 606.774C931.316 606.305 932.152 605.664 932.877 604.851C933.582 604.031 934.115 603.085 934.477 602.014C934.983 600.518 935.143 599.177 934.959 597.988C934.755 596.794 934.341 595.652 933.718 594.563L931.923 595.578C932.372 596.45 932.665 597.348 932.803 598.273C932.947 599.178 932.835 600.176 932.467 601.267C932.234 601.954 931.901 602.574 931.467 603.125C931.013 603.67 930.478 604.119 929.863 604.474C929.227 604.823 928.531 605.049 927.775 605.154C926.999 605.252 926.173 605.198 925.297 604.992ZM923.569 604.408C922.828 604.068 922.182 603.647 921.631 603.145C921.08 602.644 920.647 602.092 920.332 601.491C919.998 600.882 919.798 600.24 919.733 599.565C919.648 598.884 919.722 598.199 919.954 597.512C920.22 596.724 920.604 596.088 921.105 595.604C921.593 595.094 922.148 594.718 922.77 594.478C923.398 594.217 924.073 594.085 924.795 594.081C925.524 594.057 926.252 594.134 926.98 594.313L923.569 604.408ZM916.116 595.675L914 591.143L912.058 593.189L915.481 597.555L916.116 595.675Z" fill="white"/>
<path d="M456.094 820.297C456.069 819.77 456.127 819.283 456.267 818.835C456.422 818.388 456.646 818.003 456.939 817.681C457.232 817.344 457.58 817.085 457.982 816.905C458.399 816.709 458.849 816.6 459.332 816.577C460.343 816.529 461.134 816.8 461.705 817.39C462.276 817.98 462.586 818.802 462.636 819.857L462.948 826.494L464.64 826.414L464.309 819.36C464.277 818.686 464.145 818.076 463.914 817.529C463.697 816.981 463.389 816.518 462.99 816.141C462.604 815.748 462.135 815.454 461.583 815.26C461.045 815.065 460.432 814.983 459.743 815.016C458.762 815.062 457.974 815.319 457.379 815.788C456.784 816.242 456.31 816.785 455.958 817.418L455.865 815.441L454.173 815.52L454.707 826.882L456.4 826.802L456.094 820.297ZM479.123 820.029C479.085 819.223 478.903 818.468 478.576 817.764C478.249 817.06 477.81 816.456 477.257 815.954C476.704 815.436 476.055 815.041 475.308 814.768C474.574 814.48 473.783 814.355 472.933 814.395C472.069 814.436 471.278 814.635 470.561 814.991C469.857 815.333 469.255 815.787 468.753 816.354C468.251 816.921 467.871 817.577 467.612 818.324C467.353 819.055 467.242 819.824 467.28 820.63C467.318 821.436 467.5 822.191 467.827 822.895C468.154 823.599 468.594 824.209 469.147 824.727C469.699 825.229 470.342 825.625 471.075 825.913C471.807 826.187 472.598 826.304 473.448 826.264C474.298 826.224 475.081 826.033 475.799 825.691C476.517 825.334 477.126 824.872 477.628 824.306C478.13 823.739 478.511 823.089 478.77 822.358C479.043 821.611 479.161 820.834 479.123 820.029ZM477.389 820.154C477.418 820.769 477.343 821.353 477.163 821.905C476.983 822.442 476.719 822.917 476.371 823.33C476.023 823.742 475.599 824.078 475.097 824.337C474.595 824.58 474.036 824.717 473.42 824.746C472.82 824.774 472.257 824.683 471.734 824.473C471.21 824.262 470.748 823.969 470.349 823.591C469.964 823.213 469.649 822.758 469.404 822.226C469.173 821.693 469.043 821.119 469.014 820.504C468.985 819.889 469.061 819.313 469.241 818.776C469.421 818.224 469.677 817.742 470.01 817.33C470.357 816.902 470.782 816.567 471.284 816.323C471.786 816.064 472.344 815.921 472.96 815.892C473.56 815.863 474.123 815.954 474.646 816.165C475.17 816.375 475.632 816.676 476.032 817.069C476.432 817.446 476.747 817.901 476.978 818.434C477.223 818.965 477.36 819.539 477.389 820.154ZM483.842 818.992C483.817 818.464 483.875 817.977 484.016 817.53C484.171 817.082 484.395 816.697 484.688 816.375C484.981 816.038 485.328 815.78 485.731 815.599C486.147 815.403 486.597 815.294 487.081 815.271C488.092 815.224 488.883 815.495 489.454 816.085C490.025 816.674 490.335 817.497 490.385 818.552L490.697 825.188L492.389 825.109L492.057 818.054C492.025 817.381 491.894 816.77 491.663 816.223C491.446 815.675 491.138 815.212 490.738 814.835C490.353 814.442 489.884 814.148 489.331 813.954C488.794 813.759 488.18 813.678 487.492 813.71C486.51 813.756 485.722 814.014 485.128 814.482C484.532 814.936 484.059 815.48 483.707 816.113L483.614 814.135L481.921 814.215L482.456 825.576L484.148 825.496L483.842 818.992ZM501.377 818.959L501.293 817.179L495.184 817.467L495.267 819.247L501.377 818.959ZM514.634 822.124L513.51 821.164C513.079 821.668 512.585 822.095 512.029 822.445C511.487 822.793 510.85 822.985 510.118 823.019C509.517 823.047 508.955 822.964 508.432 822.768C507.923 822.557 507.468 822.263 507.069 821.885C506.683 821.492 506.368 821.03 506.123 820.498C505.892 819.966 505.762 819.392 505.733 818.776C505.704 818.161 505.78 817.585 505.96 817.048C506.14 816.496 506.404 816.014 506.751 815.601C507.098 815.174 507.516 814.838 508.003 814.595C508.49 814.337 509.02 814.195 509.591 814.168C510.367 814.131 511.027 814.269 511.571 814.581C512.129 814.893 512.646 815.272 513.122 815.72L514.187 814.48C513.91 814.214 513.612 813.964 513.292 813.73C512.973 813.495 512.626 813.298 512.252 813.14C511.876 812.967 511.467 812.839 511.022 812.757C510.578 812.675 510.085 812.647 509.543 812.673C508.708 812.712 507.939 812.91 507.236 813.266C506.547 813.606 505.952 814.06 505.45 814.627C504.963 815.193 504.59 815.85 504.331 816.596C504.072 817.328 503.961 818.096 503.999 818.902C504.037 819.708 504.22 820.463 504.546 821.167C504.873 821.871 505.306 822.482 505.844 823C506.396 823.503 507.031 823.898 507.75 824.188C508.482 824.462 509.266 824.579 510.101 824.54C511.17 824.489 512.055 824.242 512.753 823.798C513.466 823.353 514.093 822.795 514.634 822.124ZM528.075 817.725C528.037 816.919 527.854 816.165 527.528 815.46C527.201 814.756 526.761 814.153 526.209 813.65C525.656 813.133 525.006 812.738 524.259 812.465C523.526 812.176 522.735 812.052 521.885 812.092C521.021 812.133 520.23 812.331 519.512 812.688C518.809 813.03 518.206 813.484 517.705 814.051C517.203 814.617 516.822 815.274 516.564 816.02C516.305 816.752 516.194 817.521 516.232 818.327C516.27 819.132 516.452 819.887 516.779 820.591C517.106 821.295 517.546 821.906 518.098 822.423C518.651 822.926 519.293 823.321 520.026 823.61C520.759 823.884 521.55 824.001 522.399 823.961C523.249 823.921 524.033 823.73 524.751 823.388C525.469 823.031 526.078 822.569 526.58 822.002C527.082 821.435 527.463 820.786 527.722 820.054C527.995 819.307 528.113 818.531 528.075 817.725ZM526.341 817.851C526.37 818.466 526.294 819.05 526.115 819.601C525.934 820.138 525.67 820.613 525.323 821.026C524.975 821.439 524.55 821.775 524.049 822.033C523.546 822.277 522.987 822.414 522.372 822.442C521.771 822.471 521.209 822.38 520.685 822.169C520.162 821.959 519.7 821.665 519.3 821.288C518.916 820.909 518.6 820.454 518.355 819.922C518.125 819.39 517.995 818.816 517.966 818.201C517.937 817.586 518.013 817.009 518.193 816.472C518.372 815.921 518.629 815.439 518.962 815.027C519.309 814.599 519.733 814.263 520.236 814.02C520.738 813.761 521.296 813.617 521.911 813.588C522.512 813.56 523.074 813.651 523.598 813.861C524.122 814.072 524.584 814.373 524.984 814.765C525.384 815.143 525.699 815.598 525.929 816.13C526.175 816.662 526.312 817.236 526.341 817.851ZM532.794 816.688C532.769 816.161 532.827 815.674 532.967 815.226C533.122 814.779 533.347 814.394 533.64 814.072C533.932 813.735 534.28 813.476 534.682 813.296C535.099 813.1 535.549 812.991 536.033 812.968C537.043 812.92 537.834 813.191 538.405 813.781C538.976 814.371 539.287 815.193 539.336 816.248L539.649 822.885L541.341 822.805L541.009 815.751C540.977 815.077 540.846 814.467 540.614 813.92C540.398 813.372 540.09 812.909 539.69 812.532C539.305 812.139 538.836 811.845 538.283 811.651C537.745 811.456 537.132 811.374 536.444 811.407C535.462 811.453 534.674 811.71 534.079 812.179C533.484 812.633 533.01 813.176 532.658 813.809L532.565 811.832L530.873 811.911L531.408 823.273L533.1 823.193L532.794 816.688ZM546.724 811.209L546.681 810.286C546.605 808.675 547.226 807.838 548.545 807.776C548.838 807.762 549.11 807.779 549.362 807.826C549.613 807.858 549.895 807.911 550.207 807.984L550.137 806.512C549.854 806.422 549.565 806.363 549.27 806.332C548.99 806.302 548.652 806.295 548.256 806.314C547.157 806.366 546.323 806.728 545.752 807.401C545.197 808.073 544.948 809.032 545.007 810.277L545.053 811.266L543.493 811.339L543.562 812.812L545.122 812.738L545.587 822.606L547.279 822.526L546.815 812.659L550.397 812.49L550.328 811.04L546.724 811.209ZM563.678 816.05C563.64 815.244 563.458 814.489 563.131 813.785C562.804 813.081 562.365 812.478 561.812 811.975C561.259 811.458 560.609 811.063 559.862 810.79C559.129 810.501 558.338 810.377 557.488 810.417C556.624 810.457 555.833 810.656 555.116 811.013C554.412 811.354 553.81 811.808 553.308 812.375C552.806 812.942 552.426 813.599 552.167 814.345C551.908 815.077 551.797 815.845 551.835 816.651C551.873 817.457 552.055 818.212 552.382 818.916C552.709 819.62 553.149 820.231 553.702 820.748C554.254 821.251 554.897 821.646 555.63 821.935C556.362 822.209 557.153 822.326 558.003 822.286C558.852 822.246 559.636 822.055 560.354 821.712C561.072 821.356 561.681 820.894 562.183 820.327C562.685 819.76 563.066 819.111 563.325 818.379C563.598 817.632 563.716 816.856 563.678 816.05ZM561.944 816.176C561.973 816.791 561.897 817.374 561.718 817.926C561.538 818.463 561.274 818.938 560.926 819.351C560.578 819.764 560.154 820.099 559.652 820.358C559.149 820.602 558.591 820.738 557.975 820.767C557.375 820.795 556.812 820.704 556.289 820.494C555.765 820.284 555.303 819.99 554.904 819.612C554.519 819.234 554.204 818.779 553.958 818.247C553.728 817.715 553.598 817.141 553.569 816.526C553.54 815.91 553.616 815.334 553.796 814.797C553.976 814.245 554.232 813.763 554.565 813.351C554.912 812.924 555.337 812.588 555.839 812.344C556.341 812.086 556.899 811.942 557.515 811.913C558.115 811.885 558.678 811.976 559.201 812.186C559.725 812.396 560.187 812.698 560.587 813.09C560.987 813.468 561.302 813.923 561.533 814.455C561.778 814.987 561.915 815.56 561.944 816.176ZM568.49 816.991C568.45 816.141 568.532 815.388 568.736 814.733C568.94 814.062 569.236 813.498 569.626 813.039C570.015 812.58 570.476 812.228 571.007 811.983C571.554 811.737 572.135 811.6 572.75 811.571L572.882 811.564L572.796 809.74C572.253 809.751 571.751 809.841 571.289 810.01C570.827 810.178 570.405 810.418 570.023 810.73C569.641 811.027 569.305 811.38 569.016 811.79C568.727 812.2 568.491 812.645 568.308 813.123L568.168 810.156L566.476 810.236L567.011 821.597L568.703 821.518L568.49 816.991ZM584.488 811.415C584.15 810.785 583.67 810.271 583.05 809.875C582.428 809.463 581.656 809.28 580.733 809.323C580.25 809.346 579.828 809.424 579.467 809.559C579.106 809.693 578.784 809.87 578.501 810.089C578.217 810.293 577.964 810.532 577.742 810.807C577.534 811.081 577.342 811.362 577.165 811.649L577.075 809.737L575.383 809.817L575.917 821.178L577.609 821.099L577.304 814.616C577.279 814.089 577.338 813.609 577.479 813.176C577.619 812.729 577.821 812.338 578.084 812.002C578.362 811.666 578.687 811.401 579.06 811.208C579.433 811.014 579.846 810.906 580.3 810.885C581.208 810.842 581.933 811.109 582.474 811.686C583.029 812.247 583.332 813.062 583.382 814.132L583.697 820.812L585.367 820.734L585.059 814.185C585.032 813.628 585.089 813.126 585.23 812.679C585.385 812.232 585.595 811.855 585.859 811.548C586.138 811.227 586.464 810.984 586.838 810.82C587.212 810.641 587.611 810.541 588.036 810.521C588.959 810.478 589.691 810.744 590.232 811.321C590.787 811.882 591.09 812.712 591.142 813.811L591.454 820.447L593.146 820.368L592.815 813.336C592.748 811.914 592.322 810.819 591.537 810.048C590.751 809.263 589.699 808.901 588.381 808.963C587.883 808.987 587.431 809.067 587.027 809.203C586.636 809.339 586.285 809.517 585.972 809.737C585.66 809.957 585.378 810.213 585.128 810.504C584.892 810.794 584.678 811.097 584.488 811.415ZM598.146 806.257L598.058 804.389L596.124 804.48L596.212 806.348L598.146 806.257ZM598.666 820.108L598.131 808.747L596.439 808.826L596.974 820.188L598.666 820.108ZM604.414 809.949L608.018 809.779L607.948 808.285L604.344 808.454L604.182 805.026L602.49 805.106L602.651 808.534L601.069 808.608L601.14 810.103L602.722 810.028L603.044 816.885C603.071 817.456 603.175 817.943 603.355 818.346C603.536 818.748 603.771 819.075 604.062 819.326C604.367 819.561 604.72 819.728 605.121 819.826C605.522 819.925 605.95 819.964 606.404 819.942C606.814 819.923 607.178 819.862 607.496 819.759C607.83 819.669 608.139 819.537 608.425 819.363L608.357 817.912C608.07 818.072 607.797 818.188 607.536 818.259C607.29 818.329 607.02 818.371 606.727 818.385C606.156 818.412 605.688 818.295 605.323 818.033C604.958 817.771 604.759 817.289 604.726 816.585L604.414 809.949ZM612.25 814.403L621.26 813.979C621.27 813.876 621.273 813.78 621.269 813.693C621.265 813.605 621.261 813.524 621.258 813.451C621.218 812.616 621.064 811.837 620.795 811.116C620.527 810.394 620.152 809.773 619.673 809.253C619.193 808.732 618.616 808.333 617.942 808.057C617.268 807.765 616.513 807.639 615.678 807.679C614.887 807.716 614.162 807.904 613.502 808.244C612.858 808.582 612.306 809.034 611.848 809.599C611.39 810.149 611.038 810.797 610.794 811.542C610.564 812.273 610.469 813.048 610.507 813.869C610.549 814.748 610.733 815.546 611.061 816.265C611.403 816.983 611.843 817.594 612.38 818.097C612.917 818.586 613.537 818.96 614.239 819.221C614.941 819.467 615.68 819.572 616.456 819.535C617.54 819.484 618.44 819.251 619.154 818.836C619.868 818.406 620.496 817.855 621.037 817.183L619.938 816.288C619.491 816.794 618.99 817.206 618.432 817.526C617.889 817.845 617.222 818.024 616.431 818.061C615.933 818.084 615.453 818.026 614.991 817.886C614.529 817.732 614.107 817.502 613.725 817.197C613.343 816.877 613.024 816.489 612.768 816.031C612.51 815.558 612.338 815.016 612.25 814.403ZM612.192 813.151C612.224 812.591 612.332 812.072 612.515 811.594C612.698 811.115 612.942 810.7 613.249 810.348C613.555 809.981 613.916 809.692 614.331 809.482C614.747 809.257 615.203 809.133 615.701 809.109C616.273 809.082 616.776 809.169 617.211 809.368C617.66 809.553 618.04 809.814 618.349 810.152C618.674 810.489 618.927 810.888 619.11 811.349C619.308 811.81 619.441 812.296 619.509 812.806L612.192 813.151ZM615.917 806.192L618.288 803.702L616.492 802.971L614.554 806.256L615.917 806.192Z" fill="black"/>
<rect x="328.949" y="457.722" width="187.97" height="58.8248" rx="29.4124" transform="rotate(74.6797 328.949 457.722)" stroke="black"/>
<rect x="334.533" y="460.13" width="187.97" height="58.8248" rx="29.4124" transform="rotate(74.6797 334.533 460.13)" fill="#F1483B" stroke="black"/>
<path d="M318.602 498.081L319.902 502.826L321.869 502.287L320.569 497.542L325.083 496.305L324.473 494.078L319.959 495.314L319.388 493.231L317.421 493.77L317.991 495.853L308.964 498.326C308.212 498.532 307.595 498.815 307.113 499.175C306.631 499.536 306.266 499.946 306.02 500.408C305.797 500.884 305.68 501.403 305.669 501.966C305.657 502.529 305.733 503.11 305.897 503.708C306.045 504.248 306.235 504.714 306.467 505.107C306.685 505.524 306.953 505.897 307.271 506.224L309.18 505.701C308.882 505.368 308.646 505.039 308.474 504.713C308.307 504.406 308.171 504.059 308.065 503.674C307.859 502.921 307.876 502.264 308.115 501.7C308.355 501.137 308.938 500.728 309.864 500.475L318.602 498.081ZM319.387 522.521C320.448 522.231 321.398 521.763 322.238 521.118C323.077 520.474 323.749 519.709 324.253 518.824C324.777 517.934 325.109 516.952 325.25 515.876C325.415 514.815 325.345 513.725 325.038 512.606C324.726 511.468 324.226 510.475 323.538 509.627C322.874 508.792 322.09 508.126 321.186 507.627C320.282 507.128 319.295 506.818 318.225 506.696C317.174 506.569 316.118 506.651 315.057 506.942C313.996 507.233 313.046 507.7 312.206 508.345C311.367 508.99 310.685 509.757 310.162 510.647C309.658 511.532 309.323 512.505 309.158 513.566C309.011 514.622 309.092 515.71 309.398 516.828C309.705 517.947 310.192 518.933 310.862 519.787C311.55 520.635 312.347 521.309 313.251 521.807C314.154 522.306 315.132 522.619 316.183 522.746C317.258 522.887 318.326 522.812 319.387 522.521ZM318.703 520.251C317.893 520.473 317.094 520.547 316.306 520.473C315.538 520.393 314.827 520.183 314.174 519.844C313.522 519.504 312.948 519.039 312.455 518.448C311.98 517.852 311.632 517.149 311.41 516.339C311.194 515.548 311.147 514.773 311.271 514.014C311.395 513.254 311.648 512.552 312.032 511.908C312.42 511.283 312.932 510.728 313.566 510.243C314.206 509.777 314.931 509.434 315.741 509.212C316.551 508.99 317.34 508.919 318.109 508.999C318.897 509.073 319.614 509.271 320.262 509.591C320.934 509.925 321.507 510.39 321.982 510.986C322.475 511.577 322.833 512.277 323.055 513.087C323.272 513.878 323.318 514.653 323.194 515.413C323.071 516.173 322.807 516.877 322.405 517.527C322.021 518.171 321.51 518.726 320.87 519.191C320.236 519.676 319.513 520.03 318.703 520.251ZM313.665 531.041L334.787 525.254L334.176 523.026L313.054 528.813L313.665 531.041ZM322.101 535.719L325.35 547.582C325.491 547.564 325.619 547.539 325.735 547.508C325.85 547.476 325.956 547.447 326.053 547.42C327.152 547.119 328.142 546.682 329.022 546.109C329.902 545.537 330.617 544.853 331.167 544.06C331.717 543.266 332.075 542.38 332.242 541.401C332.429 540.417 332.372 539.375 332.07 538.276C331.785 537.234 331.318 536.325 330.67 535.549C330.027 534.792 329.262 534.193 328.374 533.751C327.505 533.305 326.538 533.031 325.473 532.929C324.433 532.84 323.373 532.944 322.293 533.24C321.135 533.557 320.127 534.041 319.268 534.691C318.415 535.36 317.733 536.127 317.224 536.993C316.734 537.853 316.42 538.789 316.282 539.801C316.164 540.808 316.245 541.823 316.525 542.845C316.916 544.273 317.495 545.4 318.261 546.227C319.046 547.049 319.965 547.719 321.02 548.239L321.884 546.51C321.078 546.067 320.38 545.522 319.788 544.875C319.201 544.248 318.765 543.414 318.48 542.372C318.3 541.716 318.234 541.06 318.283 540.404C318.351 539.743 318.53 539.113 318.823 538.514C319.134 537.91 319.556 537.37 320.089 536.892C320.641 536.409 321.312 536.018 322.101 535.719ZM323.75 535.267C324.504 535.143 325.227 535.132 325.918 535.233C326.609 535.334 327.235 535.536 327.795 535.839C328.374 536.136 328.865 536.53 329.269 537.021C329.693 537.506 329.994 538.077 330.174 538.733C330.38 539.485 330.415 540.181 330.279 540.819C330.167 541.472 329.933 542.055 329.576 542.567C329.224 543.099 328.768 543.556 328.209 543.937C327.655 544.338 327.049 544.659 326.389 544.902L323.75 535.267ZM334.12 538.15L338.141 540.563L338.577 537.955L333.629 536.356L334.12 538.15ZM326.343 553.929C327.462 553.623 328.488 553.507 329.421 553.583C330.373 553.654 331.213 553.881 331.94 554.262C332.666 554.644 333.272 555.152 333.757 555.786C334.247 556.44 334.603 557.172 334.825 557.982L334.873 558.156L337.274 557.498C337.098 556.779 336.829 556.137 336.467 555.573C336.105 555.008 335.66 554.518 335.131 554.103C334.622 553.683 334.051 553.341 333.42 553.079C332.788 552.817 332.126 552.635 331.435 552.534L335.341 551.464L334.731 549.236L319.772 553.334L320.382 555.562L326.343 553.929ZM329.826 563.918L333.076 575.781C333.216 575.763 333.344 575.739 333.46 575.707C333.575 575.675 333.682 575.646 333.778 575.62C334.877 575.319 335.867 574.882 336.747 574.309C337.627 573.736 338.342 573.053 338.892 572.259C339.442 571.466 339.8 570.579 339.968 569.6C340.154 568.616 340.097 567.574 339.796 566.475C339.51 565.433 339.044 564.524 338.395 563.748C337.752 562.991 336.987 562.392 336.099 561.951C335.23 561.504 334.263 561.23 333.198 561.128C332.158 561.04 331.098 561.143 330.018 561.439C328.86 561.756 327.852 562.24 326.993 562.89C326.14 563.559 325.459 564.327 324.949 565.192C324.459 566.052 324.145 566.988 324.008 568C323.89 569.007 323.97 570.022 324.251 571.044C324.642 572.472 325.22 573.599 325.986 574.426C326.771 575.248 327.691 575.919 328.745 576.438L329.609 574.709C328.804 574.266 328.105 573.721 327.513 573.075C326.926 572.447 326.49 571.613 326.205 570.571C326.025 569.915 325.96 569.259 326.008 568.603C326.076 567.942 326.256 567.312 326.548 566.714C326.859 566.11 327.282 565.569 327.814 565.091C328.366 564.608 329.037 564.217 329.826 563.918ZM331.475 563.466C332.229 563.343 332.952 563.331 333.643 563.432C334.334 563.533 334.96 563.735 335.52 564.038C336.099 564.335 336.591 564.73 336.995 565.22C337.418 565.706 337.719 566.276 337.899 566.932C338.105 567.684 338.14 568.38 338.004 569.019C337.893 569.671 337.658 570.254 337.301 570.766C336.949 571.298 336.493 571.755 335.934 572.136C335.38 572.537 334.774 572.858 334.115 573.101L331.475 563.466ZM336.672 581.415C337.366 581.225 338.032 581.156 338.669 581.21C339.311 581.283 339.89 581.467 340.406 581.761C340.941 582.049 341.389 582.435 341.749 582.917C342.134 583.413 342.414 583.979 342.588 584.616C342.953 585.947 342.828 587.08 342.213 588.016C341.598 588.951 340.597 589.609 339.208 589.99L330.47 592.383L331.08 594.611L340.368 592.067C341.255 591.824 342.028 591.467 342.687 590.996C343.352 590.545 343.875 589.997 344.259 589.352C344.667 588.722 344.918 588.011 345.012 587.218C345.111 586.444 345.036 585.604 344.788 584.697C344.434 583.405 343.856 582.433 343.056 581.781C342.274 581.124 341.41 580.656 340.462 580.377L343.066 579.663L342.456 577.435L327.497 581.533L328.108 583.761L336.672 581.415ZM338.447 611.512L339.39 609.729C338.589 609.306 337.874 608.776 337.243 608.14C336.618 607.523 336.174 606.733 335.909 605.768C335.693 604.977 335.637 604.205 335.741 603.45C335.87 602.71 336.126 602.018 336.51 601.373C336.918 600.743 337.439 600.186 338.073 599.701C338.713 599.235 339.438 598.892 340.248 598.67C341.058 598.448 341.847 598.377 342.616 598.456C343.404 598.531 344.124 598.738 344.777 599.078C345.449 599.412 346.02 599.867 346.489 600.444C346.977 601.015 347.324 601.677 347.53 602.429C347.81 603.451 347.824 604.371 347.57 605.187C347.322 606.022 346.971 606.823 346.518 607.59L348.484 608.638C348.756 608.19 349 607.719 349.217 607.224C349.434 606.729 349.592 606.209 349.691 605.663C349.81 605.112 349.858 604.529 349.834 603.913C349.811 603.297 349.701 602.633 349.506 601.919C349.204 600.82 348.712 599.855 348.029 599.026C347.37 598.212 346.589 597.555 345.685 597.056C344.786 596.576 343.802 596.276 342.732 596.154C341.681 596.027 340.625 596.109 339.564 596.4C338.503 596.69 337.553 597.158 336.713 597.803C335.874 598.447 335.19 599.205 334.661 600.076C334.157 600.96 333.819 601.924 333.649 602.966C333.503 604.022 333.58 605.1 333.881 606.199C334.267 607.607 334.859 608.71 335.658 609.507C336.463 610.324 337.392 610.992 338.447 611.512ZM343.813 614.976L347.063 626.839C347.203 626.822 347.331 626.797 347.447 626.765C347.563 626.733 347.669 626.704 347.765 626.678C348.865 626.377 349.855 625.94 350.734 625.367C351.614 624.794 352.329 624.111 352.879 623.317C353.429 622.524 353.788 621.638 353.955 620.659C354.142 619.674 354.084 618.632 353.783 617.533C353.498 616.491 353.031 615.582 352.383 614.806C351.74 614.049 350.974 613.45 350.086 613.009C349.218 612.563 348.251 612.288 347.186 612.186C346.146 612.098 345.085 612.202 344.005 612.498C342.848 612.815 341.84 613.298 340.981 613.948C340.127 614.617 339.446 615.385 338.936 616.25C338.446 617.11 338.132 618.046 337.995 619.059C337.877 620.066 337.958 621.08 338.238 622.103C338.629 623.53 339.207 624.657 339.973 625.484C340.758 626.306 341.678 626.977 342.733 627.497L343.597 625.767C342.791 625.324 342.092 624.779 341.5 624.133C340.914 623.505 340.478 622.671 340.192 621.629C340.013 620.974 339.947 620.318 339.995 619.662C340.063 619 340.243 618.37 340.535 617.772C340.847 617.168 341.269 616.627 341.802 616.149C342.354 615.666 343.024 615.275 343.813 614.976ZM345.462 614.525C346.217 614.401 346.939 614.39 347.63 614.49C348.322 614.591 348.947 614.793 349.507 615.096C350.086 615.394 350.578 615.788 350.982 616.278C351.405 616.764 351.707 617.335 351.886 617.99C352.093 618.743 352.128 619.438 351.991 620.077C351.88 620.729 351.646 621.312 351.288 621.825C350.936 622.357 350.481 622.813 349.922 623.194C349.368 623.595 348.761 623.917 348.102 624.16L345.462 614.525Z" fill="white"/>
<circle cx="73" cy="328" r="69.5" stroke="black"/>
<path d="M704.5 640C704.5 667.343 682.557 689.5 655.5 689.5C628.443 689.5 606.5 667.343 606.5 640C606.5 612.657 628.443 590.5 655.5 590.5C682.557 590.5 704.5 612.657 704.5 640Z" stroke="black"/>
<circle cx="916.5" cy="270.5" r="85" stroke="black"/>
<circle cx="70" cy="322" r="69.5" fill="white" stroke="black"/>
<path d="M702.5 636C702.5 663.343 680.557 685.5 653.5 685.5C626.443 685.5 604.5 663.343 604.5 636C604.5 608.657 626.443 586.5 653.5 586.5C680.557 586.5 702.5 608.657 702.5 636Z" fill="white" stroke="black"/>
<circle cx="912.5" cy="263.5" r="85" fill="white" stroke="black"/>
<path d="M28.2714 312.118C23.245 318.882 19.3844 338.567 27.8091 351.31C37.374 368.625 56.9975 373.56 77.0405 371.811C97.0835 370.062 111.354 354.74 114.776 342.57C118.198 330.399 114.776 315.41 107.855 307.565" stroke="black" stroke-width="2" stroke-linecap="round" stroke-linejoin="round"/>
<path d="M23.6014 319.575C20.1007 318.084 16.0634 321.304 17.1936 329.847C17.9871 335.845 20.4739 337.189 22.533 336.915M112.954 314.771C115.092 313.884 117.542 313.466 119.065 315.93C120.588 318.395 121.689 321.56 120.429 326.422C119.653 329.422 117.722 330.122 116.098 330.122L112.954 314.771Z" stroke="black" stroke-width="2" stroke-linecap="round" stroke-linejoin="round"/>
<path d="M67.9825 332.156C71.1249 333.794 76.9654 341.263 76.3619 345.475C75.9689 348.216 69.358 347.335 65.7129 346.751" stroke="black" stroke-width="2" stroke-linecap="round" stroke-linejoin="round"/>
<path d="M60.7578 368.677C62.5536 365.096 70.0684 358.006 85.7645 358.293" stroke="black" stroke-width="2" stroke-linecap="round" stroke-linejoin="round"/>
<path d="M49.5612 281.583C48.6571 284.25 46.0341 290.255 42.7778 292.949M39.6123 306.84C43.6827 304.315 54.988 295.475 57.7019 293.791L39.6123 306.84ZM22.0834 312.516C25.4074 309.176 34.1822 298.123 36.3982 295.896L22.0834 312.516ZM28.7586 309.787C31.6681 306.62 40.1622 297.771 42.7266 295.896L28.7586 309.787ZM35.542 306.419C38.7074 304.315 43.2302 300.105 45.4908 298L35.542 306.419ZM48.6571 291.686C52.7274 291.265 56.3454 287.056 58.1543 284.952L48.6571 291.686ZM105.64 307.335C111.519 306.84 119.088 302.479 121.394 301.842L105.64 307.335ZM17 310.8C19.2614 308.274 24.6883 304.486 25.5923 301.54L17 310.8ZM46.3957 305.577C51.6715 301.508 62.6763 293.118 64.4852 292.107L46.3957 305.577ZM53.1791 304.315C57.0991 301.648 65.9326 295.559 69.9121 292.529L53.1791 304.315ZM58.6059 304.849C63.2798 301.2 72.9876 293.652 74.4349 292.642C76.2438 291.378 66.2942 301.06 63.5812 304.006L58.6059 304.849ZM68.5556 303.472C72.0224 300.526 79.4093 294.297 81.2183 292.949L68.5556 303.472ZM74.8873 301.789C78.5052 298.842 86.1927 292.529 88.0024 290.845L74.8873 301.789ZM80.7658 300.947C83.781 298.281 90.4438 292.529 92.9769 290.845L80.7658 300.947ZM84.335 301.938C86.6286 300.161 93.2056 295.76 101.166 292.379L84.335 301.938ZM91.1679 302.21C94.032 300.105 101.117 295.391 106.544 293.37L91.1679 302.21ZM97.0472 301.789C98.2526 300.667 102.202 297.748 108.353 295.054L97.0472 301.789ZM20.1655 301.789C23.3309 300.106 25.1399 298.421 26.0439 289.582L20.1655 301.789ZM38.7074 286.635C34.1846 289.582 31.9241 289.582 28.7586 291.266L38.7074 286.635ZM28.7586 299.263C30.1415 297.067 34.4299 292.477 40.5164 291.686L28.7586 299.263ZM59.0584 282.005C57.4005 282.286 53.3599 283.604 50.466 286.635L59.0584 282.005ZM120.145 290.845C119.02 291.643 116.518 293.993 115.501 297.01L120.145 290.845ZM122.825 297.58C121.428 297.783 118.026 298.743 115.589 300.947L122.825 297.58ZM112.408 298.772C111.572 299.373 109.713 301.136 108.966 303.394L112.408 298.772ZM66.2058 279.99C64.7981 280.853 61.5031 283.681 64.1574 289.492L66.2058 279.99ZM73.53 281.583C71.8721 281.865 67.6507 283.268 67.6507 289.582L73.53 281.583ZM79.4093 289.582C83.3286 287.899 91.6203 283.604 93.4293 279.9L79.4093 289.582ZM75.7914 289.582C79.4093 286.214 84.3837 283.688 88.9065 280.322L75.7914 289.582ZM71.2694 290.017C74.4349 287.477 77.1479 283.689 79.8617 280.322L71.2694 290.017ZM97.9513 283.268L88.4541 287.056L97.9513 283.268ZM106.544 284.952C106.182 284.952 98.5548 290.003 94.7858 292.529L106.544 284.952ZM103.98 290.806C107.025 289.899 111.854 288.709 114.083 288.357L103.98 290.806ZM103.378 301.789C106.393 299.403 112.514 294.381 112.875 293.37L103.378 301.789ZM41.8729 284.952C41.8729 284.25 42.687 282.847 45.9432 282.847L41.8729 284.952ZM102.655 282.002C102.97 282.64 101.117 285.373 95.2382 288.319L102.655 282.002ZM46.3957 295.055C48.6571 295.055 55.8929 291.686 59.5108 290.003L46.3957 295.055Z" stroke="#0FA958" stroke-width="2" stroke-linecap="round" stroke-linejoin="round"/>
<path d="M102.766 327.28C104.867 326.264 111.502 321.3 113.602 319.893M44.9336 319.945C45.9954 320.835 48.791 321.784 52.0299 321.28C54.8602 320.84 56.0837 319.686 56.9019 318.249L44.9336 319.945ZM80.6355 317.663C82.2851 319.652 85.0369 320.271 86.8425 320.365C88.6474 320.459 90.988 319.772 92.7739 318.881L80.6355 317.663ZM26.082 321.001L37.3799 327.529L26.082 321.001ZM62.6013 330.473C66.8466 327.938 77.1505 327.934 79.4887 329.062L62.6013 330.473Z" stroke="black" stroke-width="2" stroke-linecap="round" stroke-linejoin="round"/>
<path d="M41.4099 340.576C34.5654 338.199 35.1434 331.861 38.3972 327.407C40.912 324.483 57.1843 325.733 60.8196 328.781C64.293 331.692 62.7664 337.832 59.3351 339.748C56.5511 341.303 45.9847 342.165 41.4099 340.576ZM100.716 325.757C97.7392 324.892 85.6941 324.949 80.9814 327.765C77.7945 329.67 75.5488 339.072 83.8827 340.112C87.6922 340.587 96.1697 340.047 99.3244 338.665C106.095 335.7 104.892 326.972 100.716 325.757V325.757Z" stroke="black" stroke-width="2" stroke-linecap="round" stroke-linejoin="round"/>
<path d="M87.12 332.393C87.9622 330.896 89.7538 330.362 90.5274 330.362C93.091 330.362 93.8192 331.391 94.3971 332.031M47.2793 332.393C48.1214 330.896 49.9131 330.362 50.6867 330.362C53.2502 330.362 53.9784 331.391 54.5564 332.031L47.2793 332.393Z" stroke="black" stroke-width="2" stroke-linecap="round" stroke-linejoin="round"/>
<path d="M955.328 243.539C965.854 263.751 973.175 303.674 967.808 310.429C955.528 325.889 894.469 330.516 873.069 316.781C858.771 307.605 857.863 260.189 865.466 247.484M962.972 258.978C965.654 258.021 970.845 255.464 972.051 260.654C973.257 265.844 973.238 269.073 972.051 274.447C971.404 277.375 969.888 278.25 968.068 278.25" stroke="black" stroke-width="3" stroke-linecap="round" stroke-linejoin="round"/>
<path d="M860.404 261.432C853.366 259.222 849.221 263.179 851.743 271.922C854.133 280.204 858.268 281.947 860.404 281.479" stroke="black" stroke-width="3" stroke-linecap="round" stroke-linejoin="round"/>
<path d="M919.712 263.896C918.981 268.835 918.682 279.009 920.07 284.561C923.324 297.577 918.64 300.726 917.03 300.726C912.16 300.726 911.014 296.378 909.896 284.079C908.508 268.812 908.469 268.949 906.518 264.672" stroke="black" stroke-width="3" stroke-linecap="round" stroke-linejoin="round"/>
<path d="M899.115 307.961C904.009 310.218 911.601 315.321 920.075 315.064C930.37 314.752 933.59 309.391 934.993 306.458" stroke="black" stroke-width="3" stroke-linecap="round" stroke-linejoin="round"/>
<path d="M916.018 307.669C913.223 305.943 908.064 309.334 906.877 311.558C908.28 316.658 913.629 320.044 919.743 320.044C926.47 320.044 930.165 314.244 930.784 312.196L930.769 312.164C930.191 311.075 929.168 309.142 926.449 307.669C923.019 305.81 920.736 313.283 920.097 313.283C919.46 313.283 919.562 309.859 916.017 307.669H916.018Z" stroke="black" stroke-width="3" stroke-linecap="round" stroke-linejoin="round"/>
<path d="M957.626 284.074C960.793 283.845 962.494 269.808 957.626 270.343C952.758 270.876 959.383 280.95 965.491 272.045C971.599 263.139 957.513 253.539 955.2 258.628C952.887 263.718 959.014 273.777 965.491 255.272C971.968 236.766 947.647 232.692 946.392 241.496C945.135 250.301 958.963 252.826 956.701 233.646C954.439 214.465 933.939 212.477 929.868 221.154C925.796 229.831 936.199 231.027 940.044 225.318C943.89 219.609 939.93 204.145 923.391 202.186C906.851 200.226 892.856 208.663 895.17 218.841C897.483 229.019 910.437 226.119 905.81 212.827C901.184 199.534 884.992 200.336 876.664 208.663C868.336 216.991 872.963 236.884 879.9 237.347C886.837 237.81 887.767 231.675 881.29 227.631C874.813 223.588 861.861 223.93 859.546 237.347C857.23 250.764 865.095 260.479 869.386 251.619C873.675 242.758 854.917 240.585 851.679 255.853C848.44 271.12 857.696 272.045 860.472 267.881C863.248 263.718 858.621 261.404 856.308 265.105C851.547 272.722 854.457 279.447 858.621 281.761" stroke="black" stroke-width="3" stroke-linecap="round" stroke-linejoin="round"/>
<path d="M892.196 286.079C891.525 285.583 887.445 283.931 885.314 280.379C883.183 276.828 883.041 273.277 885.314 271.714C886.841 270.665 890.076 272.345 892.196 273.781M893.028 273.164C894.408 271.641 896.84 270.359 899.236 271.714C900.843 272.624 900.656 278.249 899.236 280.38C898.095 282.091 894.429 284.951 893.028 285.865M931.21 272.456C929.174 270.514 924.619 267.484 922.687 270.894C920.272 275.155 927.847 282.898 932.114 284.667M933.142 285.183C935.225 283.62 939.591 280.211 940.387 279.074C941.38 277.654 942.943 271.688 940.387 269.273C937.829 266.858 932.431 270.267 932.431 274.103" stroke="#F24E1E" stroke-width="3" stroke-linecap="round" stroke-linejoin="round"/>
<path d="M883.385 258.596C883.974 257.282 886.102 254.765 889.908 255.199C894.663 255.742 895.614 256.558 896.701 258.596M926.093 256.69C926.637 255.151 928.92 252.233 933.703 252.886C938.486 253.538 940.226 256.238 940.497 257.506" stroke="black" stroke-width="3" stroke-linecap="round" stroke-linejoin="round"/>
<path d="M630.899 622.072C628.265 626.416 621.267 646.974 624.182 659.378C627.677 674.25 647.736 678.772 668.283 667.892C689.328 656.748 675.447 622.868 672.456 619.61" stroke="black" stroke-width="2" stroke-linecap="round" stroke-linejoin="round"/>
<path d="M676.357 627.146C677.475 626.648 679.559 626.586 680.355 627.971C681.152 629.356 681.526 632.025 680.971 634.533C680.662 635.935 679.695 636.36 678.845 636.36M628.051 628.157C625.526 626.649 623.124 628.065 622.694 633.451C622.423 636.838 623.956 638.346 625.033 638.192" stroke="black" stroke-width="2" stroke-linecap="round" stroke-linejoin="round"/>
<path d="M657.329 635.592C656.988 637.898 656.849 642.647 657.497 645.239C659.016 651.315 656.829 652.785 656.077 652.785C653.804 652.785 653.269 650.755 652.747 645.014C652.099 637.887 652.081 637.951 651.17 635.954" stroke="black" stroke-width="2" stroke-linecap="round" stroke-linejoin="round"/>
<path d="M635.621 667.462C635.621 667.462 638.078 666.26 638.692 664.199M639.151 664.951C639.249 665.315 636.151 668.969 636.151 668.969M640.035 664.773C639.798 666.584 637.785 669.233 637.785 669.233M638.912 669.73C638.912 669.73 641.188 667.639 641.392 665.265M642.346 665.125C642.346 666.637 641.625 669.961 641.625 669.961M653.596 664.41L653.596 669.721M641.986 669.792C641.986 669.792 643.782 667.533 643.782 665.667M655.124 668.958C655.124 668.958 653.814 666.246 653.814 664.379M644.841 665.501C644.97 666.52 643.582 669.696 643.582 669.696M657.874 664.047C658.003 665.066 660.213 667.663 660.213 667.663M655.123 664.553C655.252 665.572 657.222 668.784 657.222 668.784M645.851 665.42C645.594 667.148 645.31 670.008 645.31 670.008M655.846 664.243L658.597 668.206M646.855 665.341C647.118 666.576 647.186 669.068 648.449 669.914M659.156 664.21C659.822 665.238 661.076 666.775 662.716 667.18M648.594 664.95C648.594 665.526 647.823 667.495 649.007 669.758M651.138 669.917C651.138 669.917 649.007 667.267 649.007 664.95M650.072 664.796C650.072 666.451 652.737 669.961 652.737 669.961M653.135 669.707C652.85 668.845 651.47 665.713 651.625 664.324" stroke="black" stroke-width="2" stroke-linecap="round" stroke-linejoin="round"/>
<path d="M655.274 610.885C648.795 613.908 636.014 618.426 620.071 620.171M655.922 602.717C659.81 602.285 665.127 603.885 668.448 606.349C675.144 611.317 686.816 612.382 692.853 614.556M657.002 604.876C663.913 605.956 673.632 615.282 694.797 619.346M653.546 602.678C646.419 600.734 641.02 602.501 633.461 607.252M621.151 610.492C625.254 608.98 630.221 608.116 634.109 604.444M643.396 606.565C635.842 608.236 622.446 612.612 615.967 613.692M654.41 606.349C650.307 609.373 642.532 610.669 635.189 612.828M654.194 609.157C643.828 614.556 628.926 613.26 616.615 619.739M611 619.307C621.151 613.26 642.748 610.452 649.875 605.701M656.138 609.373C659.495 613.08 665.117 619.256 668.664 621.683C672.903 624.582 675.66 626.244 680.327 626.002M656.354 606.565C661.321 609.157 666.874 615.798 677.519 617.364C684.862 618.443 688.534 621.035 691.341 623.41" stroke="#699BF7" stroke-width="2" stroke-linecap="round" stroke-linejoin="round"/>
<path d="M658.946 610.237C662.06 612.9 665.794 616.045 670.608 618.267C676.224 620.858 681.407 622.37 685.726 622.37M634.109 620.171C631.79 620.576 626.382 621.92 623.311 624.059M640.156 605.485C644.007 604.613 650.739 603.542 654.626 604.622M668.881 619.091C674.064 623.843 682.487 622.547 685.236 628.059" stroke="#699BF7" stroke-width="2" stroke-linecap="round" stroke-linejoin="round"/>
<path d="M645.91 630.447C643.152 630.535 638.213 631.76 638.213 635.345C638.213 640.672 642.406 641.658 643.935 641.658C645.183 641.658 647.881 640.968 648.868 639.883C649.854 638.798 650.249 634.457 649.558 633.076C649.091 632.14 648.204 630.966 646.541 630.966" stroke="black" stroke-width="2" stroke-linecap="round" stroke-linejoin="round"/>
<path d="M640.669 633.997C640.5 634.031 640.146 634.074 640.264 634.368C640.382 634.661 640.837 634.597 640.946 634.368C641.056 634.139 640.837 633.626 640.837 633.626M661.361 638.145C661.479 638.439 661.576 638.373 661.686 638.145" stroke="black" stroke-width="2" stroke-linecap="round" stroke-linejoin="round"/>
<path d="M662.09 633.19C660.804 633.52 658.371 634.831 658.925 637.443C659.479 640.055 661.43 640.788 663.376 640.197C665.322 639.606 666.462 636.948 666.145 635.761C665.75 634.278 663.678 633.19 662.09 633.588M639.811 627.257C640.735 627.944 643.264 629.111 645.99 628.287C648.715 627.463 650.822 625.039 651.536 623.93M661.478 626.314C661.08 626.743 661.569 628.328 662.524 628.695C663.478 629.062 664.094 629.344 665.058 629.344" stroke="black" stroke-width="2" stroke-linecap="round" stroke-linejoin="round"/>
<path d="M258.457 845C258.043 845.052 257.959 845.081 257.806 845.514C255.034 853.368 250.569 861.169 246.594 868.383C241.406 877.798 236.04 888.044 227.394 894.851C220.821 900.028 213.626 901.236 206 903.629" stroke="black" stroke-width="3" stroke-linecap="round"/>
<path d="M256.605 853.641C256.605 851.709 257.041 850.042 257.703 848.223C257.875 847.749 257.828 849.227 257.84 849.732C257.943 854.182 258.57 858.642 259.623 862.966C261.462 870.525 264.228 878.335 270.525 883.401C281.569 892.284 294.751 891.706 307.828 894.372" stroke="black" stroke-width="3" stroke-linecap="round"/>
<path d="M214.022 903.629C212.618 903.453 214.333 903.012 214.639 902.874C218.843 900.983 223.916 902.125 228.285 903.149C236.515 905.078 241.857 914.423 245.496 921.32C249.603 929.104 252.951 937.352 255.988 945.594" stroke="black" stroke-width="3" stroke-linecap="round"/>
<path d="M295.485 896.223C289.241 895.529 282.872 893.849 277.245 898.177C260.71 910.896 255.153 933.498 252.285 953" stroke="black" stroke-width="3" stroke-linecap="round"/>
<path d="M255.297 863.612C255.991 862.831 256.062 862.063 255.157 864.102C252.947 869.082 249.683 873.816 246.787 878.373C243.375 883.742 239.899 889.092 236.176 894.254C236.069 894.403 232.508 899.188 233.655 898.736C237.533 897.207 241.323 892.768 244.231 889.981C249.096 885.318 252.933 879.933 256.522 874.258C257.435 872.815 258.323 871.356 259.184 869.881C260.591 867.468 257.246 875.119 256.242 877.725C254.119 883.235 251.489 888.497 249.133 893.903C248.775 894.726 247.559 897.544 249.448 895.654C250.718 894.385 264.228 879.605 264.542 880.036C265.118 880.829 258.211 889.597 257.853 890.121C254.136 895.567 250.021 900.875 246.647 906.545C243.332 912.116 253.728 903.155 254.281 902.693C258.215 899.411 262.349 896.271 265.977 892.643C269.013 889.607 263.401 895.096 263.123 895.392C259.846 898.889 256.796 902.643 254.456 906.843C253.929 907.789 251.703 911.453 253.055 912.481C254.974 913.939 260.373 907.921 261.337 907.001C265.149 903.365 276.092 892.022 272.001 895.339C268.35 898.299 265.154 902.32 262.108 905.862C258.572 909.974 255.328 914.297 252.443 918.889C251.089 921.044 250.65 922.773 253.651 920.378C258.937 916.159 263.734 911.258 268.201 906.195C272.282 901.57 276.919 897.466 280.948 892.818C282.429 891.11 277.39 894.992 276.956 895.462C270.623 902.322 265.761 911.929 262.546 920.658" stroke="#EF4423" stroke-width="3" stroke-linecap="round"/>
<path d="M828.029 502C827.768 502.033 827.715 502.051 827.618 502.324C825.873 507.269 823.062 512.18 820.559 516.723C817.293 522.651 813.914 529.102 808.471 533.388C804.332 536.647 799.801 537.408 795 538.914" stroke="black" stroke-width="3" stroke-linecap="round"/>
<path d="M826.863 507.44C826.863 506.223 827.138 505.174 827.554 504.029C827.663 503.73 827.633 504.661 827.64 504.979C827.706 507.781 828.1 510.589 828.763 513.312C829.921 518.071 831.663 522.988 835.628 526.178C842.581 531.771 850.881 531.407 859.115 533.086" stroke="black" stroke-width="3" stroke-linecap="round"/>
<path d="M800.052 538.914C799.168 538.804 800.248 538.526 800.441 538.44C803.088 537.248 806.282 537.968 809.033 538.612C814.215 539.827 817.578 545.711 819.87 550.054C822.455 554.954 824.563 560.148 826.475 565.337" stroke="black" stroke-width="3" stroke-linecap="round"/>
<path d="M851.343 534.251C847.411 533.814 843.401 532.756 839.858 535.482C829.447 543.49 825.948 557.721 824.143 570" stroke="black" stroke-width="3" stroke-linecap="round"/>
<path d="M826.039 513.718C826.476 513.227 826.521 512.743 825.951 514.027C824.559 517.162 822.504 520.143 820.681 523.012C818.532 526.393 816.344 529.761 814 533.011C813.932 533.105 811.691 536.118 812.413 535.834C814.855 534.87 817.241 532.076 819.071 530.321C822.135 527.385 824.551 523.994 826.811 520.421C827.385 519.513 827.945 518.594 828.486 517.665C829.372 516.146 827.266 520.963 826.634 522.604C825.297 526.073 823.641 529.387 822.158 532.791C821.933 533.309 821.167 535.083 822.357 533.893C823.156 533.094 831.662 523.788 831.86 524.059C832.223 524.559 827.874 530.079 827.648 530.409C825.308 533.838 822.717 537.18 820.593 540.75C818.505 544.258 825.051 538.616 825.399 538.325C827.876 536.259 830.48 534.281 832.764 531.997C834.675 530.085 831.142 533.541 830.967 533.728C828.903 535.93 826.983 538.293 825.51 540.938C825.178 541.534 823.776 543.841 824.628 544.488C825.836 545.406 829.235 541.616 829.842 541.037C832.242 538.748 839.132 531.606 836.556 533.695C834.258 535.558 832.246 538.09 830.327 540.32C828.101 542.909 826.058 545.631 824.242 548.523C823.39 549.879 823.113 550.968 825.003 549.46C828.331 546.803 831.351 543.718 834.164 540.53C836.733 537.618 839.653 535.034 842.19 532.107C843.122 531.032 839.949 533.476 839.676 533.772C835.689 538.092 832.628 544.14 830.603 549.636" stroke="#FFC62D" stroke-width="3" stroke-linecap="round"/>
</svg>
