<svg width="260" height="115" viewBox="0 0 260 115" fill="none" xmlns="http://www.w3.org/2000/svg">
<path d="M221.748 35.9019C221.505 35.0954 218.747 33.6003 218.856 33.097C220.337 26.2333 248.081 30.0793 251.385 31.4628C253.958 32.5405 251.438 36.2951 250.191 37.3771C247.397 39.8011 242.406 38.7716 239.413 37.3005C237.36 36.2908 229.592 26.2866 230.21 31.3916C232.984 54.3274 215.739 36.6364 206.362 38.8768C196.441 41.247 195.856 59.6773 193.491 67.0549C188.533 82.5252 177.569 90.4836 165.461 77.0799" stroke="#3FA692" stroke-width="3" stroke-linecap="round"/>
<path d="M156.838 49.5438C160.128 44.2805 175.289 36.1818 180.808 38.8892C186.215 41.5417 172.289 71.0941 160.397 65.7828C156.975 64.2545 154.983 57.9606 151.566 57.3211C149.098 56.859 145.783 67.0257 144.844 68.6394C131.195 92.1071 120.248 30.4336 116.596 22.0962" stroke="#3FA692" stroke-width="3" stroke-linecap="round"/>
<path d="M138.359 88.2656C139.823 89.1805 140.769 89.1752 142.42 88.8952" stroke="#3FA692" stroke-width="3" stroke-linecap="round"/>
<path d="M106.89 65.9208C106.376 62.8892 108.905 72.4339 107.427 75.1299C104.031 81.3206 97.9653 84.3556 94.0806 77.6124C87.3229 65.8821 88.4891 86.8651 78.4559 84.3623C73.9268 83.2325 70.1428 75.2612 68.568 71.3932C68.0116 70.0263 65.4592 62.5593 66.3261 67.6725C71.633 98.9726 37.0965 101.432 20.828 79.1946" stroke="#3FA692" stroke-width="3" stroke-linecap="round"/>
<path d="M55.6186 66.7055C53.9181 66.9938 59.6301 63.094 60.0703 62.7287C75.8715 49.6142 91.9924 36.9037 107.628 23.6167" stroke="#3FA692" stroke-width="3" stroke-linecap="round"/>
<path d="M78.7907 102.32C78.5067 100.645 78.3973 100.447 79.6375 99.54" stroke="#3FA692" stroke-width="3" stroke-linecap="round"/>
<path d="M82.2016 99.1055C83.3571 98.7578 82.9797 98.5457 83.2656 97.607" stroke="white" stroke-width="3" stroke-linecap="round"/>
<path d="M80.2904 103.383C83.9956 102.323 85.7223 98.5081 89.8888 97.8017" stroke="#3FA692" stroke-width="3" stroke-linecap="round"/>
<path d="M98.4238 93.7188L98.8583 96.2813" stroke="#3FA692" stroke-width="3" stroke-linecap="round"/>
<path d="M2.82425 58.5213C1.7667 52.2838 7.27469 70.3731 9.15325 76.4142C10.3449 80.2462 12.2994 92.2976 15.5305 94.5919" stroke="#3FA692" stroke-width="3" stroke-linecap="round"/>
<path d="M17.2676 104.842L17.4848 106.124" stroke="#3FA692" stroke-width="3" stroke-linecap="round"/>
</svg>
