<svg width="93" height="127" viewBox="0 0 93 127" fill="none" xmlns="http://www.w3.org/2000/svg">
<path d="M11.0533 30.1238C10.6114 30.6791 10.8037 29.6395 10.8008 29.1431C10.7937 27.9016 10.9953 26.3811 11.38 25.1777C12.0418 23.1079 12.8558 21.4393 13.9713 19.6107C16.0074 16.273 18.7314 12.5585 21.6904 10.0069C23.4035 8.52971 25.6771 7.58795 27.7966 6.8891C29.5009 6.3272 31.1122 5.2949 32.8583 4.87802C37.3132 3.81433 41.7514 1.7989 46.49 2.3771C48.1676 2.5818 50.2646 2.66161 51.8076 3.43499C53.5393 4.30298 55.7505 4.24878 57.3525 5.41972C58.7081 6.41061 60.423 6.81555 61.7622 7.8642C62.5167 8.45497 63.314 9.0062 63.9527 9.73365C64.6401 10.5167 65.2762 11.5398 66.0128 12.2511C67.0746 13.2764 68.0332 14.7064 68.9507 15.8699C70.1945 17.4472 71.7368 18.8308 72.9759 20.3796C74.5663 22.3675 78.6617 26.5984 76.845 29.3178" stroke="#F8962F" stroke-width="1.72706" stroke-linecap="round"/>
<path d="M10.9102 31.1261C11.1224 31.1409 11.5135 38.5363 11.5684 39.5434C11.7426 42.7352 12.5137 45.9295 12.6883 49.1289C12.9704 54.299 13.0533 59.4622 13.3341 64.6078" stroke="#F8962F" stroke-width="1.72706" stroke-linecap="round"/>
<path d="M76.8121 28.7228C76.8975 30.287 77.5801 31.8772 77.1716 33.4878C76.8275 34.845 77.2443 36.642 77.3202 38.0323C77.4565 40.5294 77.1984 43.09 77.3355 45.6007C77.5029 48.6683 77.2434 51.8977 77.7989 54.9016C78.3517 57.8914 78.5702 60.9364 78.7362 63.9777C78.801 65.164 79.2233 66.4104 79.1207 67.5811C78.9862 69.1171 78.8303 70.7158 78.7801 72.2738C78.7045 74.6187 77.655 76.9672 77.7818 79.2898C77.8928 81.3242 77.1164 83.3666 77.1203 85.3923C77.1224 86.4746 76.3357 88.9068 75.3537 89.4667" stroke="#F8962F" stroke-width="1.72706" stroke-linecap="round"/>
<path d="M12.5302 64.4529C12.3345 67.2512 13.8342 70.1236 13.9919 73.0142C14.049 74.0597 14.331 75.0252 14.3586 76.0882C14.3957 77.5182 14.1196 78.9977 14.1977 80.4286C14.2876 82.0763 14.0122 84.2423 14.785 85.7226C15.7166 87.5072 16.512 88.4714 18.0908 89.8075C19.3547 90.877 21.1991 91.5406 22.5284 92.5598C23.8338 93.5606 24.4001 95.2147 25.6088 96.3586C28.4342 99.0328 31.8909 100.371 35.4499 101.744C39.4262 103.279 44.2185 104.293 48.4606 104.062C49.5296 104.004 50.5083 103.751 51.5786 103.693C52.4228 103.647 53.9756 103.609 54.7133 103.223C55.8884 102.61 58.0246 102.185 59.3359 102.076C61.0604 101.933 63.5725 101.073 64.8739 99.8844C66.631 98.2792 69.2094 97.6565 71.1073 96.2623C72.7392 95.0634 74.2632 94.0511 75.6222 92.5352C76.057 92.0502 76.5986 91.0591 76.5992 90.3934C76.6006 89.0426 77.5579 87.89 78.1892 86.7265" stroke="#F8962F" stroke-width="1.72706" stroke-linecap="round"/>
<path d="M53.3284 50.2922C53.3948 51.5075 51.757 48.43 50.9032 47.5626C50.1732 46.8211 49.0585 45.5712 48.0368 45.2549C45.9158 44.5984 43.3562 44.5238 41.463 45.8789C40.3658 46.6643 39.9267 47.9537 39.0878 48.9257C38.2129 49.9395 37.4817 51.1336 37.0213 52.3645C36.2621 54.3945 35.0417 58.0771 36.9901 59.8913C39.5966 62.3183 42.1469 63.3182 45.6977 63.9465C48.2598 64.3998 52.5446 63.7844 54.2368 61.4694C55.1723 60.1896 55.9922 58.8166 56.4968 57.3239C56.9203 56.0711 56.7623 54.9 56.6908 53.5894C56.5664 51.3111 54.4603 49.6982 52.6361 48.5399" stroke="#F8962F" stroke-width="1.72706" stroke-linecap="round"/>
<path d="M47.4388 55.3869C45.9761 55.4667 41.7555 56.6915 43.2182 56.6117C44.0305 56.5674 45.4528 54.5751 45.8098 53.8846C46.0063 53.5046 46.4144 53.4339 46.5219 52.9617C46.6802 52.266 46.7515 53.6844 46.7549 53.7888C46.8049 55.3381 45.7946 59.8486 46.4113 58.4264" stroke="#F8962F" stroke-width="1.72706" stroke-linecap="round"/>
<path d="M50.049 33.9627C50.2621 35.1411 66.6439 32.6592 69.065 32.527C72.1086 32.3609 81.2524 32.2597 78.2088 32.4258" stroke="#F8962F" stroke-width="1.72706" stroke-linecap="round"/>
<path d="M75.8155 46.8775C77.4917 46.786 72.5005 47.4562 70.8243 47.5477C69.2466 47.6338 67.6908 47.5198 66.1202 47.6055C65.3541 47.6473 61.5485 47.8619 61.5156 47.2601" stroke="#F8962F" stroke-width="1.72706" stroke-linecap="round"/>
<path d="M11.7984 36.4477C15.8181 36.2284 19.9182 35.4053 23.9395 34.9785C27.71 34.5782 31.3588 33.9879 35.1231 33.7825" stroke="#F8962F" stroke-width="1.72706" stroke-linecap="round"/>
<path d="M12.3673 50.5388C17.5851 50.2541 22.8044 49.5714 28.0121 49.2872" stroke="#F8962F" stroke-width="1.72706" stroke-linecap="round"/>
<path d="M13.9383 64.7738C9.66839 65.0069 22.5684 64.5165 26.6913 63.3817C28.9574 62.7579 36.0728 62.7702 33.7259 62.8983" stroke="#F8962F" stroke-width="1.72706" stroke-linecap="round"/>
<path d="M60.3556 62.4396C59.9884 62.4597 59.2539 62.4998 59.2539 62.4998C59.2539 62.4998 62.0165 62.5289 63.3968 62.4836C66.4663 62.3829 69.5193 62.5362 72.5841 62.3689C73.7409 62.3058 74.8977 62.2427 76.0545 62.1795C76.6962 62.1445 78.2774 62.149 77.8284 61.8838" stroke="#F8962F" stroke-width="1.72706" stroke-linecap="round"/>
<path d="M77.1865 75.6426C79.53 75.5147 72.4948 75.9521 70.1491 75.872C67.1161 75.7684 64.0781 75.7613 61.0469 75.9267C59.2548 76.0245 57.5014 75.9213 55.7258 76.0182C55.2253 76.0456 52.626 76.499 52.3438 76.0039" stroke="#F8962F" stroke-width="1.72706" stroke-linecap="round"/>
<path d="M15.3145 79.0196C14.1128 79.0852 15.9763 79.1733 16.4762 79.0447C18.4594 78.5342 20.5451 78.6086 22.5258 78.1288C25.8799 77.3164 29.4683 77.0937 32.8798 76.514C36.3393 75.9262 46.9025 75.9034 43.3986 76.0946" stroke="#F8962F" stroke-width="1.72706" stroke-linecap="round"/>
<path d="M36.7894 6.04429C35.2784 6.12675 36.4568 11.9524 36.3964 13.6239C36.3762 14.1822 36.1197 18.2421 36.5698 16.5979" stroke="#F8962F" stroke-width="1.72706" stroke-linecap="round"/>
<path d="M47.5828 3.26771C47.6676 4.82112 47.6399 6.35807 47.8249 7.90653C47.9637 9.06774 48.2015 10.6247 47.9478 11.7784C47.8153 12.3813 47.417 15.68 47.8247 14.9896" stroke="#F8962F" stroke-width="1.72706" stroke-linecap="round"/>
<path d="M59.3202 7.00271C58.2867 8.15556 58.5301 10.7469 58.6101 12.2128C58.6504 12.9523 58.351 15.043 58.365 15.0108" stroke="#F8962F" stroke-width="1.72706" stroke-linecap="round"/>
<path d="M26.4338 9.39432C27.9147 9.12655 26.6773 17.535 28.309 18.2425" stroke="#F8962F" stroke-width="1.72706" stroke-linecap="round"/>
<path d="M10.1264 67.7662C10.577 67.7977 10.4093 68.0174 9.93349 67.8762C9.07506 67.6214 7.60373 68.1642 6.90318 68.6383C5.66438 69.4766 4.57485 70.3559 4.13797 71.8279C3.65143 73.4673 3.77 75.755 4.19002 77.4385C4.70545 79.5043 4.18952 81.7581 4.68198 83.8206C5.09873 85.5661 5.48285 87.4183 6.22775 89.0623C7.06111 90.9016 8.79856 92.4516 9.97093 94.0736C11.7668 96.5583 12.7983 99.1595 15.5582 100.885C16.8325 101.681 18.0538 102.495 19.4063 103.161C20.4306 103.666 21.8096 104.244 22.6979 104.959C24.339 106.282 26.6879 108.107 28.7178 108.764C30.6235 109.38 32.7272 110.663 34.7505 110.777C35.8501 110.839 38.4932 112.173 39.3657 111.52" stroke="#F8962F" stroke-width="1.72706" stroke-linecap="round"/>
<path d="M78.7201 63.6248C78.683 64.155 78.7038 63.8116 79.3206 63.4926C80.5189 62.8727 82.0532 62.2875 83.4145 62.1752C85.2861 62.0208 86.3989 62.3684 87.8645 63.5346C91.296 66.265 89.049 71.8077 88.456 75.1821C87.8951 78.3737 86.7006 81.4424 86.2342 84.6848C85.8081 87.6468 84.0742 89.985 82.889 92.6355C81.7407 95.2035 79.8347 97.0943 77.9748 99.169C75.8958 101.488 74.7944 104.443 72.2557 106.343C69.9843 108.043 67.3425 109.173 64.7447 110.245C62.7956 111.049 60.1797 111.776 58.083 111.89C57.5282 111.921 55.2287 112.291 55.3175 112.24" stroke="#F8962F" stroke-width="1.72706" stroke-linecap="round"/>
<path d="M54.9486 105.498C54.4289 102.624 55.2465 111.374 54.7858 114.258C54.4979 116.06 54.8403 118.092 54.94 119.919C55.0445 121.835 52.8717 122.725 51.3665 123.484C50.0971 124.124 47.6116 124.557 46.1807 124.231C42.2576 123.338 40.5087 118.768 39.9677 115.067C39.5829 112.435 40.2624 109.736 40.1187 107.103C40.0624 106.072 40.4054 105.068 40.3482 104.018C40.333 103.741 40.4548 102.327 40.4972 103.104" stroke="#F8962F" stroke-width="1.72706" stroke-linecap="round"/>
<path d="M63.2609 86.5469C63.1874 86.1403 62.8732 86.5831 62.8775 86.811C62.9009 88.0561 63.3756 89.3079 63.7736 90.4748C64.302 92.0241 64.6084 93.6327 65.0812 95.1992C65.3302 96.0244 65.8256 97.0954 65.8717 97.9406C65.8886 98.2513 65.9798 99.9211 65.9474 99.3288" stroke="#F8962F" stroke-width="1.72706" stroke-linecap="round"/>
<path d="M52.1875 87.7473C52.3802 91.2776 53.5594 94.6628 53.7527 98.2036C53.8146 99.3388 53.9208 100.482 53.939 101.619C53.9454 102.011 53.9065 104.667 53.8466 103.569" stroke="#F8962F" stroke-width="1.72706" stroke-linecap="round"/>
<path d="M42.3704 104.593C42.6884 110.419 42.7275 92.914 42.4095 87.0876" stroke="#F8962F" stroke-width="1.72706" stroke-linecap="round"/>
<path d="M31.0047 100.44C31.9624 100.144 31.3794 92.7281 31.3049 91.3623C31.2627 90.5903 31.5704 89.5167 31.9634 88.8512" stroke="#F8962F" stroke-width="1.72706" stroke-linecap="round"/>
</svg>
