<svg width="146" height="100" viewBox="0 0 146 100" fill="none" xmlns="http://www.w3.org/2000/svg">
<path d="M124.022 6.39746C123.31 1.88689 127.163 14.9592 127.168 17.1938C127.192 26.9923 121.519 13.9132 117.107 13.0818C113.584 12.4178 116.568 32.6867 116.374 35.0649C116.099 38.4377 115.74 45.6704 112.009 47.3803C107.101 49.6297 103.478 39.7951 101.922 36.7953" stroke="black" stroke-opacity="0.26" stroke-width="3" stroke-linecap="round"/>
<path d="M126.176 38.9411C130.549 37.7946 134.455 34.6492 138.047 32.0827" stroke="black" stroke-opacity="0.26" stroke-width="3" stroke-linecap="round"/>
<path d="M107.034 6.09284C108.136 4.37335 109.52 5.97063 107.699 3.99479" stroke="black" stroke-opacity="0.26" stroke-width="3" stroke-linecap="round"/>
<path d="M101.61 15.9185C101.08 12.5662 103.581 19.3284 102.497 21.5356C99.2063 28.2379 97.4539 20.6719 94.9499 21.0677C94.6617 21.1132 93.9327 24.9367 93.6912 25.3632C91.7311 28.8249 89.1162 32.0451 85.5109 33.8529C75.8942 38.675 71.22 20.2505 69.4238 14.0298" stroke="black" stroke-opacity="0.26" stroke-width="3" stroke-linecap="round"/>
<path d="M100.18 32.088C100.591 33.4244 106.269 29.6293 106.524 28.0959" stroke="black" stroke-opacity="0.26" stroke-width="3" stroke-linecap="round"/>
<path d="M86.2083 19.3488C87.1425 17.891 87.2825 15.9951 85.5938 15.46" stroke="black" stroke-opacity="0.26" stroke-width="3" stroke-linecap="round"/>
<path d="M55.816 35.1136C55.5831 34.3069 52.8938 39.2736 56.9539 40.9126C58.6876 41.6124 64.5456 41.0487 62.1452 43.6352C60.0629 45.879 58.273 48.545 56.3214 50.922C48.189 60.8276 38.9586 33.8962 36.9336 29.1294" stroke="black" stroke-opacity="0.26" stroke-width="3" stroke-linecap="round"/>
<path d="M29.9273 54.1522C29.6431 54.1971 33.6172 52.0033 35.7664 54.6687C38.4111 57.9487 35.396 64.171 32.8969 66.6371C28.6207 70.8571 27.1509 65.2053 25.1696 61.8794" stroke="black" stroke-opacity="0.26" stroke-width="3" stroke-linecap="round"/>
<path d="M7.5167 63.673C7.30093 62.6716 4.4403 55.0598 6.78261 59.028C9.80515 64.1486 12.7309 69.849 14.3751 75.5433" stroke="black" stroke-opacity="0.26" stroke-width="3" stroke-linecap="round"/>
<path d="M20.5191 95.4986C21.7153 103.067 20.382 88.7427 18.882 97.7503" stroke="black" stroke-opacity="0.26" stroke-width="3" stroke-linecap="round"/>
</svg>
